<?xml version="1.0" standalone="no"?>
 <!DOCTYPE svg PUBLIC "-//W3C//DTD SVG 1.1//EN" 
 "http://www.w3.org/Graphics/SVG/1.1/DTD/svg11.dtd"> 
<svg
  xmlns:svg="http://www.w3.org/2000/svg"
  xmlns="http://www.w3.org/2000/svg"
  xmlns:xlink="http://www.w3.org/1999/xlink"
  version="1.1"
  width="44.5262mm" height="46.1772mm" viewBox="0.0000 0.0000 44.5262 46.1772">
<title>SVG Image created as PicoMod Breakout-B_Paste.svg date 2023/05/24 00:03:09 </title>
  <desc>Image generated by PCBNEW </desc>
<g style="fill:#000000; fill-opacity:1.0000;stroke:#000000; stroke-opacity:1.0000;
stroke-linecap:round; stroke-linejoin:round;"
 transform="translate(0 0) scale(1 1)">
</g>
<g style="fill:#000000; fill-opacity:0.0; 
stroke:#000000; stroke-width:0.0000; stroke-opacity:1; 
stroke-linecap:round; stroke-linejoin:round;">
<g >
</g>
<g >
</g>
<g >
</g>
<g >
</g>
<g >
</g>
<g >
</g>
<g >
</g>
<g >
</g>
<g >
</g>
<g >
</g>
<g >
</g>
<g >
</g>
<g >
</g>
<g >
</g>
<g >
</g>
<g >
</g>
<g >
</g>
<g >
</g>
<g >
</g>
<g >
</g>
<g >
</g>
<g >
</g>
<g >
</g>
<g >
</g>
<g >
</g>
<g >
</g>
<g >
</g>
<g style="fill:#00C2C2; fill-opacity:0.0; 
stroke:#00C2C2; stroke-width:0.0000; stroke-opacity:1; 
stroke-linecap:round; stroke-linejoin:round;">
</g>
<g style="fill:#00C2C2; fill-opacity:0.0; 
stroke:#00C2C2; stroke-width:0.0000; stroke-opacity:1; 
stroke-linecap:round; stroke-linejoin:round;">
</g>
<g style="fill:#00C2C2; fill-opacity:0.9000; 
stroke:#00C2C2; stroke-width:0.0000; stroke-opacity:1; 
stroke-linecap:round; stroke-linejoin:round;">
<path style="fill:#00C2C2; fill-opacity:0.9000; 
stroke:#00C2C2; stroke-width:0.0000; stroke-opacity:1; 
stroke-linecap:round; stroke-linejoin:round;fill-rule:evenodd;"
d="M 22.1087,40.7375
22.0916,40.8236
22.0428,40.8966
21.9698,40.9454
21.8837,40.9625
21.4337,40.9625
21.3476,40.9454
21.2746,40.8966
21.2258,40.8236
21.2087,40.7375
21.2087,40.2375
21.2258,40.1514
21.2746,40.0784
21.3476,40.0296
21.4337,40.0125
21.8837,40.0125
21.9698,40.0296
22.0428,40.0784
22.0916,40.1514
22.1087,40.2375
Z" /> 
<path style="fill:#00C2C2; fill-opacity:0.9000; 
stroke:#00C2C2; stroke-width:0.0000; stroke-opacity:1; 
stroke-linecap:round; stroke-linejoin:round;fill-rule:evenodd;"
d="M 20.5587,40.7375
20.5416,40.8236
20.4928,40.8966
20.4198,40.9454
20.3337,40.9625
19.8837,40.9625
19.7976,40.9454
19.7246,40.8966
19.6758,40.8236
19.6587,40.7375
19.6587,40.2375
19.6758,40.1514
19.7246,40.0784
19.7976,40.0296
19.8837,40.0125
20.3337,40.0125
20.4198,40.0296
20.4928,40.0784
20.5416,40.1514
20.5587,40.2375
Z" /> 
</g>
<g >
</g>
<g style="fill:#00C2C2; fill-opacity:0.9000; 
stroke:#00C2C2; stroke-width:0.0000; stroke-opacity:1; 
stroke-linecap:round; stroke-linejoin:round;">
<path style="fill:#00C2C2; fill-opacity:0.9000; 
stroke:#00C2C2; stroke-width:0.0000; stroke-opacity:1; 
stroke-linecap:round; stroke-linejoin:round;fill-rule:evenodd;"
d="M 20.8337,30.6375
20.8337,31.4375
19.2337,31.4375
19.2337,30.6375
Z" /> 
</g>
<g >
</g>
<g style="fill:#00C2C2; fill-opacity:0.9000; 
stroke:#00C2C2; stroke-width:0.0000; stroke-opacity:1; 
stroke-linecap:round; stroke-linejoin:round;">
<path style="fill:#00C2C2; fill-opacity:0.9000; 
stroke:#00C2C2; stroke-width:0.0000; stroke-opacity:1; 
stroke-linecap:round; stroke-linejoin:round;fill-rule:evenodd;"
d="M 22.3087,34.6875
22.3258,34.6014
22.3746,34.5284
22.4476,34.4796
22.5337,34.4625
22.9837,34.4625
23.0698,34.4796
23.1428,34.5284
23.1916,34.6014
23.2087,34.6875
23.2087,35.1875
23.1916,35.2736
23.1428,35.3466
23.0698,35.3954
22.9837,35.4125
22.5337,35.4125
22.4476,35.3954
22.3746,35.3466
22.3258,35.2736
22.3087,35.1875
Z" /> 
<path style="fill:#00C2C2; fill-opacity:0.9000; 
stroke:#00C2C2; stroke-width:0.0000; stroke-opacity:1; 
stroke-linecap:round; stroke-linejoin:round;fill-rule:evenodd;"
d="M 23.8587,34.6875
23.8758,34.6014
23.9246,34.5284
23.9976,34.4796
24.0837,34.4625
24.5337,34.4625
24.6198,34.4796
24.6928,34.5284
24.7416,34.6014
24.7587,34.6875
24.7587,35.1875
24.7416,35.2736
24.6928,35.3466
24.6198,35.3954
24.5337,35.4125
24.0837,35.4125
23.9976,35.3954
23.9246,35.3466
23.8758,35.2736
23.8587,35.1875
Z" /> 
</g>
<g >
</g>
<g style="fill:#00C2C2; fill-opacity:0.9000; 
stroke:#00C2C2; stroke-width:0.0000; stroke-opacity:1; 
stroke-linecap:round; stroke-linejoin:round;">
<path style="fill:#00C2C2; fill-opacity:0.9000; 
stroke:#00C2C2; stroke-width:0.0000; stroke-opacity:1; 
stroke-linecap:round; stroke-linejoin:round;fill-rule:evenodd;"
d="M 23.5837,36.4575
23.9337,36.4575
23.9337,37.0475
23.5837,37.0475
Z" /> 
<path style="fill:#00C2C2; fill-opacity:0.9000; 
stroke:#00C2C2; stroke-width:0.0000; stroke-opacity:1; 
stroke-linecap:round; stroke-linejoin:round;fill-rule:evenodd;"
d="M 23.0837,36.4575
23.4337,36.4575
23.4337,37.0475
23.0837,37.0475
Z" /> 
<path style="fill:#00C2C2; fill-opacity:0.9000; 
stroke:#00C2C2; stroke-width:0.0000; stroke-opacity:1; 
stroke-linecap:round; stroke-linejoin:round;fill-rule:evenodd;"
d="M 22.5837,36.4575
22.9337,36.4575
22.9337,37.0475
22.5837,37.0475
Z" /> 
<path style="fill:#00C2C2; fill-opacity:0.9000; 
stroke:#00C2C2; stroke-width:0.0000; stroke-opacity:1; 
stroke-linecap:round; stroke-linejoin:round;fill-rule:evenodd;"
d="M 22.0837,36.4575
22.4337,36.4575
22.4337,37.0475
22.0837,37.0475
Z" /> 
<path style="fill:#00C2C2; fill-opacity:0.9000; 
stroke:#00C2C2; stroke-width:0.0000; stroke-opacity:1; 
stroke-linecap:round; stroke-linejoin:round;fill-rule:evenodd;"
d="M 21.5837,36.4575
21.9337,36.4575
21.9337,37.0475
21.5837,37.0475
Z" /> 
<path style="fill:#00C2C2; fill-opacity:0.9000; 
stroke:#00C2C2; stroke-width:0.0000; stroke-opacity:1; 
stroke-linecap:round; stroke-linejoin:round;fill-rule:evenodd;"
d="M 21.0837,36.4575
21.4337,36.4575
21.4337,37.0475
21.0837,37.0475
Z" /> 
<path style="fill:#00C2C2; fill-opacity:0.9000; 
stroke:#00C2C2; stroke-width:0.0000; stroke-opacity:1; 
stroke-linecap:round; stroke-linejoin:round;fill-rule:evenodd;"
d="M 20.5837,36.4575
20.9337,36.4575
20.9337,37.0475
20.5837,37.0475
Z" /> 
<path style="fill:#00C2C2; fill-opacity:0.9000; 
stroke:#00C2C2; stroke-width:0.0000; stroke-opacity:1; 
stroke-linecap:round; stroke-linejoin:round;fill-rule:evenodd;"
d="M 20.0487,38.0925
20.0487,37.7425
20.6387,37.7425
20.6387,38.0925
Z" /> 
<path style="fill:#00C2C2; fill-opacity:0.9000; 
stroke:#00C2C2; stroke-width:0.0000; stroke-opacity:1; 
stroke-linecap:round; stroke-linejoin:round;fill-rule:evenodd;"
d="M 20.9337,39.3775
20.5837,39.3775
20.5837,38.7875
20.9337,38.7875
Z" /> 
<path style="fill:#00C2C2; fill-opacity:0.9000; 
stroke:#00C2C2; stroke-width:0.0000; stroke-opacity:1; 
stroke-linecap:round; stroke-linejoin:round;fill-rule:evenodd;"
d="M 21.4337,39.3775
21.0837,39.3775
21.0837,38.7875
21.4337,38.7875
Z" /> 
<path style="fill:#00C2C2; fill-opacity:0.9000; 
stroke:#00C2C2; stroke-width:0.0000; stroke-opacity:1; 
stroke-linecap:round; stroke-linejoin:round;fill-rule:evenodd;"
d="M 21.9337,39.3775
21.5837,39.3775
21.5837,38.7875
21.9337,38.7875
Z" /> 
<path style="fill:#00C2C2; fill-opacity:0.9000; 
stroke:#00C2C2; stroke-width:0.0000; stroke-opacity:1; 
stroke-linecap:round; stroke-linejoin:round;fill-rule:evenodd;"
d="M 22.4337,39.3775
22.0837,39.3775
22.0837,38.7875
22.4337,38.7875
Z" /> 
<path style="fill:#00C2C2; fill-opacity:0.9000; 
stroke:#00C2C2; stroke-width:0.0000; stroke-opacity:1; 
stroke-linecap:round; stroke-linejoin:round;fill-rule:evenodd;"
d="M 22.9337,39.3775
22.5837,39.3775
22.5837,38.7875
22.9337,38.7875
Z" /> 
<path style="fill:#00C2C2; fill-opacity:0.9000; 
stroke:#00C2C2; stroke-width:0.0000; stroke-opacity:1; 
stroke-linecap:round; stroke-linejoin:round;fill-rule:evenodd;"
d="M 23.4337,39.3775
23.0837,39.3775
23.0837,38.7875
23.4337,38.7875
Z" /> 
<path style="fill:#00C2C2; fill-opacity:0.9000; 
stroke:#00C2C2; stroke-width:0.0000; stroke-opacity:1; 
stroke-linecap:round; stroke-linejoin:round;fill-rule:evenodd;"
d="M 23.9337,39.3775
23.5837,39.3775
23.5837,38.7875
23.9337,38.7875
Z" /> 
<path style="fill:#00C2C2; fill-opacity:0.9000; 
stroke:#00C2C2; stroke-width:0.0000; stroke-opacity:1; 
stroke-linecap:round; stroke-linejoin:round;fill-rule:evenodd;"
d="M 24.4687,37.7425
24.4687,38.0925
23.8787,38.0925
23.8787,37.7425
Z" /> 
</g>
<g >
</g>
<g style="fill:#00C2C2; fill-opacity:0.9000; 
stroke:#00C2C2; stroke-width:0.0000; stroke-opacity:1; 
stroke-linecap:round; stroke-linejoin:round;">
<path style="fill:#00C2C2; fill-opacity:0.9000; 
stroke:#00C2C2; stroke-width:0.0000; stroke-opacity:1; 
stroke-linecap:round; stroke-linejoin:round;fill-rule:evenodd;"
d="M 24.3837,30.6375
24.3837,31.4375
22.7837,31.4375
22.7837,30.6375
Z" /> 
</g>
<g >
</g>
<g >
</g>
<g >
</g>
</g>
<g style="fill:#000000; fill-opacity:1.0000; 
stroke:#000000; stroke-width:0.0000; stroke-opacity:1; 
stroke-linecap:round; stroke-linejoin:round;">
</g>
<g style="fill:#D0D2CD; fill-opacity:1.0000; 
stroke:#D0D2CD; stroke-width:0.0000; stroke-opacity:1; 
stroke-linecap:round; stroke-linejoin:round;">
</g>
<g style="fill:#D0D2CD; fill-opacity:1.0000; 
stroke:#D0D2CD; stroke-width:0.2000; stroke-opacity:1; 
stroke-linecap:round; stroke-linejoin:round;">
</g>
<g style="fill:#D0D2CD; fill-opacity:0.0; 
stroke:#D0D2CD; stroke-width:0.2000; stroke-opacity:1; 
stroke-linecap:round; stroke-linejoin:round;">
<path d="M36.2837 41.7875
L8.2337 41.7875
" />
<path d="M8.2337 3.5375
L36.2837 3.5375
" />
<path d="M36.2837 3.5375
L36.2837 41.7875
" />
</g>
<g style="fill:#D0D2CD; fill-opacity:0.0; 
stroke:#D0D2CD; stroke-width:0.1000; stroke-opacity:1; 
stroke-linecap:round; stroke-linejoin:round;">
<circle cx="14.1137" cy="16.4275" r="1.0000" /> 
</g>
<g style="fill:#D0D2CD; fill-opacity:0.0; 
stroke:#D0D2CD; stroke-width:0.2000; stroke-opacity:1; 
stroke-linecap:round; stroke-linejoin:round;">
<path d="M8.2337 41.7875
L8.2337 3.5375
" />
<g >
</g>
<g >
</g>
<g >
</g>
<g >
</g>
<g >
</g>
<g >
</g>
<g >
</g>
<g >
</g>
<g >
</g>
<g >
</g>
<g >
</g>
<g >
</g>
<g >
</g>
<g >
</g>
<g >
</g>
<g >
</g>
<g >
</g>
<g >
</g>
<g >
</g>
<g >
</g>
<g >
</g>
<g >
</g>
<g >
</g>
<g >
</g>
<g >
</g>
<g >
</g>
<g >
</g>
<g >
</g>
<g >
</g>
<g >
</g>
<g >
</g>
<g >
</g>
<g >
</g>
<g >
</g>
</g> 
</svg>
