%TF.GenerationSoftware,KiCad,Pcbnew,7.0.2*%
%TF.CreationDate,2023-09-13T14:25:54-04:00*%
%TF.ProjectId,PicoMod,5069636f-4d6f-4642-9e6b-696361645f70,rev?*%
%TF.SameCoordinates,Original*%
%TF.FileFunction,Copper,L1,Top*%
%TF.FilePolarity,Positive*%
%FSLAX46Y46*%
G04 Gerber Fmt 4.6, Leading zero omitted, Abs format (unit mm)*
G04 Created by KiCad (PCBNEW 7.0.2) date 2023-09-13 14:25:54*
%MOMM*%
%LPD*%
G01*
G04 APERTURE LIST*
G04 Aperture macros list*
%AMRoundRect*
0 Rectangle with rounded corners*
0 $1 Rounding radius*
0 $2 $3 $4 $5 $6 $7 $8 $9 X,Y pos of 4 corners*
0 Add a 4 corners polygon primitive as box body*
4,1,4,$2,$3,$4,$5,$6,$7,$8,$9,$2,$3,0*
0 Add four circle primitives for the rounded corners*
1,1,$1+$1,$2,$3*
1,1,$1+$1,$4,$5*
1,1,$1+$1,$6,$7*
1,1,$1+$1,$8,$9*
0 Add four rect primitives between the rounded corners*
20,1,$1+$1,$2,$3,$4,$5,0*
20,1,$1+$1,$4,$5,$6,$7,0*
20,1,$1+$1,$6,$7,$8,$9,0*
20,1,$1+$1,$8,$9,$2,$3,0*%
%AMRotRect*
0 Rectangle, with rotation*
0 The origin of the aperture is its center*
0 $1 length*
0 $2 width*
0 $3 Rotation angle, in degrees counterclockwise*
0 Add horizontal line*
21,1,$1,$2,0,0,$3*%
%AMFreePoly0*
4,1,6,0.130000,0.115000,0.130000,-0.115000,-0.130000,-0.115000,-0.130000,0.275000,-0.020000,0.275000,0.130000,0.115000,0.130000,0.115000,$1*%
%AMFreePoly1*
4,1,6,0.130000,-0.115000,-0.130000,-0.115000,-0.130000,0.115000,0.020000,0.275000,0.130000,0.275000,0.130000,-0.115000,0.130000,-0.115000,$1*%
G04 Aperture macros list end*
%TA.AperFunction,SMDPad,CuDef*%
%ADD10C,1.000000*%
%TD*%
%TA.AperFunction,SMDPad,CuDef*%
%ADD11RoundRect,0.225000X-0.225000X-0.250000X0.225000X-0.250000X0.225000X0.250000X-0.225000X0.250000X0*%
%TD*%
%TA.AperFunction,SMDPad,CuDef*%
%ADD12RoundRect,0.135000X-0.135000X-0.185000X0.135000X-0.185000X0.135000X0.185000X-0.135000X0.185000X0*%
%TD*%
%TA.AperFunction,SMDPad,CuDef*%
%ADD13RoundRect,0.135000X0.185000X-0.135000X0.185000X0.135000X-0.185000X0.135000X-0.185000X-0.135000X0*%
%TD*%
%TA.AperFunction,SMDPad,CuDef*%
%ADD14RoundRect,0.200000X0.200000X0.275000X-0.200000X0.275000X-0.200000X-0.275000X0.200000X-0.275000X0*%
%TD*%
%TA.AperFunction,SMDPad,CuDef*%
%ADD15RoundRect,0.225000X0.225000X0.250000X-0.225000X0.250000X-0.225000X-0.250000X0.225000X-0.250000X0*%
%TD*%
%TA.AperFunction,SMDPad,CuDef*%
%ADD16C,0.750000*%
%TD*%
%TA.AperFunction,SMDPad,CuDef*%
%ADD17R,0.700000X0.700000*%
%TD*%
%TA.AperFunction,SMDPad,CuDef*%
%ADD18RoundRect,0.225000X0.250000X-0.225000X0.250000X0.225000X-0.250000X0.225000X-0.250000X-0.225000X0*%
%TD*%
%TA.AperFunction,SMDPad,CuDef*%
%ADD19RoundRect,0.012800X0.147200X-0.517200X0.147200X0.517200X-0.147200X0.517200X-0.147200X-0.517200X0*%
%TD*%
%TA.AperFunction,SMDPad,CuDef*%
%ADD20R,0.800000X0.200000*%
%TD*%
%TA.AperFunction,SMDPad,CuDef*%
%ADD21RoundRect,0.225000X-0.250000X0.225000X-0.250000X-0.225000X0.250000X-0.225000X0.250000X0.225000X0*%
%TD*%
%TA.AperFunction,SMDPad,CuDef*%
%ADD22RoundRect,0.218750X0.256250X-0.218750X0.256250X0.218750X-0.256250X0.218750X-0.256250X-0.218750X0*%
%TD*%
%TA.AperFunction,SMDPad,CuDef*%
%ADD23RoundRect,0.218750X0.218750X0.256250X-0.218750X0.256250X-0.218750X-0.256250X0.218750X-0.256250X0*%
%TD*%
%TA.AperFunction,SMDPad,CuDef*%
%ADD24R,1.400000X1.150000*%
%TD*%
%TA.AperFunction,SMDPad,CuDef*%
%ADD25RoundRect,0.006000X-0.414000X-0.094000X0.414000X-0.094000X0.414000X0.094000X-0.414000X0.094000X0*%
%TD*%
%TA.AperFunction,SMDPad,CuDef*%
%ADD26RoundRect,0.020000X-0.080000X-0.400000X0.080000X-0.400000X0.080000X0.400000X-0.080000X0.400000X0*%
%TD*%
%TA.AperFunction,SMDPad,CuDef*%
%ADD27R,3.100000X3.100000*%
%TD*%
%TA.AperFunction,SMDPad,CuDef*%
%ADD28RoundRect,0.218750X-0.218750X-0.256250X0.218750X-0.256250X0.218750X0.256250X-0.218750X0.256250X0*%
%TD*%
%TA.AperFunction,SMDPad,CuDef*%
%ADD29RoundRect,0.135000X-0.185000X0.135000X-0.185000X-0.135000X0.185000X-0.135000X0.185000X0.135000X0*%
%TD*%
%TA.AperFunction,SMDPad,CuDef*%
%ADD30FreePoly0,0.000000*%
%TD*%
%TA.AperFunction,SMDPad,CuDef*%
%ADD31FreePoly1,0.000000*%
%TD*%
%TA.AperFunction,SMDPad,CuDef*%
%ADD32FreePoly0,180.000000*%
%TD*%
%TA.AperFunction,SMDPad,CuDef*%
%ADD33FreePoly1,180.000000*%
%TD*%
%TA.AperFunction,SMDPad,CuDef*%
%ADD34RotRect,0.520000X0.520000X225.000000*%
%TD*%
%TA.AperFunction,ViaPad*%
%ADD35C,0.508000*%
%TD*%
%TA.AperFunction,Conductor*%
%ADD36C,0.152400*%
%TD*%
%TA.AperFunction,Conductor*%
%ADD37C,0.200000*%
%TD*%
G04 APERTURE END LIST*
D10*
%TO.P,TP5,1,1*%
%TO.N,GND*%
X35600000Y-21050000D03*
%TD*%
D11*
%TO.P,C3,1*%
%TO.N,+3V3*%
X35225000Y-32000000D03*
%TO.P,C3,2*%
%TO.N,GND*%
X36775000Y-32000000D03*
%TD*%
D12*
%TO.P,R3,1*%
%TO.N,/qCSN*%
X24040000Y-25750000D03*
%TO.P,R3,2*%
%TO.N,/BOOTSEL*%
X25060000Y-25750000D03*
%TD*%
D11*
%TO.P,C15,1*%
%TO.N,+5V*%
X21725000Y-34600000D03*
%TO.P,C15,2*%
%TO.N,GND*%
X23275000Y-34600000D03*
%TD*%
D13*
%TO.P,R8,1*%
%TO.N,Net-(D1-K)*%
X39200000Y-37810000D03*
%TO.P,R8,2*%
%TO.N,GND*%
X39200000Y-36790000D03*
%TD*%
D11*
%TO.P,C4,1*%
%TO.N,+3V3*%
X36725000Y-26100000D03*
%TO.P,C4,2*%
%TO.N,GND*%
X38275000Y-26100000D03*
%TD*%
D12*
%TO.P,R10,1*%
%TO.N,Net-(D4-K)*%
X22460000Y-30690000D03*
%TO.P,R10,2*%
%TO.N,GND*%
X23480000Y-30690000D03*
%TD*%
D14*
%TO.P,R11,1*%
%TO.N,/RUN*%
X38350000Y-29150000D03*
%TO.P,R11,2*%
%TO.N,+3V3*%
X36700000Y-29150000D03*
%TD*%
D15*
%TO.P,C12,1*%
%TO.N,+3V3*%
X24025000Y-32000000D03*
%TO.P,C12,2*%
%TO.N,GND*%
X22475000Y-32000000D03*
%TD*%
D16*
%TO.P,TP3,1,1*%
%TO.N,/usbN*%
X34150000Y-25250000D03*
%TD*%
D17*
%TO.P,D2,1,VDD*%
%TO.N,/LED_PWR*%
X23785000Y-35950000D03*
%TO.P,D2,2,DOUT*%
%TO.N,unconnected-(D2-DOUT-Pad2)*%
X23785000Y-37050000D03*
%TO.P,D2,3,VSS*%
%TO.N,GND*%
X25615000Y-37050000D03*
%TO.P,D2,4,DIN*%
%TO.N,/LED_DI*%
X25615000Y-35950000D03*
%TD*%
D18*
%TO.P,C2,1*%
%TO.N,+3V3*%
X33300000Y-24175000D03*
%TO.P,C2,2*%
%TO.N,GND*%
X33300000Y-22625000D03*
%TD*%
D11*
%TO.P,C5,1*%
%TO.N,+3V3*%
X36725000Y-27600000D03*
%TO.P,C5,2*%
%TO.N,GND*%
X38275000Y-27600000D03*
%TD*%
D19*
%TO.P,U2,1,~{CS}*%
%TO.N,/BOOTSEL*%
X24800000Y-24435000D03*
%TO.P,U2,2,SO/IO1*%
%TO.N,/qSD1*%
X25600000Y-24435000D03*
%TO.P,U2,3,~{WP}*%
%TO.N,/qSD2*%
X26400000Y-24435000D03*
%TO.P,U2,4,GND*%
%TO.N,GND*%
X27200000Y-24435000D03*
%TO.P,U2,5,SI/IO0*%
%TO.N,/qSD0*%
X27200000Y-21765000D03*
%TO.P,U2,6,SCK*%
%TO.N,/qSCK*%
X26400000Y-21765000D03*
%TO.P,U2,7,~{HOLD}*%
%TO.N,/qSD3*%
X25600000Y-21765000D03*
%TO.P,U2,8,VCC*%
%TO.N,+3V3*%
X24800000Y-21765000D03*
D20*
%TO.P,U2,9*%
%TO.N,N/C*%
X25200000Y-23100000D03*
%TO.P,U2,10*%
X26800000Y-23100000D03*
%TD*%
D14*
%TO.P,R4,1*%
%TO.N,/BOOTSEL*%
X22925000Y-25800000D03*
%TO.P,R4,2*%
%TO.N,+3V3*%
X21275000Y-25800000D03*
%TD*%
D21*
%TO.P,C14,1*%
%TO.N,Net-(C14-Pad1)*%
X33200000Y-37125000D03*
%TO.P,C14,2*%
%TO.N,GND*%
X33200000Y-38675000D03*
%TD*%
D11*
%TO.P,C11,1*%
%TO.N,+3V3*%
X36725000Y-24600000D03*
%TO.P,C11,2*%
%TO.N,GND*%
X38275000Y-24600000D03*
%TD*%
%TO.P,C16,1*%
%TO.N,+3V3*%
X21725000Y-38365000D03*
%TO.P,C16,2*%
%TO.N,GND*%
X23275000Y-38365000D03*
%TD*%
D22*
%TO.P,D1,1,K*%
%TO.N,Net-(D1-K)*%
X37800000Y-38587500D03*
%TO.P,D1,2,A*%
%TO.N,/LED*%
X37800000Y-37012500D03*
%TD*%
D23*
%TO.P,D3,1,K*%
%TO.N,Net-(D3-K)*%
X38887500Y-34300000D03*
%TO.P,D3,2,A*%
%TO.N,+3V3*%
X37312500Y-34300000D03*
%TD*%
D16*
%TO.P,TP2,1,1*%
%TO.N,/usbP*%
X32950000Y-25350000D03*
%TD*%
D24*
%TO.P,Y1,1,1*%
%TO.N,/XIN*%
X28900000Y-38700000D03*
%TO.P,Y1,2,2*%
%TO.N,GND*%
X31100000Y-38700000D03*
%TO.P,Y1,3,3*%
%TO.N,Net-(C14-Pad1)*%
X31100000Y-37100000D03*
%TO.P,Y1,4,4*%
%TO.N,GND*%
X28900000Y-37100000D03*
%TD*%
D12*
%TO.P,R9,1*%
%TO.N,Net-(D3-K)*%
X38140000Y-35500000D03*
%TO.P,R9,2*%
%TO.N,GND*%
X39160000Y-35500000D03*
%TD*%
D21*
%TO.P,C10,1*%
%TO.N,+1V1*%
X36100000Y-37125000D03*
%TO.P,C10,2*%
%TO.N,GND*%
X36100000Y-38675000D03*
%TD*%
%TO.P,C13,1*%
%TO.N,/XIN*%
X26800000Y-37125000D03*
%TO.P,C13,2*%
%TO.N,GND*%
X26800000Y-38675000D03*
%TD*%
D25*
%TO.P,U1,1,IOVDD*%
%TO.N,+3V3*%
X26565000Y-28400000D03*
%TO.P,U1,2,GPIO0*%
%TO.N,/TX0*%
X26565000Y-28800000D03*
%TO.P,U1,3,GPIO1*%
%TO.N,/RX0*%
X26565000Y-29200000D03*
%TO.P,U1,4,GPIO2*%
%TO.N,/SCK0*%
X26565000Y-29600000D03*
%TO.P,U1,5,GPIO3*%
%TO.N,/MOSI0*%
X26565000Y-30000000D03*
%TO.P,U1,6,GPIO4*%
%TO.N,/MISO0*%
X26565000Y-30400000D03*
%TO.P,U1,7,GPIO5*%
%TO.N,/GPIO5*%
X26565000Y-30800000D03*
%TO.P,U1,8,GPIO6*%
%TO.N,/SDA*%
X26565000Y-31200000D03*
%TO.P,U1,9,GPIO7*%
%TO.N,/SCL*%
X26565000Y-31600000D03*
%TO.P,U1,10,IOVDD*%
%TO.N,+3V3*%
X26565000Y-32000000D03*
%TO.P,U1,11,GPIO8*%
%TO.N,/LED_DI*%
X26565000Y-32400000D03*
%TO.P,U1,12,GPIO9*%
%TO.N,/GPIO9*%
X26565000Y-32800000D03*
%TO.P,U1,13,GPIO10*%
%TO.N,/GPIO10*%
X26565000Y-33200000D03*
%TO.P,U1,14,GPIO11*%
%TO.N,/GPIO11*%
X26565000Y-33600000D03*
D26*
%TO.P,U1,15,GPIO12*%
%TO.N,/MISO1*%
X27400000Y-34435000D03*
%TO.P,U1,16,GPIO13*%
%TO.N,/GPIO13*%
X27800000Y-34435000D03*
%TO.P,U1,17,GPIO14*%
%TO.N,/SCK1*%
X28200000Y-34435000D03*
%TO.P,U1,18,GPIO15*%
%TO.N,/MOSI1*%
X28600000Y-34435000D03*
%TO.P,U1,19,TESTEN*%
%TO.N,GND*%
X29000000Y-34435000D03*
%TO.P,U1,20,XIN*%
%TO.N,/XIN*%
X29400000Y-34435000D03*
%TO.P,U1,21,XOUT*%
%TO.N,/XOUT*%
X29800000Y-34435000D03*
%TO.P,U1,22,IOVDD*%
%TO.N,+3V3*%
X30200000Y-34435000D03*
%TO.P,U1,23,DVDD*%
%TO.N,+1V1*%
X30600000Y-34435000D03*
%TO.P,U1,24,SWCLK*%
%TO.N,/SWCLK*%
X31000000Y-34435000D03*
%TO.P,U1,25,SWD*%
%TO.N,/SWDIO*%
X31400000Y-34435000D03*
%TO.P,U1,26,RUN*%
%TO.N,/RUN*%
X31800000Y-34435000D03*
%TO.P,U1,27,GPIO16*%
%TO.N,/GPIO16*%
X32200000Y-34435000D03*
%TO.P,U1,28,GPIO17*%
%TO.N,/GPIO17*%
X32600000Y-34435000D03*
D25*
%TO.P,U1,29,GPIO18*%
%TO.N,/GPIO18*%
X33435000Y-33600000D03*
%TO.P,U1,30,GPIO19*%
%TO.N,/GPIO19*%
X33435000Y-33200000D03*
%TO.P,U1,31,GPIO20*%
%TO.N,/GPIO20*%
X33435000Y-32800000D03*
%TO.P,U1,32,GPIO21*%
%TO.N,/GPIO21*%
X33435000Y-32400000D03*
%TO.P,U1,33,IOVDD*%
%TO.N,+3V3*%
X33435000Y-32000000D03*
%TO.P,U1,34,GPIO22*%
%TO.N,/GPIO22*%
X33435000Y-31600000D03*
%TO.P,U1,35,GPIO23*%
%TO.N,/GPIO23*%
X33435000Y-31200000D03*
%TO.P,U1,36,GPIO24*%
%TO.N,/GPIO24*%
X33435000Y-30800000D03*
%TO.P,U1,37,GPIO25*%
%TO.N,/LED*%
X33435000Y-30400000D03*
%TO.P,U1,38,GPIO26/ADC0*%
%TO.N,/ADC0*%
X33435000Y-30000000D03*
%TO.P,U1,39,GPIO27/ADC1*%
%TO.N,/ADC1*%
X33435000Y-29600000D03*
%TO.P,U1,40,GPIO28/ADC2*%
%TO.N,/ADC2*%
X33435000Y-29200000D03*
%TO.P,U1,41,GPIO29/ADC3*%
%TO.N,/ADC3*%
X33435000Y-28800000D03*
%TO.P,U1,42,IOVDD*%
%TO.N,+3V3*%
X33435000Y-28400000D03*
D26*
%TO.P,U1,43,ADC_AVDD*%
X32600000Y-27565000D03*
%TO.P,U1,44,VREG_VIN*%
X32200000Y-27565000D03*
%TO.P,U1,45,VREG_VOUT*%
%TO.N,+1V1*%
X31800000Y-27565000D03*
%TO.P,U1,46,USB_DM*%
%TO.N,/usbN*%
X31400000Y-27565000D03*
%TO.P,U1,47,USB_DP*%
%TO.N,/usbP*%
X31000000Y-27565000D03*
%TO.P,U1,48,USB_VDD*%
%TO.N,+3V3*%
X30600000Y-27565000D03*
%TO.P,U1,49,IOVDD*%
X30200000Y-27565000D03*
%TO.P,U1,50,DVDD*%
%TO.N,+1V1*%
X29800000Y-27565000D03*
%TO.P,U1,51,QSPI_SD3*%
%TO.N,/qSD3*%
X29400000Y-27565000D03*
%TO.P,U1,52,QSPI_SCLK*%
%TO.N,/qSCK*%
X29000000Y-27565000D03*
%TO.P,U1,53,QSPI_SD0*%
%TO.N,/qSD0*%
X28600000Y-27565000D03*
%TO.P,U1,54,QSPI_SD2*%
%TO.N,/qSD2*%
X28200000Y-27565000D03*
%TO.P,U1,55,QSPI_SD1*%
%TO.N,/qSD1*%
X27800000Y-27565000D03*
%TO.P,U1,56,QSPI_CSN*%
%TO.N,/qCSN*%
X27400000Y-27565000D03*
D27*
%TO.P,U1,57,GND*%
%TO.N,GND*%
X30000000Y-31000000D03*
%TD*%
D18*
%TO.P,C1,1*%
%TO.N,+3V3*%
X31800000Y-24175000D03*
%TO.P,C1,2*%
%TO.N,GND*%
X31800000Y-22625000D03*
%TD*%
D28*
%TO.P,D4,1,K*%
%TO.N,Net-(D4-K)*%
X22462500Y-29350000D03*
%TO.P,D4,2,A*%
%TO.N,/TX0*%
X24037500Y-29350000D03*
%TD*%
D18*
%TO.P,C8,1*%
%TO.N,+1V1*%
X34800000Y-24175000D03*
%TO.P,C8,2*%
%TO.N,GND*%
X34800000Y-22625000D03*
%TD*%
D29*
%TO.P,R5,1*%
%TO.N,/XOUT*%
X34700000Y-36790000D03*
%TO.P,R5,2*%
%TO.N,Net-(C14-Pad1)*%
X34700000Y-37810000D03*
%TD*%
D18*
%TO.P,C9,1*%
%TO.N,+1V1*%
X30300000Y-24175000D03*
%TO.P,C9,2*%
%TO.N,GND*%
X30300000Y-22625000D03*
%TD*%
D30*
%TO.P,U3,1,VOUT*%
%TO.N,+3V3*%
X21600000Y-36985000D03*
D31*
%TO.P,U3,2,GND*%
%TO.N,GND*%
X22250000Y-36985000D03*
D32*
%TO.P,U3,3,EN*%
%TO.N,/VREG_EN*%
X22250000Y-36015000D03*
D33*
%TO.P,U3,4,VIN*%
%TO.N,+5V*%
X21600000Y-36015000D03*
D34*
%TO.P,U3,5*%
%TO.N,N/C*%
X21925000Y-36500000D03*
%TD*%
D10*
%TO.P,TP4,1,1*%
%TO.N,+1V1*%
X29300000Y-21050000D03*
%TD*%
D35*
%TO.N,+3V3*%
X24000000Y-23900000D03*
X28650000Y-33450000D03*
X37500000Y-25350000D03*
X26524423Y-27325577D03*
X35150000Y-33200000D03*
X27500000Y-28900000D03*
X21900000Y-33300000D03*
%TO.N,GND*%
X28714709Y-35464709D03*
X29800000Y-31400000D03*
X29100000Y-29800000D03*
X25650000Y-38675226D03*
X24417900Y-37750000D03*
X39350000Y-26100000D03*
X27800000Y-24450000D03*
X34150000Y-38675000D03*
X27822673Y-36772673D03*
X35150000Y-38675000D03*
X29800000Y-29800000D03*
X36750000Y-33035000D03*
X39350000Y-27600000D03*
X30300000Y-21600000D03*
X30500000Y-32200000D03*
X29800000Y-30600000D03*
X39350000Y-24600000D03*
X23250000Y-32794100D03*
X31800000Y-21600000D03*
X24098874Y-34448392D03*
X30500000Y-29800000D03*
X30500000Y-30600000D03*
X30500000Y-31400000D03*
X33300000Y-21600000D03*
X29800000Y-32200000D03*
X39160000Y-36150000D03*
X34800000Y-21600000D03*
%TO.N,+1V1*%
X35750000Y-23215200D03*
X31080480Y-32955902D03*
X34600000Y-25900000D03*
X30050000Y-25150000D03*
%TO.N,+5V*%
X25197387Y-27327440D03*
X21832100Y-26750000D03*
X20634501Y-37400000D03*
X28900000Y-28905900D03*
X24512628Y-33934310D03*
X31458025Y-28905900D03*
X34800000Y-27517900D03*
X36250000Y-34450500D03*
%TO.N,/LED*%
X32000000Y-30400000D03*
X34050000Y-34450000D03*
%TO.N,/TX0*%
X25645974Y-27811422D03*
%TO.N,/RX0*%
X25217900Y-28313641D03*
%TO.N,/SCK0*%
X27909723Y-29417299D03*
%TO.N,/MOSI0*%
X27600000Y-30000000D03*
%TO.N,/MISO0*%
X25644570Y-29816943D03*
%TO.N,/GPIO5*%
X25371949Y-30417900D03*
%TO.N,/SDA*%
X27608487Y-31149076D03*
%TO.N,/GPIO9*%
X25796186Y-32847645D03*
%TO.N,/GPIO10*%
X25585582Y-33632405D03*
%TO.N,/GPIO11*%
X25592277Y-34292272D03*
%TO.N,/MISO1*%
X26900000Y-34450000D03*
%TO.N,/SWCLK*%
X31099038Y-35411563D03*
X38512429Y-36276975D03*
X38783397Y-30249808D03*
%TO.N,/SWDIO*%
X39365500Y-31751948D03*
X38703500Y-31050362D03*
X31754546Y-35335539D03*
%TO.N,/RUN*%
X39365500Y-29650000D03*
X31517900Y-33450000D03*
%TO.N,/GPIO13*%
X27800000Y-33618104D03*
%TO.N,/SCK1*%
X26700000Y-35100000D03*
%TO.N,/MOSI1*%
X27200000Y-35600000D03*
%TO.N,/GPIO16*%
X33572370Y-35415500D03*
%TO.N,/GPIO17*%
X33200000Y-34756797D03*
%TO.N,/GPIO18*%
X32504048Y-33521653D03*
%TO.N,/GPIO19*%
X34137371Y-33188116D03*
%TO.N,/GPIO20*%
X32482100Y-32862115D03*
%TO.N,/GPIO21*%
X32482100Y-32202212D03*
%TO.N,/GPIO22*%
X32482100Y-31542309D03*
%TO.N,/GPIO23*%
X34387525Y-30587525D03*
%TO.N,/GPIO24*%
X32482100Y-30882406D03*
%TO.N,/ADC0*%
X34355450Y-29505450D03*
%TO.N,/ADC1*%
X32202875Y-29765615D03*
%TO.N,/ADC2*%
X32083379Y-29116621D03*
%TO.N,/ADC3*%
X32550000Y-28650000D03*
%TO.N,/SCL*%
X27759751Y-31791408D03*
%TO.N,/BOOTSEL*%
X22400000Y-24800000D03*
%TO.N,/VREG_EN*%
X22999454Y-36963438D03*
X21116601Y-30729850D03*
X21116601Y-35650000D03*
%TO.N,/LED_PWR*%
X24550000Y-39300000D03*
%TO.N,/usbN*%
X31733699Y-26346299D03*
%TO.N,/usbP*%
X31266301Y-25878901D03*
%TD*%
D36*
%TO.N,+3V3*%
X35450000Y-26750000D02*
X36100000Y-26100000D01*
X32550000Y-24400000D02*
X32550000Y-24850000D01*
D37*
X30050000Y-33450000D02*
X30200000Y-33600000D01*
X32600000Y-27565000D02*
X33115000Y-27565000D01*
D36*
X36150000Y-24600000D02*
X36725000Y-24600000D01*
X31500000Y-25000000D02*
X30900000Y-25000000D01*
X35350000Y-26450000D02*
X35800000Y-26000000D01*
X21742400Y-26267400D02*
X22099900Y-26267400D01*
X31100000Y-25300000D02*
X30600000Y-25800000D01*
X21600000Y-38240000D02*
X21725000Y-38365000D01*
X22450000Y-23900000D02*
X21275000Y-25075000D01*
X32800000Y-26950000D02*
X34050000Y-26950000D01*
D37*
X35150000Y-34350000D02*
X35756900Y-34956900D01*
D36*
X21725000Y-38365000D02*
X21750000Y-38340000D01*
X26044186Y-26845340D02*
X26524423Y-27325577D01*
X32600000Y-27150000D02*
X32800000Y-26950000D01*
X35225000Y-33025000D02*
X35150000Y-33100000D01*
D37*
X24025000Y-32975000D02*
X24025000Y-32000000D01*
D36*
X31800000Y-24175000D02*
X31800000Y-24700000D01*
D37*
X27500000Y-28400000D02*
X30200000Y-28400000D01*
X30200000Y-27565000D02*
X30200000Y-28400000D01*
D36*
X35150000Y-33100000D02*
X35150000Y-33200000D01*
D37*
X36725000Y-29125000D02*
X36700000Y-29150000D01*
D36*
X35800000Y-24950000D02*
X36150000Y-24600000D01*
D37*
X21900000Y-33300000D02*
X23700000Y-33300000D01*
D36*
X30200000Y-25700000D02*
X30200000Y-27865000D01*
D37*
X36700000Y-30185290D02*
X37828600Y-31313890D01*
X26565000Y-28400000D02*
X27500000Y-28400000D01*
D36*
X33450000Y-28385000D02*
X33435000Y-28400000D01*
D37*
X30200000Y-33600000D02*
X30200000Y-34435000D01*
X32000000Y-28400000D02*
X32200000Y-28200000D01*
D36*
X24435000Y-21765000D02*
X24000000Y-22200000D01*
X36100000Y-26100000D02*
X36725000Y-26100000D01*
D37*
X35150000Y-33200000D02*
X35150000Y-34350000D01*
X28650000Y-33450000D02*
X27200000Y-32000000D01*
D36*
X26565000Y-27366154D02*
X26565000Y-28400000D01*
X22450000Y-23900000D02*
X24000000Y-23900000D01*
D37*
X24025000Y-32000000D02*
X26565000Y-32000000D01*
D36*
X36750000Y-24600000D02*
X37500000Y-25350000D01*
X21275000Y-25800000D02*
X21742400Y-26267400D01*
X32100000Y-25300000D02*
X31100000Y-25300000D01*
X32775000Y-24175000D02*
X32550000Y-24400000D01*
D37*
X30600000Y-27565000D02*
X30600000Y-28400000D01*
X30200000Y-28400000D02*
X30600000Y-28400000D01*
D36*
X32500000Y-26700000D02*
X33900000Y-26700000D01*
D37*
X36725000Y-27600000D02*
X36725000Y-26100000D01*
D36*
X33900000Y-26700000D02*
X34150000Y-26450000D01*
X21600000Y-36985000D02*
X21600000Y-38240000D01*
D37*
X35756900Y-34956900D02*
X36655600Y-34956900D01*
D36*
X26524423Y-27325577D02*
X26565000Y-27366154D01*
D37*
X33450000Y-27900000D02*
X33450000Y-28385000D01*
D36*
X32550000Y-24850000D02*
X32100000Y-25300000D01*
D37*
X32200000Y-28200000D02*
X32200000Y-27565000D01*
X23700000Y-33300000D02*
X24025000Y-32975000D01*
X36655600Y-34956900D02*
X37312500Y-34300000D01*
D36*
X32600000Y-27550000D02*
X32600000Y-27150000D01*
D37*
X32600000Y-27565000D02*
X32200000Y-27565000D01*
D36*
X31800000Y-24700000D02*
X31500000Y-25000000D01*
X34050000Y-26950000D02*
X34250000Y-26750000D01*
X30600000Y-25800000D02*
X30600000Y-27865000D01*
D37*
X30600000Y-28400000D02*
X32000000Y-28400000D01*
X36725000Y-27350000D02*
X36725000Y-29125000D01*
X37828600Y-33783900D02*
X37312500Y-34300000D01*
D36*
X21275000Y-25075000D02*
X21275000Y-25800000D01*
X36725000Y-24600000D02*
X36750000Y-24600000D01*
D37*
X33115000Y-27565000D02*
X33450000Y-27900000D01*
X36725000Y-24600000D02*
X36725000Y-26100000D01*
D36*
X24000000Y-22200000D02*
X24000000Y-23900000D01*
X34250000Y-26750000D02*
X35450000Y-26750000D01*
D37*
X27500000Y-28900000D02*
X27500000Y-28400000D01*
D36*
X32200000Y-27865000D02*
X32200000Y-27000000D01*
D37*
X33435000Y-32000000D02*
X35225000Y-32000000D01*
D36*
X34150000Y-26450000D02*
X35350000Y-26450000D01*
D37*
X37828600Y-31313890D02*
X37828600Y-33783900D01*
D36*
X24800000Y-21765000D02*
X24435000Y-21765000D01*
D37*
X35225000Y-32000000D02*
X35225000Y-33025000D01*
D36*
X22677840Y-26845340D02*
X26044186Y-26845340D01*
D37*
X34338500Y-27011500D02*
X35011500Y-27011500D01*
X27200000Y-32000000D02*
X26565000Y-32000000D01*
X28650000Y-33450000D02*
X30050000Y-33450000D01*
D36*
X22099900Y-26267400D02*
X22677840Y-26845340D01*
D37*
X35011500Y-27011500D02*
X35600000Y-27600000D01*
D36*
X32200000Y-27000000D02*
X32500000Y-26700000D01*
D37*
X33450000Y-27900000D02*
X34338500Y-27011500D01*
D36*
X30900000Y-25000000D02*
X30200000Y-25700000D01*
X33300000Y-24175000D02*
X32775000Y-24175000D01*
D37*
X35600000Y-27600000D02*
X36725000Y-27600000D01*
X36700000Y-29400000D02*
X36700000Y-30185290D01*
D36*
X35800000Y-26000000D02*
X35800000Y-24950000D01*
%TO.N,GND*%
X25650000Y-38675226D02*
X26799774Y-38675226D01*
X22644100Y-32794100D02*
X22475000Y-32625000D01*
X39160000Y-36150000D02*
X39160000Y-35400000D01*
X23426608Y-34448392D02*
X23275000Y-34600000D01*
X28900000Y-37100000D02*
X28150000Y-37100000D01*
X34800000Y-21600000D02*
X34900000Y-21600000D01*
X31800000Y-22625000D02*
X31800000Y-21600000D01*
X26799774Y-38675226D02*
X26800000Y-38675000D01*
X38275000Y-27600000D02*
X39300000Y-27600000D01*
X38275000Y-26100000D02*
X38275000Y-24600000D01*
X27750000Y-24450000D02*
X27215000Y-24450000D01*
X33175000Y-38700000D02*
X31100000Y-38700000D01*
X38275000Y-24600000D02*
X39300000Y-24600000D01*
X33300000Y-22625000D02*
X33300000Y-21600000D01*
X39300000Y-26100000D02*
X39350000Y-26100000D01*
X28714709Y-35464709D02*
X29000000Y-35179418D01*
X39300000Y-27600000D02*
X39350000Y-27600000D01*
X39200000Y-36790000D02*
X39200000Y-36250000D01*
X23480000Y-30970000D02*
X23480000Y-30690000D01*
X25615000Y-38640226D02*
X25615000Y-37050000D01*
X35600000Y-21050000D02*
X35350000Y-21050000D01*
X28150000Y-37100000D02*
X27822673Y-36772673D01*
X22250000Y-37340000D02*
X23275000Y-38365000D01*
X25650000Y-38675226D02*
X25615000Y-38640226D01*
X22250000Y-36985000D02*
X22250000Y-37340000D01*
X36100000Y-38675000D02*
X33200000Y-38675000D01*
X38275000Y-27600000D02*
X38275000Y-26100000D01*
X22475000Y-32000000D02*
X22475000Y-31975000D01*
X23275000Y-34600000D02*
X23275000Y-34990000D01*
X29000000Y-35179418D02*
X29000000Y-34435000D01*
X34800000Y-22625000D02*
X34800000Y-21600000D01*
X36775000Y-32000000D02*
X36775000Y-33010000D01*
X33200000Y-38675000D02*
X33175000Y-38700000D01*
X30300000Y-22625000D02*
X30300000Y-21600000D01*
X23890000Y-37750000D02*
X23275000Y-38365000D01*
X35350000Y-21050000D02*
X34800000Y-21600000D01*
X24417900Y-37750000D02*
X23890000Y-37750000D01*
X39300000Y-24600000D02*
X39350000Y-24600000D01*
X23250000Y-32794100D02*
X22644100Y-32794100D01*
X38275000Y-26100000D02*
X39300000Y-26100000D01*
X24098874Y-34448392D02*
X23426608Y-34448392D01*
X22475000Y-31975000D02*
X23480000Y-30970000D01*
X27750000Y-24450000D02*
X27800000Y-24450000D01*
X36775000Y-33010000D02*
X36750000Y-33035000D01*
X22475000Y-32625000D02*
X22475000Y-32000000D01*
%TO.N,+1V1*%
X30600000Y-35700000D02*
X30797600Y-35897600D01*
X30600000Y-34435000D02*
X30600000Y-35700000D01*
X29514400Y-23964400D02*
X29725000Y-24175000D01*
X30600000Y-33436382D02*
X30600000Y-34435000D01*
X34023748Y-26145200D02*
X34354800Y-26145200D01*
X30300000Y-24900000D02*
X29800000Y-25400000D01*
X35597600Y-35897600D02*
X36100000Y-36400000D01*
X30797600Y-35897600D02*
X35597600Y-35897600D01*
X29300000Y-21050000D02*
X29300000Y-21750000D01*
X31800000Y-26968948D02*
X32373748Y-26395200D01*
X34354800Y-26145200D02*
X34800000Y-25700000D01*
X32373748Y-26395200D02*
X33773748Y-26395200D01*
X31800000Y-27865000D02*
X31800000Y-26968948D01*
X34800000Y-24165200D02*
X35750000Y-23215200D01*
X29514400Y-21964400D02*
X29514400Y-23964400D01*
X29725000Y-24175000D02*
X30300000Y-24175000D01*
X30300000Y-24175000D02*
X30300000Y-24900000D01*
X33773748Y-26395200D02*
X34023748Y-26145200D01*
X36100000Y-36400000D02*
X36100000Y-37125000D01*
X31080480Y-32955902D02*
X30600000Y-33436382D01*
X34800000Y-25700000D02*
X34800000Y-24175000D01*
X29800000Y-25400000D02*
X29800000Y-27865000D01*
X29300000Y-21750000D02*
X29514400Y-21964400D01*
X34800000Y-24175000D02*
X34800000Y-24165200D01*
%TO.N,/XIN*%
X27098300Y-36201700D02*
X26800000Y-36500000D01*
X26800000Y-37125000D02*
X27425000Y-37125000D01*
X29098300Y-36201700D02*
X27098300Y-36201700D01*
X27700000Y-38400000D02*
X28000000Y-38700000D01*
X26785000Y-37310000D02*
X26800000Y-37325000D01*
X27425000Y-37125000D02*
X27700000Y-37400000D01*
X27700000Y-37400000D02*
X27700000Y-38400000D01*
X29400000Y-35900000D02*
X29098300Y-36201700D01*
X28000000Y-38700000D02*
X28900000Y-38700000D01*
X29400000Y-34435000D02*
X29400000Y-35900000D01*
X26825000Y-37300000D02*
X26800000Y-37325000D01*
X26800000Y-36500000D02*
X26800000Y-37125000D01*
%TO.N,Net-(C14-Pad1)*%
X34000000Y-37600000D02*
X34210000Y-37810000D01*
X33825000Y-37125000D02*
X34000000Y-37300000D01*
X33200000Y-37125000D02*
X33175000Y-37100000D01*
X34000000Y-37300000D02*
X34000000Y-37600000D01*
X34210000Y-37810000D02*
X34700000Y-37810000D01*
X33175000Y-37100000D02*
X31100000Y-37100000D01*
X33200000Y-37125000D02*
X33825000Y-37125000D01*
%TO.N,+5V*%
X35250000Y-30400000D02*
X35750000Y-30900000D01*
X25174827Y-27350000D02*
X25197387Y-27327440D01*
X22428600Y-33896400D02*
X24474718Y-33896400D01*
X35750000Y-30900000D02*
X36950000Y-30900000D01*
X24474718Y-33896400D02*
X24512628Y-33934310D01*
X21832100Y-26750000D02*
X20634501Y-27947599D01*
X35250000Y-27967900D02*
X35250000Y-30400000D01*
X20634501Y-37400000D02*
X20634501Y-27947599D01*
X21832100Y-26750000D02*
X22432100Y-27350000D01*
X34800000Y-27517900D02*
X35250000Y-27967900D01*
X36950000Y-30900000D02*
X37500000Y-31450000D01*
X37500000Y-31450000D02*
X37500000Y-32967500D01*
X21600000Y-36015000D02*
X21600000Y-34725000D01*
X28900000Y-28905900D02*
X31458025Y-28905900D01*
X21725000Y-34600000D02*
X22428600Y-33896400D01*
X37500000Y-32967500D02*
X36250000Y-34217500D01*
X22432100Y-27350000D02*
X25174827Y-27350000D01*
X21600000Y-34725000D02*
X21725000Y-34600000D01*
X36250000Y-34217500D02*
X36250000Y-34450500D01*
%TO.N,Net-(D1-K)*%
X39200000Y-37810000D02*
X39200000Y-38300000D01*
X38912500Y-38587500D02*
X37800000Y-38587500D01*
X39200000Y-38300000D02*
X38912500Y-38587500D01*
%TO.N,/LED*%
X34292800Y-35592800D02*
X35723852Y-35592800D01*
X33435000Y-30400000D02*
X32000000Y-30400000D01*
X37800000Y-36500000D02*
X37800000Y-37012500D01*
X34050000Y-35350000D02*
X34292800Y-35592800D01*
X35723852Y-35592800D02*
X35725052Y-35594000D01*
X36894000Y-35594000D02*
X37800000Y-36500000D01*
X35725052Y-35594000D02*
X36894000Y-35594000D01*
X34050000Y-34450000D02*
X34050000Y-35350000D01*
%TO.N,/LED_DI*%
X25102982Y-32858349D02*
X25102982Y-34502982D01*
X25615000Y-35015000D02*
X25615000Y-35950000D01*
X26565000Y-32400000D02*
X26530045Y-32365045D01*
X25102982Y-34502982D02*
X25615000Y-35015000D01*
X26530045Y-32365045D02*
X25596286Y-32365045D01*
X25596286Y-32365045D02*
X25102982Y-32858349D01*
%TO.N,/TX0*%
X25700000Y-27865448D02*
X25700000Y-28374775D01*
X26125225Y-28800000D02*
X26565000Y-28800000D01*
X24037500Y-29350000D02*
X24037500Y-28512500D01*
X25645974Y-27811422D02*
X25700000Y-27865448D01*
X25700000Y-28374775D02*
X26125225Y-28800000D01*
X24037500Y-28512500D02*
X24738578Y-27811422D01*
X24738578Y-27811422D02*
X25645974Y-27811422D01*
%TO.N,/RX0*%
X25217900Y-28517900D02*
X25900000Y-29200000D01*
X25217900Y-28313641D02*
X25217900Y-28517900D01*
X25900000Y-29200000D02*
X26565000Y-29200000D01*
%TO.N,/SCK0*%
X27909723Y-29417299D02*
X27262379Y-29417299D01*
X27079678Y-29600000D02*
X26565000Y-29600000D01*
X27262379Y-29417299D02*
X27079678Y-29600000D01*
%TO.N,/MOSI0*%
X26565000Y-30000000D02*
X27600000Y-30000000D01*
%TO.N,/MISO0*%
X26125225Y-30400000D02*
X26565000Y-30400000D01*
X25644570Y-29816943D02*
X25644570Y-29919345D01*
X25644570Y-29919345D02*
X26125225Y-30400000D01*
%TO.N,/GPIO5*%
X25700000Y-30800000D02*
X26565000Y-30800000D01*
X25371949Y-30471949D02*
X25700000Y-30800000D01*
X25371949Y-30417900D02*
X25371949Y-30471949D01*
%TO.N,/qCSN*%
X27400000Y-26600000D02*
X27200000Y-26400000D01*
X24040000Y-26140000D02*
X24040000Y-25750000D01*
X27400000Y-27865000D02*
X27400000Y-26600000D01*
X24300000Y-26400000D02*
X24040000Y-26140000D01*
X27200000Y-26400000D02*
X24300000Y-26400000D01*
%TO.N,/XOUT*%
X34700000Y-36400000D02*
X34502400Y-36202400D01*
X34502400Y-36202400D02*
X30102400Y-36202400D01*
X29800000Y-35900000D02*
X29800000Y-34435000D01*
X30102400Y-36202400D02*
X29800000Y-35900000D01*
X34700000Y-36790000D02*
X34700000Y-36400000D01*
%TO.N,/SDA*%
X27557563Y-31200000D02*
X26565000Y-31200000D01*
X27608487Y-31149076D02*
X27557563Y-31200000D01*
%TO.N,/GPIO9*%
X25843831Y-32800000D02*
X26565000Y-32800000D01*
X25796186Y-32847645D02*
X25843831Y-32800000D01*
%TO.N,/GPIO10*%
X25916400Y-33583600D02*
X25916400Y-33408825D01*
X25585582Y-33632405D02*
X25867595Y-33632405D01*
X25867595Y-33632405D02*
X25916400Y-33583600D01*
X26125225Y-33200000D02*
X26565000Y-33200000D01*
X25916400Y-33408825D02*
X26125225Y-33200000D01*
%TO.N,/GPIO11*%
X25592277Y-34292272D02*
X25872728Y-34292272D01*
X25872728Y-34292272D02*
X26565000Y-33600000D01*
%TO.N,/MISO1*%
X26900000Y-34450000D02*
X26915000Y-34435000D01*
X26915000Y-34435000D02*
X27400000Y-34435000D01*
%TO.N,/SWCLK*%
X37600000Y-35120148D02*
X37600000Y-35794208D01*
X38650192Y-30249808D02*
X38221400Y-30678600D01*
X38221400Y-30678600D02*
X38221400Y-34498748D01*
X37600000Y-35794208D02*
X38082767Y-36276975D01*
X38221400Y-34498748D02*
X37600000Y-35120148D01*
X38783397Y-30249808D02*
X38650192Y-30249808D01*
X31000000Y-35312525D02*
X31000000Y-34435000D01*
X31099038Y-35411563D02*
X31000000Y-35312525D01*
X38082767Y-36276975D02*
X38512429Y-36276975D01*
%TO.N,/SWDIO*%
X31400000Y-34980993D02*
X31400000Y-34435000D01*
X38703500Y-31089948D02*
X39365500Y-31751948D01*
X38703500Y-31050362D02*
X38703500Y-31089948D01*
X31754546Y-35335539D02*
X31400000Y-34980993D01*
%TO.N,/RUN*%
X38865500Y-29150000D02*
X39365500Y-29650000D01*
X38350000Y-29150000D02*
X38865500Y-29150000D01*
X31517900Y-33467900D02*
X31800000Y-33750000D01*
X31800000Y-33750000D02*
X31800000Y-34435000D01*
X31517900Y-33450000D02*
X31517900Y-33467900D01*
%TO.N,/GPIO13*%
X27800000Y-33618104D02*
X27800000Y-34435000D01*
%TO.N,/SCK1*%
X28200000Y-34866573D02*
X27966573Y-35100000D01*
X28200000Y-34435000D02*
X28200000Y-34866573D01*
X27966573Y-35100000D02*
X26700000Y-35100000D01*
%TO.N,/qSD3*%
X29209600Y-22097496D02*
X27757304Y-20645200D01*
X25600000Y-21050000D02*
X25600000Y-21765000D01*
X26004800Y-20645200D02*
X25600000Y-21050000D01*
X29209600Y-24509600D02*
X29209600Y-22097496D01*
X29400000Y-27565000D02*
X29400000Y-24700000D01*
X29400000Y-24700000D02*
X29209600Y-24509600D01*
X27757304Y-20645200D02*
X26004800Y-20645200D01*
%TO.N,/qSD0*%
X28015000Y-21765000D02*
X27200000Y-21765000D01*
X28600000Y-22350000D02*
X28015000Y-21765000D01*
X28600000Y-27865000D02*
X28600000Y-22350000D01*
%TO.N,/qSD2*%
X28200000Y-27865000D02*
X28200000Y-26231396D01*
X27663804Y-25695200D02*
X26845200Y-25695200D01*
X26400000Y-25250000D02*
X26400000Y-24435000D01*
X28200000Y-26231396D02*
X27663804Y-25695200D01*
X26845200Y-25695200D02*
X26400000Y-25250000D01*
%TO.N,/qSD1*%
X25600000Y-25150000D02*
X26450000Y-26000000D01*
X27536352Y-26000000D02*
X27537552Y-26001200D01*
X25600000Y-24435000D02*
X25600000Y-25150000D01*
X27800000Y-27865000D02*
X27800000Y-26262448D01*
X27800000Y-26262448D02*
X27537552Y-26000000D01*
X26450000Y-26000000D02*
X27536352Y-26000000D01*
%TO.N,/MOSI1*%
X27897625Y-35600000D02*
X27200000Y-35600000D01*
X28600000Y-34435000D02*
X28600000Y-34897625D01*
X28600000Y-34897625D02*
X27897625Y-35600000D01*
%TO.N,/GPIO16*%
X33572370Y-35415500D02*
X32515500Y-35415500D01*
X32200000Y-35100000D02*
X32200000Y-34435000D01*
X32515500Y-35415500D02*
X32200000Y-35100000D01*
%TO.N,/GPIO17*%
X32878203Y-34435000D02*
X33200000Y-34756797D01*
X32600000Y-34435000D02*
X32878203Y-34435000D01*
%TO.N,/GPIO18*%
X33435000Y-33600000D02*
X32582395Y-33600000D01*
X32582395Y-33600000D02*
X32504048Y-33521653D01*
%TO.N,/GPIO19*%
X34125487Y-33200000D02*
X34137371Y-33188116D01*
X33435000Y-33200000D02*
X34125487Y-33200000D01*
%TO.N,/GPIO20*%
X32544215Y-32800000D02*
X32482100Y-32862115D01*
X33435000Y-32800000D02*
X32544215Y-32800000D01*
%TO.N,/GPIO21*%
X33435000Y-32400000D02*
X32679888Y-32400000D01*
X32679888Y-32400000D02*
X32482100Y-32202212D01*
%TO.N,/GPIO22*%
X32539791Y-31600000D02*
X32482100Y-31542309D01*
X33435000Y-31600000D02*
X32539791Y-31600000D01*
%TO.N,/GPIO23*%
X33874775Y-31200000D02*
X33435000Y-31200000D01*
X34387525Y-30687250D02*
X33874775Y-31200000D01*
X34387525Y-30587525D02*
X34387525Y-30687250D01*
%TO.N,/GPIO24*%
X33435000Y-30800000D02*
X32564506Y-30800000D01*
X32564506Y-30800000D02*
X32482100Y-30882406D01*
%TO.N,/ADC0*%
X34355450Y-29519325D02*
X33874775Y-30000000D01*
X34355450Y-29505450D02*
X34355450Y-29519325D01*
X33874775Y-30000000D02*
X33435000Y-30000000D01*
%TO.N,/ADC1*%
X32368490Y-29600000D02*
X32202875Y-29765615D01*
X33435000Y-29600000D02*
X32368490Y-29600000D01*
%TO.N,/ADC2*%
X32166758Y-29200000D02*
X32083379Y-29116621D01*
X33435000Y-29200000D02*
X32166758Y-29200000D01*
%TO.N,/ADC3*%
X33435000Y-28800000D02*
X32700000Y-28800000D01*
X32700000Y-28800000D02*
X32550000Y-28650000D01*
%TO.N,/SCL*%
X27456118Y-31791408D02*
X27759751Y-31791408D01*
X27264710Y-31600000D02*
X27456118Y-31791408D01*
X26565000Y-31600000D02*
X27264710Y-31600000D01*
%TO.N,Net-(D3-K)*%
X38140000Y-35060000D02*
X38140000Y-35500000D01*
X38887500Y-34312500D02*
X38140000Y-35060000D01*
X38887500Y-34300000D02*
X38887500Y-34312500D01*
%TO.N,Net-(D4-K)*%
X22462500Y-30687500D02*
X22460000Y-30690000D01*
X22462500Y-29350000D02*
X22462500Y-30687500D01*
%TO.N,/BOOTSEL*%
X25060000Y-25750000D02*
X25060000Y-25260000D01*
X24800000Y-25000000D02*
X24800000Y-24435000D01*
X22400000Y-25275000D02*
X22925000Y-25800000D01*
X24800000Y-24435000D02*
X24365000Y-24435000D01*
X24000000Y-24800000D02*
X22400000Y-24800000D01*
X25060000Y-25260000D02*
X24800000Y-25000000D01*
X22400000Y-24800000D02*
X22400000Y-25275000D01*
X24365000Y-24435000D02*
X24000000Y-24800000D01*
%TO.N,/qSCK*%
X26400000Y-21100000D02*
X26400000Y-21765000D01*
X29000000Y-27865000D02*
X29000000Y-24850000D01*
X27631052Y-20950000D02*
X26550000Y-20950000D01*
X29000000Y-24850000D02*
X28904800Y-24754800D01*
X26550000Y-20950000D02*
X26400000Y-21100000D01*
X28904800Y-24754800D02*
X28904800Y-22223748D01*
X28904800Y-22223748D02*
X27631052Y-20950000D01*
%TO.N,/VREG_EN*%
X21046400Y-35579799D02*
X21046400Y-30800051D01*
X22999454Y-36299454D02*
X22700000Y-36000000D01*
X21046400Y-30800051D02*
X21116601Y-30729850D01*
X22999454Y-36963438D02*
X22999454Y-36299454D01*
X22700000Y-36000000D02*
X22265000Y-36000000D01*
X22265000Y-36000000D02*
X22250000Y-36015000D01*
X21116601Y-35650000D02*
X21046400Y-35579799D01*
%TO.N,/LED_PWR*%
X24900500Y-38949500D02*
X24900500Y-36450500D01*
X24400000Y-35950000D02*
X23785000Y-35950000D01*
X24900500Y-36450500D02*
X24400000Y-35950000D01*
X24550000Y-39300000D02*
X24900500Y-38949500D01*
%TO.N,/usbN*%
X31400000Y-26934999D02*
X31352700Y-26887699D01*
X31352700Y-26475851D02*
X31482252Y-26346299D01*
X33309600Y-26090400D02*
X31989598Y-26090400D01*
X31400000Y-27565000D02*
X31400000Y-26934999D01*
X31352700Y-26887699D02*
X31352700Y-26475851D01*
X31482252Y-26346299D02*
X31733699Y-26346299D01*
X31989598Y-26090400D02*
X31733699Y-26346299D01*
X34150000Y-25250000D02*
X33309600Y-26090400D01*
%TO.N,/usbP*%
X31540402Y-25604800D02*
X31266301Y-25878901D01*
X31047300Y-26097902D02*
X31266301Y-25878901D01*
X31000000Y-27565000D02*
X31000000Y-26934999D01*
X31047300Y-26887699D02*
X31047300Y-26097902D01*
X32481052Y-25350000D02*
X32226252Y-25604800D01*
X32950000Y-25350000D02*
X32481052Y-25350000D01*
X32226252Y-25604800D02*
X31540402Y-25604800D01*
X31000000Y-26934999D02*
X31047300Y-26887699D01*
%TD*%
M02*
