%TF.GenerationSoftware,KiCad,Pcbnew,7.0.2*%
%TF.CreationDate,2023-09-13T14:26:03-04:00*%
%TF.ProjectId,PicoMod,5069636f-4d6f-4642-9e6b-696361645f70,rev?*%
%TF.SameCoordinates,Original*%
%TF.FileFunction,Drillmap*%
%TF.FilePolarity,Positive*%
%FSLAX45Y45*%
G04 Gerber Fmt 4.5, Leading zero omitted, Abs format (unit mm)*
G04 Created by KiCad (PCBNEW 7.0.2) date 2023-09-13 14:26:03*
%MOMM*%
%LPD*%
G01*
G04 APERTURE LIST*
%ADD10C,0.200000*%
%ADD11C,0.025400*%
G04 APERTURE END LIST*
D10*
X2099999Y-2000000D02*
G75*
G03*
X2000000Y-2099999I1J-100000D01*
G01*
X3800000Y-4000000D02*
X2100000Y-4000000D01*
X2099999Y-1999999D02*
X3900013Y-1999987D01*
X4000003Y-2099987D02*
G75*
G03*
X3900013Y-1999987I-100003J-3D01*
G01*
X4000000Y-2099987D02*
X4000000Y-3800000D01*
X3800000Y-4000000D02*
G75*
G03*
X4000000Y-3800000I0J200000D01*
G01*
X2000000Y-3900000D02*
X2000000Y-2099999D01*
X2000000Y-3900000D02*
G75*
G03*
X2100000Y-4000000I100000J0D01*
G01*
D11*
X2050750Y-3727300D02*
X2076150Y-3752700D01*
X2076150Y-3727300D02*
X2050750Y-3752700D01*
X2098960Y-3060285D02*
X2124360Y-3085685D01*
X2124360Y-3060285D02*
X2098960Y-3085685D01*
X2098960Y-3552300D02*
X2124360Y-3577700D01*
X2124360Y-3552300D02*
X2098960Y-3577700D01*
X2170510Y-2662300D02*
X2195910Y-2687700D01*
X2195910Y-2662300D02*
X2170510Y-2687700D01*
X2177300Y-3317300D02*
X2202700Y-3342700D01*
X2202700Y-3317300D02*
X2177300Y-3342700D01*
X2227300Y-2467300D02*
X2252700Y-2492700D01*
X2252700Y-2467300D02*
X2227300Y-2492700D01*
X2287245Y-3683644D02*
X2312645Y-3709044D01*
X2312645Y-3683644D02*
X2287245Y-3709044D01*
X2312300Y-3266710D02*
X2337700Y-3292110D01*
X2337700Y-3266710D02*
X2312300Y-3292110D01*
X2387300Y-2377300D02*
X2412700Y-2402700D01*
X2412700Y-2377300D02*
X2387300Y-2402700D01*
X2397187Y-3432139D02*
X2422587Y-3457539D01*
X2422587Y-3432139D02*
X2397187Y-3457539D01*
X2429090Y-3762300D02*
X2454490Y-3787700D01*
X2454490Y-3762300D02*
X2429090Y-3787700D01*
X2438563Y-3380731D02*
X2463963Y-3406131D01*
X2463963Y-3380731D02*
X2438563Y-3406131D01*
X2442300Y-3917300D02*
X2467700Y-3942700D01*
X2467700Y-3917300D02*
X2442300Y-3942700D01*
X2507039Y-2720044D02*
X2532439Y-2745444D01*
X2532439Y-2720044D02*
X2507039Y-2745444D01*
X2509090Y-2818664D02*
X2534490Y-2844064D01*
X2534490Y-2818664D02*
X2509090Y-2844064D01*
X2524495Y-3029090D02*
X2549895Y-3054490D01*
X2549895Y-3029090D02*
X2524495Y-3054490D01*
X2545858Y-3350540D02*
X2571258Y-3375940D01*
X2571258Y-3350540D02*
X2545858Y-3375940D01*
X2546528Y-3416527D02*
X2571928Y-3441927D01*
X2571928Y-3416527D02*
X2546528Y-3441927D01*
X2551757Y-2968994D02*
X2577157Y-2994394D01*
X2577157Y-2968994D02*
X2551757Y-2994394D01*
X2551897Y-2768442D02*
X2577297Y-2793842D01*
X2577297Y-2768442D02*
X2551897Y-2793842D01*
X2552300Y-3854823D02*
X2577700Y-3880223D01*
X2577700Y-3854823D02*
X2552300Y-3880223D01*
X2566919Y-3272064D02*
X2592319Y-3297464D01*
X2592319Y-3272064D02*
X2566919Y-3297464D01*
X2639742Y-2719858D02*
X2665142Y-2745258D01*
X2665142Y-2719858D02*
X2639742Y-2745258D01*
X2657300Y-3497300D02*
X2682700Y-3522700D01*
X2682700Y-3497300D02*
X2657300Y-3522700D01*
X2677300Y-3432300D02*
X2702700Y-3457700D01*
X2702700Y-3432300D02*
X2677300Y-3457700D01*
X2707300Y-3547300D02*
X2732700Y-3572700D01*
X2732700Y-3547300D02*
X2707300Y-3572700D01*
X2737300Y-2877300D02*
X2762700Y-2902700D01*
X2762700Y-2877300D02*
X2737300Y-2902700D01*
X2747300Y-2987300D02*
X2772700Y-3012700D01*
X2772700Y-2987300D02*
X2747300Y-3012700D01*
X2748149Y-3102208D02*
X2773549Y-3127608D01*
X2773549Y-3102208D02*
X2748149Y-3127608D01*
X2763275Y-3166441D02*
X2788675Y-3191841D01*
X2788675Y-3166441D02*
X2763275Y-3191841D01*
X2767300Y-2432300D02*
X2792700Y-2457700D01*
X2792700Y-2432300D02*
X2767300Y-2457700D01*
X2767300Y-3349110D02*
X2792700Y-3374510D01*
X2792700Y-3349110D02*
X2767300Y-3374510D01*
X2769567Y-3664567D02*
X2794967Y-3689967D01*
X2794967Y-3664567D02*
X2769567Y-3689967D01*
X2778272Y-2929030D02*
X2803672Y-2954430D01*
X2803672Y-2929030D02*
X2778272Y-2954430D01*
X2852300Y-3332300D02*
X2877700Y-3357700D01*
X2877700Y-3332300D02*
X2852300Y-3357700D01*
X2858771Y-3533771D02*
X2884171Y-3559171D01*
X2884171Y-3533771D02*
X2858771Y-3559171D01*
X2877300Y-2877890D02*
X2902700Y-2903290D01*
X2902700Y-2877890D02*
X2877300Y-2903290D01*
X2897300Y-2967300D02*
X2922700Y-2992700D01*
X2922700Y-2967300D02*
X2897300Y-2992700D01*
X2967300Y-2967300D02*
X2992700Y-2992700D01*
X2992700Y-2967300D02*
X2967300Y-2992700D01*
X2967300Y-3047300D02*
X2992700Y-3072700D01*
X2992700Y-3047300D02*
X2967300Y-3072700D01*
X2967300Y-3127300D02*
X2992700Y-3152700D01*
X2992700Y-3127300D02*
X2967300Y-3152700D01*
X2967300Y-3207300D02*
X2992700Y-3232700D01*
X2992700Y-3207300D02*
X2967300Y-3232700D01*
X2992300Y-2502300D02*
X3017700Y-2527700D01*
X3017700Y-2502300D02*
X2992300Y-2527700D01*
X3017300Y-2147300D02*
X3042700Y-2172700D01*
X3042700Y-2147300D02*
X3017300Y-2172700D01*
X3037300Y-2967300D02*
X3062700Y-2992700D01*
X3062700Y-2967300D02*
X3037300Y-2992700D01*
X3037300Y-3047300D02*
X3062700Y-3072700D01*
X3062700Y-3047300D02*
X3037300Y-3072700D01*
X3037300Y-3127300D02*
X3062700Y-3152700D01*
X3062700Y-3127300D02*
X3037300Y-3152700D01*
X3037300Y-3207300D02*
X3062700Y-3232700D01*
X3062700Y-3207300D02*
X3037300Y-3232700D01*
X3095348Y-3282890D02*
X3120748Y-3308290D01*
X3120748Y-3282890D02*
X3095348Y-3308290D01*
X3097204Y-3528456D02*
X3122604Y-3553856D01*
X3122604Y-3528456D02*
X3097204Y-3553856D01*
X3113930Y-2575190D02*
X3139330Y-2600590D01*
X3139330Y-2575190D02*
X3113930Y-2600590D01*
X3133102Y-2877890D02*
X3158502Y-2903290D01*
X3158502Y-2877890D02*
X3133102Y-2903290D01*
X3139090Y-3332300D02*
X3164490Y-3357700D01*
X3164490Y-3332300D02*
X3139090Y-3357700D01*
X3160670Y-2621930D02*
X3186070Y-2647330D01*
X3186070Y-2621930D02*
X3160670Y-2647330D01*
X3162755Y-3520854D02*
X3188155Y-3546254D01*
X3188155Y-3520854D02*
X3162755Y-3546254D01*
X3167300Y-2147300D02*
X3192700Y-2172700D01*
X3192700Y-2147300D02*
X3167300Y-2172700D01*
X3187300Y-3027300D02*
X3212700Y-3052700D01*
X3212700Y-3027300D02*
X3187300Y-3052700D01*
X3195638Y-2898962D02*
X3221038Y-2924362D01*
X3221038Y-2898962D02*
X3195638Y-2924362D01*
X3207587Y-2963861D02*
X3232987Y-2989261D01*
X3232987Y-2963861D02*
X3207587Y-2989261D01*
X3235510Y-3075541D02*
X3260910Y-3100941D01*
X3260910Y-3075541D02*
X3235510Y-3100941D01*
X3235510Y-3141531D02*
X3260910Y-3166931D01*
X3260910Y-3141531D02*
X3235510Y-3166931D01*
X3235510Y-3207521D02*
X3260910Y-3232921D01*
X3260910Y-3207521D02*
X3235510Y-3232921D01*
X3235510Y-3273511D02*
X3260910Y-3298911D01*
X3260910Y-3273511D02*
X3235510Y-3298911D01*
X3237705Y-3339465D02*
X3263105Y-3364865D01*
X3263105Y-3339465D02*
X3237705Y-3364865D01*
X3242300Y-2852300D02*
X3267700Y-2877700D01*
X3267700Y-2852300D02*
X3242300Y-2877700D01*
X3307300Y-3462980D02*
X3332700Y-3488380D01*
X3332700Y-3462980D02*
X3307300Y-3488380D01*
X3317300Y-2147300D02*
X3342700Y-2172700D01*
X3342700Y-2147300D02*
X3317300Y-2172700D01*
X3344537Y-3528850D02*
X3369937Y-3554250D01*
X3369937Y-3528850D02*
X3344537Y-3554250D01*
X3392300Y-3432300D02*
X3417700Y-3457700D01*
X3417700Y-3432300D02*
X3392300Y-3457700D01*
X3401037Y-3306112D02*
X3426437Y-3331512D01*
X3426437Y-3306112D02*
X3401037Y-3331512D01*
X3402300Y-3854800D02*
X3427700Y-3880200D01*
X3427700Y-3854800D02*
X3402300Y-3880200D01*
X3422845Y-2937845D02*
X3448245Y-2963245D01*
X3448245Y-2937845D02*
X3422845Y-2963245D01*
X3426052Y-3046052D02*
X3451452Y-3071452D01*
X3451452Y-3046052D02*
X3426052Y-3071452D01*
X3447300Y-2577300D02*
X3472700Y-2602700D01*
X3472700Y-2577300D02*
X3447300Y-2602700D01*
X3467300Y-2147300D02*
X3492700Y-2172700D01*
X3492700Y-2147300D02*
X3467300Y-2172700D01*
X3467300Y-2739090D02*
X3492700Y-2764490D01*
X3492700Y-2739090D02*
X3467300Y-2764490D01*
X3502300Y-3307300D02*
X3527700Y-3332700D01*
X3527700Y-3307300D02*
X3502300Y-3332700D01*
X3502300Y-3854800D02*
X3527700Y-3880200D01*
X3527700Y-3854800D02*
X3502300Y-3880200D01*
X3562300Y-2308820D02*
X3587700Y-2334220D01*
X3587700Y-2308820D02*
X3562300Y-2334220D01*
X3612300Y-3432350D02*
X3637700Y-3457750D01*
X3637700Y-3432350D02*
X3612300Y-3457750D01*
X3662300Y-3290800D02*
X3687700Y-3316200D01*
X3687700Y-3290800D02*
X3662300Y-3316200D01*
X3737300Y-2522300D02*
X3762700Y-2547700D01*
X3762700Y-2522300D02*
X3737300Y-2547700D01*
X3838543Y-3614997D02*
X3863943Y-3640397D01*
X3863943Y-3614997D02*
X3838543Y-3640397D01*
X3857650Y-3092336D02*
X3883050Y-3117736D01*
X3883050Y-3092336D02*
X3857650Y-3117736D01*
X3865640Y-3012281D02*
X3891040Y-3037681D01*
X3891040Y-3012281D02*
X3865640Y-3037681D01*
X3903300Y-3602300D02*
X3928700Y-3627700D01*
X3928700Y-3602300D02*
X3903300Y-3627700D01*
X3922300Y-2447300D02*
X3947700Y-2472700D01*
X3947700Y-2447300D02*
X3922300Y-2472700D01*
X3922300Y-2597300D02*
X3947700Y-2622700D01*
X3947700Y-2597300D02*
X3922300Y-2622700D01*
X3922300Y-2747300D02*
X3947700Y-2772700D01*
X3947700Y-2747300D02*
X3922300Y-2772700D01*
X3923850Y-2952300D02*
X3949250Y-2977700D01*
X3949250Y-2952300D02*
X3923850Y-2977700D01*
X3923850Y-3162495D02*
X3949250Y-3187895D01*
X3949250Y-3162495D02*
X3923850Y-3187895D01*
D10*
X2237619Y-4322524D02*
X2237619Y-4122524D01*
X2237619Y-4122524D02*
X2285238Y-4122524D01*
X2285238Y-4122524D02*
X2313810Y-4132048D01*
X2313810Y-4132048D02*
X2332857Y-4151095D01*
X2332857Y-4151095D02*
X2342381Y-4170143D01*
X2342381Y-4170143D02*
X2351905Y-4208238D01*
X2351905Y-4208238D02*
X2351905Y-4236810D01*
X2351905Y-4236810D02*
X2342381Y-4274905D01*
X2342381Y-4274905D02*
X2332857Y-4293952D01*
X2332857Y-4293952D02*
X2313810Y-4313000D01*
X2313810Y-4313000D02*
X2285238Y-4322524D01*
X2285238Y-4322524D02*
X2237619Y-4322524D01*
X2437619Y-4322524D02*
X2437619Y-4189190D01*
X2437619Y-4227286D02*
X2447143Y-4208238D01*
X2447143Y-4208238D02*
X2456667Y-4198714D01*
X2456667Y-4198714D02*
X2475714Y-4189190D01*
X2475714Y-4189190D02*
X2494762Y-4189190D01*
X2561429Y-4322524D02*
X2561429Y-4189190D01*
X2561429Y-4122524D02*
X2551905Y-4132048D01*
X2551905Y-4132048D02*
X2561429Y-4141571D01*
X2561429Y-4141571D02*
X2570952Y-4132048D01*
X2570952Y-4132048D02*
X2561429Y-4122524D01*
X2561429Y-4122524D02*
X2561429Y-4141571D01*
X2685238Y-4322524D02*
X2666190Y-4313000D01*
X2666190Y-4313000D02*
X2656667Y-4293952D01*
X2656667Y-4293952D02*
X2656667Y-4122524D01*
X2790000Y-4322524D02*
X2770952Y-4313000D01*
X2770952Y-4313000D02*
X2761429Y-4293952D01*
X2761429Y-4293952D02*
X2761429Y-4122524D01*
X3018571Y-4322524D02*
X3018571Y-4122524D01*
X3018571Y-4122524D02*
X3085238Y-4265381D01*
X3085238Y-4265381D02*
X3151905Y-4122524D01*
X3151905Y-4122524D02*
X3151905Y-4322524D01*
X3332857Y-4322524D02*
X3332857Y-4217762D01*
X3332857Y-4217762D02*
X3323333Y-4198714D01*
X3323333Y-4198714D02*
X3304286Y-4189190D01*
X3304286Y-4189190D02*
X3266190Y-4189190D01*
X3266190Y-4189190D02*
X3247143Y-4198714D01*
X3332857Y-4313000D02*
X3313809Y-4322524D01*
X3313809Y-4322524D02*
X3266190Y-4322524D01*
X3266190Y-4322524D02*
X3247143Y-4313000D01*
X3247143Y-4313000D02*
X3237619Y-4293952D01*
X3237619Y-4293952D02*
X3237619Y-4274905D01*
X3237619Y-4274905D02*
X3247143Y-4255857D01*
X3247143Y-4255857D02*
X3266190Y-4246333D01*
X3266190Y-4246333D02*
X3313809Y-4246333D01*
X3313809Y-4246333D02*
X3332857Y-4236810D01*
X3428095Y-4189190D02*
X3428095Y-4389190D01*
X3428095Y-4198714D02*
X3447143Y-4189190D01*
X3447143Y-4189190D02*
X3485238Y-4189190D01*
X3485238Y-4189190D02*
X3504286Y-4198714D01*
X3504286Y-4198714D02*
X3513809Y-4208238D01*
X3513809Y-4208238D02*
X3523333Y-4227286D01*
X3523333Y-4227286D02*
X3523333Y-4284429D01*
X3523333Y-4284429D02*
X3513809Y-4303476D01*
X3513809Y-4303476D02*
X3504286Y-4313000D01*
X3504286Y-4313000D02*
X3485238Y-4322524D01*
X3485238Y-4322524D02*
X3447143Y-4322524D01*
X3447143Y-4322524D02*
X3428095Y-4313000D01*
X3609048Y-4303476D02*
X3618571Y-4313000D01*
X3618571Y-4313000D02*
X3609048Y-4322524D01*
X3609048Y-4322524D02*
X3599524Y-4313000D01*
X3599524Y-4313000D02*
X3609048Y-4303476D01*
X3609048Y-4303476D02*
X3609048Y-4322524D01*
X3609048Y-4198714D02*
X3618571Y-4208238D01*
X3618571Y-4208238D02*
X3609048Y-4217762D01*
X3609048Y-4217762D02*
X3599524Y-4208238D01*
X3599524Y-4208238D02*
X3609048Y-4198714D01*
X3609048Y-4198714D02*
X3609048Y-4217762D01*
D11*
X1964600Y-4637300D02*
X1990000Y-4662700D01*
X1990000Y-4637300D02*
X1964600Y-4662700D01*
D10*
X2275714Y-4542524D02*
X2294762Y-4542524D01*
X2294762Y-4542524D02*
X2313810Y-4552048D01*
X2313810Y-4552048D02*
X2323333Y-4561571D01*
X2323333Y-4561571D02*
X2332857Y-4580619D01*
X2332857Y-4580619D02*
X2342381Y-4618714D01*
X2342381Y-4618714D02*
X2342381Y-4666333D01*
X2342381Y-4666333D02*
X2332857Y-4704429D01*
X2332857Y-4704429D02*
X2323333Y-4723476D01*
X2323333Y-4723476D02*
X2313810Y-4733000D01*
X2313810Y-4733000D02*
X2294762Y-4742524D01*
X2294762Y-4742524D02*
X2275714Y-4742524D01*
X2275714Y-4742524D02*
X2256667Y-4733000D01*
X2256667Y-4733000D02*
X2247143Y-4723476D01*
X2247143Y-4723476D02*
X2237619Y-4704429D01*
X2237619Y-4704429D02*
X2228095Y-4666333D01*
X2228095Y-4666333D02*
X2228095Y-4618714D01*
X2228095Y-4618714D02*
X2237619Y-4580619D01*
X2237619Y-4580619D02*
X2247143Y-4561571D01*
X2247143Y-4561571D02*
X2256667Y-4552048D01*
X2256667Y-4552048D02*
X2275714Y-4542524D01*
X2428095Y-4723476D02*
X2437619Y-4733000D01*
X2437619Y-4733000D02*
X2428095Y-4742524D01*
X2428095Y-4742524D02*
X2418571Y-4733000D01*
X2418571Y-4733000D02*
X2428095Y-4723476D01*
X2428095Y-4723476D02*
X2428095Y-4742524D01*
X2513810Y-4561571D02*
X2523333Y-4552048D01*
X2523333Y-4552048D02*
X2542381Y-4542524D01*
X2542381Y-4542524D02*
X2590000Y-4542524D01*
X2590000Y-4542524D02*
X2609048Y-4552048D01*
X2609048Y-4552048D02*
X2618571Y-4561571D01*
X2618571Y-4561571D02*
X2628095Y-4580619D01*
X2628095Y-4580619D02*
X2628095Y-4599667D01*
X2628095Y-4599667D02*
X2618571Y-4628238D01*
X2618571Y-4628238D02*
X2504286Y-4742524D01*
X2504286Y-4742524D02*
X2628095Y-4742524D01*
X2809048Y-4542524D02*
X2713810Y-4542524D01*
X2713810Y-4542524D02*
X2704286Y-4637762D01*
X2704286Y-4637762D02*
X2713810Y-4628238D01*
X2713810Y-4628238D02*
X2732857Y-4618714D01*
X2732857Y-4618714D02*
X2780476Y-4618714D01*
X2780476Y-4618714D02*
X2799524Y-4628238D01*
X2799524Y-4628238D02*
X2809048Y-4637762D01*
X2809048Y-4637762D02*
X2818571Y-4656810D01*
X2818571Y-4656810D02*
X2818571Y-4704429D01*
X2818571Y-4704429D02*
X2809048Y-4723476D01*
X2809048Y-4723476D02*
X2799524Y-4733000D01*
X2799524Y-4733000D02*
X2780476Y-4742524D01*
X2780476Y-4742524D02*
X2732857Y-4742524D01*
X2732857Y-4742524D02*
X2713810Y-4733000D01*
X2713810Y-4733000D02*
X2704286Y-4723476D01*
X2990000Y-4609190D02*
X2990000Y-4742524D01*
X2942381Y-4533000D02*
X2894762Y-4675857D01*
X2894762Y-4675857D02*
X3018571Y-4675857D01*
X3094762Y-4742524D02*
X3094762Y-4609190D01*
X3094762Y-4628238D02*
X3104286Y-4618714D01*
X3104286Y-4618714D02*
X3123333Y-4609190D01*
X3123333Y-4609190D02*
X3151905Y-4609190D01*
X3151905Y-4609190D02*
X3170952Y-4618714D01*
X3170952Y-4618714D02*
X3180476Y-4637762D01*
X3180476Y-4637762D02*
X3180476Y-4742524D01*
X3180476Y-4637762D02*
X3190000Y-4618714D01*
X3190000Y-4618714D02*
X3209048Y-4609190D01*
X3209048Y-4609190D02*
X3237619Y-4609190D01*
X3237619Y-4609190D02*
X3256667Y-4618714D01*
X3256667Y-4618714D02*
X3266190Y-4637762D01*
X3266190Y-4637762D02*
X3266190Y-4742524D01*
X3361429Y-4742524D02*
X3361429Y-4609190D01*
X3361429Y-4628238D02*
X3370952Y-4618714D01*
X3370952Y-4618714D02*
X3390000Y-4609190D01*
X3390000Y-4609190D02*
X3418571Y-4609190D01*
X3418571Y-4609190D02*
X3437619Y-4618714D01*
X3437619Y-4618714D02*
X3447143Y-4637762D01*
X3447143Y-4637762D02*
X3447143Y-4742524D01*
X3447143Y-4637762D02*
X3456667Y-4618714D01*
X3456667Y-4618714D02*
X3475714Y-4609190D01*
X3475714Y-4609190D02*
X3504286Y-4609190D01*
X3504286Y-4609190D02*
X3523333Y-4618714D01*
X3523333Y-4618714D02*
X3532857Y-4637762D01*
X3532857Y-4637762D02*
X3532857Y-4742524D01*
X3923333Y-4533000D02*
X3751905Y-4790143D01*
X4180476Y-4542524D02*
X4199524Y-4542524D01*
X4199524Y-4542524D02*
X4218572Y-4552048D01*
X4218572Y-4552048D02*
X4228095Y-4561571D01*
X4228095Y-4561571D02*
X4237619Y-4580619D01*
X4237619Y-4580619D02*
X4247143Y-4618714D01*
X4247143Y-4618714D02*
X4247143Y-4666333D01*
X4247143Y-4666333D02*
X4237619Y-4704429D01*
X4237619Y-4704429D02*
X4228095Y-4723476D01*
X4228095Y-4723476D02*
X4218572Y-4733000D01*
X4218572Y-4733000D02*
X4199524Y-4742524D01*
X4199524Y-4742524D02*
X4180476Y-4742524D01*
X4180476Y-4742524D02*
X4161429Y-4733000D01*
X4161429Y-4733000D02*
X4151905Y-4723476D01*
X4151905Y-4723476D02*
X4142381Y-4704429D01*
X4142381Y-4704429D02*
X4132857Y-4666333D01*
X4132857Y-4666333D02*
X4132857Y-4618714D01*
X4132857Y-4618714D02*
X4142381Y-4580619D01*
X4142381Y-4580619D02*
X4151905Y-4561571D01*
X4151905Y-4561571D02*
X4161429Y-4552048D01*
X4161429Y-4552048D02*
X4180476Y-4542524D01*
X4332857Y-4723476D02*
X4342381Y-4733000D01*
X4342381Y-4733000D02*
X4332857Y-4742524D01*
X4332857Y-4742524D02*
X4323334Y-4733000D01*
X4323334Y-4733000D02*
X4332857Y-4723476D01*
X4332857Y-4723476D02*
X4332857Y-4742524D01*
X4466191Y-4542524D02*
X4485238Y-4542524D01*
X4485238Y-4542524D02*
X4504286Y-4552048D01*
X4504286Y-4552048D02*
X4513810Y-4561571D01*
X4513810Y-4561571D02*
X4523334Y-4580619D01*
X4523334Y-4580619D02*
X4532857Y-4618714D01*
X4532857Y-4618714D02*
X4532857Y-4666333D01*
X4532857Y-4666333D02*
X4523334Y-4704429D01*
X4523334Y-4704429D02*
X4513810Y-4723476D01*
X4513810Y-4723476D02*
X4504286Y-4733000D01*
X4504286Y-4733000D02*
X4485238Y-4742524D01*
X4485238Y-4742524D02*
X4466191Y-4742524D01*
X4466191Y-4742524D02*
X4447143Y-4733000D01*
X4447143Y-4733000D02*
X4437619Y-4723476D01*
X4437619Y-4723476D02*
X4428095Y-4704429D01*
X4428095Y-4704429D02*
X4418572Y-4666333D01*
X4418572Y-4666333D02*
X4418572Y-4618714D01*
X4418572Y-4618714D02*
X4428095Y-4580619D01*
X4428095Y-4580619D02*
X4437619Y-4561571D01*
X4437619Y-4561571D02*
X4447143Y-4552048D01*
X4447143Y-4552048D02*
X4466191Y-4542524D01*
X4723334Y-4742524D02*
X4609048Y-4742524D01*
X4666191Y-4742524D02*
X4666191Y-4542524D01*
X4666191Y-4542524D02*
X4647143Y-4571095D01*
X4647143Y-4571095D02*
X4628095Y-4590143D01*
X4628095Y-4590143D02*
X4609048Y-4599667D01*
X4847143Y-4542524D02*
X4866191Y-4542524D01*
X4866191Y-4542524D02*
X4885238Y-4552048D01*
X4885238Y-4552048D02*
X4894762Y-4561571D01*
X4894762Y-4561571D02*
X4904286Y-4580619D01*
X4904286Y-4580619D02*
X4913810Y-4618714D01*
X4913810Y-4618714D02*
X4913810Y-4666333D01*
X4913810Y-4666333D02*
X4904286Y-4704429D01*
X4904286Y-4704429D02*
X4894762Y-4723476D01*
X4894762Y-4723476D02*
X4885238Y-4733000D01*
X4885238Y-4733000D02*
X4866191Y-4742524D01*
X4866191Y-4742524D02*
X4847143Y-4742524D01*
X4847143Y-4742524D02*
X4828095Y-4733000D01*
X4828095Y-4733000D02*
X4818572Y-4723476D01*
X4818572Y-4723476D02*
X4809048Y-4704429D01*
X4809048Y-4704429D02*
X4799524Y-4666333D01*
X4799524Y-4666333D02*
X4799524Y-4618714D01*
X4799524Y-4618714D02*
X4809048Y-4580619D01*
X4809048Y-4580619D02*
X4818572Y-4561571D01*
X4818572Y-4561571D02*
X4828095Y-4552048D01*
X4828095Y-4552048D02*
X4847143Y-4542524D01*
X5037619Y-4542524D02*
X5056667Y-4542524D01*
X5056667Y-4542524D02*
X5075715Y-4552048D01*
X5075715Y-4552048D02*
X5085238Y-4561571D01*
X5085238Y-4561571D02*
X5094762Y-4580619D01*
X5094762Y-4580619D02*
X5104286Y-4618714D01*
X5104286Y-4618714D02*
X5104286Y-4666333D01*
X5104286Y-4666333D02*
X5094762Y-4704429D01*
X5094762Y-4704429D02*
X5085238Y-4723476D01*
X5085238Y-4723476D02*
X5075715Y-4733000D01*
X5075715Y-4733000D02*
X5056667Y-4742524D01*
X5056667Y-4742524D02*
X5037619Y-4742524D01*
X5037619Y-4742524D02*
X5018572Y-4733000D01*
X5018572Y-4733000D02*
X5009048Y-4723476D01*
X5009048Y-4723476D02*
X4999524Y-4704429D01*
X4999524Y-4704429D02*
X4990000Y-4666333D01*
X4990000Y-4666333D02*
X4990000Y-4618714D01*
X4990000Y-4618714D02*
X4999524Y-4580619D01*
X4999524Y-4580619D02*
X5009048Y-4561571D01*
X5009048Y-4561571D02*
X5018572Y-4552048D01*
X5018572Y-4552048D02*
X5037619Y-4542524D01*
X5180476Y-4542524D02*
X5180476Y-4580619D01*
X5256667Y-4542524D02*
X5256667Y-4580619D01*
X5551905Y-4818714D02*
X5542381Y-4809190D01*
X5542381Y-4809190D02*
X5523334Y-4780619D01*
X5523334Y-4780619D02*
X5513810Y-4761571D01*
X5513810Y-4761571D02*
X5504286Y-4733000D01*
X5504286Y-4733000D02*
X5494762Y-4685381D01*
X5494762Y-4685381D02*
X5494762Y-4647286D01*
X5494762Y-4647286D02*
X5504286Y-4599667D01*
X5504286Y-4599667D02*
X5513810Y-4571095D01*
X5513810Y-4571095D02*
X5523334Y-4552048D01*
X5523334Y-4552048D02*
X5542381Y-4523476D01*
X5542381Y-4523476D02*
X5551905Y-4513952D01*
X5637619Y-4742524D02*
X5675714Y-4742524D01*
X5675714Y-4742524D02*
X5694762Y-4733000D01*
X5694762Y-4733000D02*
X5704286Y-4723476D01*
X5704286Y-4723476D02*
X5723334Y-4694905D01*
X5723334Y-4694905D02*
X5732857Y-4656810D01*
X5732857Y-4656810D02*
X5732857Y-4580619D01*
X5732857Y-4580619D02*
X5723334Y-4561571D01*
X5723334Y-4561571D02*
X5713810Y-4552048D01*
X5713810Y-4552048D02*
X5694762Y-4542524D01*
X5694762Y-4542524D02*
X5656667Y-4542524D01*
X5656667Y-4542524D02*
X5637619Y-4552048D01*
X5637619Y-4552048D02*
X5628095Y-4561571D01*
X5628095Y-4561571D02*
X5618572Y-4580619D01*
X5618572Y-4580619D02*
X5618572Y-4628238D01*
X5618572Y-4628238D02*
X5628095Y-4647286D01*
X5628095Y-4647286D02*
X5637619Y-4656810D01*
X5637619Y-4656810D02*
X5656667Y-4666333D01*
X5656667Y-4666333D02*
X5694762Y-4666333D01*
X5694762Y-4666333D02*
X5713810Y-4656810D01*
X5713810Y-4656810D02*
X5723334Y-4647286D01*
X5723334Y-4647286D02*
X5732857Y-4628238D01*
X5923334Y-4742524D02*
X5809048Y-4742524D01*
X5866191Y-4742524D02*
X5866191Y-4542524D01*
X5866191Y-4542524D02*
X5847143Y-4571095D01*
X5847143Y-4571095D02*
X5828095Y-4590143D01*
X5828095Y-4590143D02*
X5809048Y-4599667D01*
X6161429Y-4742524D02*
X6161429Y-4542524D01*
X6247143Y-4742524D02*
X6247143Y-4637762D01*
X6247143Y-4637762D02*
X6237619Y-4618714D01*
X6237619Y-4618714D02*
X6218572Y-4609190D01*
X6218572Y-4609190D02*
X6190000Y-4609190D01*
X6190000Y-4609190D02*
X6170953Y-4618714D01*
X6170953Y-4618714D02*
X6161429Y-4628238D01*
X6370953Y-4742524D02*
X6351905Y-4733000D01*
X6351905Y-4733000D02*
X6342381Y-4723476D01*
X6342381Y-4723476D02*
X6332857Y-4704429D01*
X6332857Y-4704429D02*
X6332857Y-4647286D01*
X6332857Y-4647286D02*
X6342381Y-4628238D01*
X6342381Y-4628238D02*
X6351905Y-4618714D01*
X6351905Y-4618714D02*
X6370953Y-4609190D01*
X6370953Y-4609190D02*
X6399524Y-4609190D01*
X6399524Y-4609190D02*
X6418572Y-4618714D01*
X6418572Y-4618714D02*
X6428096Y-4628238D01*
X6428096Y-4628238D02*
X6437619Y-4647286D01*
X6437619Y-4647286D02*
X6437619Y-4704429D01*
X6437619Y-4704429D02*
X6428096Y-4723476D01*
X6428096Y-4723476D02*
X6418572Y-4733000D01*
X6418572Y-4733000D02*
X6399524Y-4742524D01*
X6399524Y-4742524D02*
X6370953Y-4742524D01*
X6551905Y-4742524D02*
X6532857Y-4733000D01*
X6532857Y-4733000D02*
X6523334Y-4713952D01*
X6523334Y-4713952D02*
X6523334Y-4542524D01*
X6704286Y-4733000D02*
X6685238Y-4742524D01*
X6685238Y-4742524D02*
X6647143Y-4742524D01*
X6647143Y-4742524D02*
X6628096Y-4733000D01*
X6628096Y-4733000D02*
X6618572Y-4713952D01*
X6618572Y-4713952D02*
X6618572Y-4637762D01*
X6618572Y-4637762D02*
X6628096Y-4618714D01*
X6628096Y-4618714D02*
X6647143Y-4609190D01*
X6647143Y-4609190D02*
X6685238Y-4609190D01*
X6685238Y-4609190D02*
X6704286Y-4618714D01*
X6704286Y-4618714D02*
X6713810Y-4637762D01*
X6713810Y-4637762D02*
X6713810Y-4656810D01*
X6713810Y-4656810D02*
X6618572Y-4675857D01*
X6790000Y-4733000D02*
X6809048Y-4742524D01*
X6809048Y-4742524D02*
X6847143Y-4742524D01*
X6847143Y-4742524D02*
X6866191Y-4733000D01*
X6866191Y-4733000D02*
X6875715Y-4713952D01*
X6875715Y-4713952D02*
X6875715Y-4704429D01*
X6875715Y-4704429D02*
X6866191Y-4685381D01*
X6866191Y-4685381D02*
X6847143Y-4675857D01*
X6847143Y-4675857D02*
X6818572Y-4675857D01*
X6818572Y-4675857D02*
X6799524Y-4666333D01*
X6799524Y-4666333D02*
X6790000Y-4647286D01*
X6790000Y-4647286D02*
X6790000Y-4637762D01*
X6790000Y-4637762D02*
X6799524Y-4618714D01*
X6799524Y-4618714D02*
X6818572Y-4609190D01*
X6818572Y-4609190D02*
X6847143Y-4609190D01*
X6847143Y-4609190D02*
X6866191Y-4618714D01*
X6942381Y-4818714D02*
X6951905Y-4809190D01*
X6951905Y-4809190D02*
X6970953Y-4780619D01*
X6970953Y-4780619D02*
X6980477Y-4761571D01*
X6980477Y-4761571D02*
X6990000Y-4733000D01*
X6990000Y-4733000D02*
X6999524Y-4685381D01*
X6999524Y-4685381D02*
X6999524Y-4647286D01*
X6999524Y-4647286D02*
X6990000Y-4599667D01*
X6990000Y-4599667D02*
X6980477Y-4571095D01*
X6980477Y-4571095D02*
X6970953Y-4552048D01*
X6970953Y-4552048D02*
X6951905Y-4523476D01*
X6951905Y-4523476D02*
X6942381Y-4513952D01*
M02*
