%TF.GenerationSoftware,KiCad,Pcbnew,7.0.2*%
%TF.CreationDate,2023-09-13T14:25:54-04:00*%
%TF.ProjectId,PicoMod,5069636f-4d6f-4642-9e6b-696361645f70,rev?*%
%TF.SameCoordinates,Original*%
%TF.FileFunction,Legend,Top*%
%TF.FilePolarity,Positive*%
%FSLAX46Y46*%
G04 Gerber Fmt 4.6, Leading zero omitted, Abs format (unit mm)*
G04 Created by KiCad (PCBNEW 7.0.2) date 2023-09-13 14:25:54*
%MOMM*%
%LPD*%
G01*
G04 APERTURE LIST*
%ADD10C,0.150000*%
%ADD11C,0.125000*%
%ADD12C,0.120000*%
%ADD13C,0.127000*%
%ADD14C,0.200000*%
G04 APERTURE END LIST*
D10*
X32340476Y-26120095D02*
X32340476Y-26767714D01*
X32340476Y-26767714D02*
X32378571Y-26843904D01*
X32378571Y-26843904D02*
X32416666Y-26882000D01*
X32416666Y-26882000D02*
X32492857Y-26920095D01*
X32492857Y-26920095D02*
X32645238Y-26920095D01*
X32645238Y-26920095D02*
X32721428Y-26882000D01*
X32721428Y-26882000D02*
X32759523Y-26843904D01*
X32759523Y-26843904D02*
X32797619Y-26767714D01*
X32797619Y-26767714D02*
X32797619Y-26120095D01*
X33140475Y-26882000D02*
X33254761Y-26920095D01*
X33254761Y-26920095D02*
X33445237Y-26920095D01*
X33445237Y-26920095D02*
X33521428Y-26882000D01*
X33521428Y-26882000D02*
X33559523Y-26843904D01*
X33559523Y-26843904D02*
X33597618Y-26767714D01*
X33597618Y-26767714D02*
X33597618Y-26691523D01*
X33597618Y-26691523D02*
X33559523Y-26615333D01*
X33559523Y-26615333D02*
X33521428Y-26577238D01*
X33521428Y-26577238D02*
X33445237Y-26539142D01*
X33445237Y-26539142D02*
X33292856Y-26501047D01*
X33292856Y-26501047D02*
X33216666Y-26462952D01*
X33216666Y-26462952D02*
X33178571Y-26424857D01*
X33178571Y-26424857D02*
X33140475Y-26348666D01*
X33140475Y-26348666D02*
X33140475Y-26272476D01*
X33140475Y-26272476D02*
X33178571Y-26196285D01*
X33178571Y-26196285D02*
X33216666Y-26158190D01*
X33216666Y-26158190D02*
X33292856Y-26120095D01*
X33292856Y-26120095D02*
X33483333Y-26120095D01*
X33483333Y-26120095D02*
X33597618Y-26158190D01*
X34207142Y-26501047D02*
X34321428Y-26539142D01*
X34321428Y-26539142D02*
X34359523Y-26577238D01*
X34359523Y-26577238D02*
X34397619Y-26653428D01*
X34397619Y-26653428D02*
X34397619Y-26767714D01*
X34397619Y-26767714D02*
X34359523Y-26843904D01*
X34359523Y-26843904D02*
X34321428Y-26882000D01*
X34321428Y-26882000D02*
X34245238Y-26920095D01*
X34245238Y-26920095D02*
X33940476Y-26920095D01*
X33940476Y-26920095D02*
X33940476Y-26120095D01*
X33940476Y-26120095D02*
X34207142Y-26120095D01*
X34207142Y-26120095D02*
X34283333Y-26158190D01*
X34283333Y-26158190D02*
X34321428Y-26196285D01*
X34321428Y-26196285D02*
X34359523Y-26272476D01*
X34359523Y-26272476D02*
X34359523Y-26348666D01*
X34359523Y-26348666D02*
X34321428Y-26424857D01*
X34321428Y-26424857D02*
X34283333Y-26462952D01*
X34283333Y-26462952D02*
X34207142Y-26501047D01*
X34207142Y-26501047D02*
X33940476Y-26501047D01*
D11*
X22576190Y-27652095D02*
X23033333Y-27652095D01*
X22804761Y-28452095D02*
X22804761Y-27652095D01*
X23223809Y-27652095D02*
X23757143Y-28452095D01*
X23757143Y-27652095D02*
X23223809Y-28452095D01*
X37240476Y-33402095D02*
X37240476Y-32602095D01*
X37240476Y-32602095D02*
X37545238Y-32602095D01*
X37545238Y-32602095D02*
X37621428Y-32640190D01*
X37621428Y-32640190D02*
X37659523Y-32678285D01*
X37659523Y-32678285D02*
X37697619Y-32754476D01*
X37697619Y-32754476D02*
X37697619Y-32868761D01*
X37697619Y-32868761D02*
X37659523Y-32944952D01*
X37659523Y-32944952D02*
X37621428Y-32983047D01*
X37621428Y-32983047D02*
X37545238Y-33021142D01*
X37545238Y-33021142D02*
X37240476Y-33021142D01*
X37964285Y-32602095D02*
X38154761Y-33402095D01*
X38154761Y-33402095D02*
X38307142Y-32830666D01*
X38307142Y-32830666D02*
X38459523Y-33402095D01*
X38459523Y-33402095D02*
X38650000Y-32602095D01*
X39411905Y-33402095D02*
X39145238Y-33021142D01*
X38954762Y-33402095D02*
X38954762Y-32602095D01*
X38954762Y-32602095D02*
X39259524Y-32602095D01*
X39259524Y-32602095D02*
X39335714Y-32640190D01*
X39335714Y-32640190D02*
X39373809Y-32678285D01*
X39373809Y-32678285D02*
X39411905Y-32754476D01*
X39411905Y-32754476D02*
X39411905Y-32868761D01*
X39411905Y-32868761D02*
X39373809Y-32944952D01*
X39373809Y-32944952D02*
X39335714Y-32983047D01*
X39335714Y-32983047D02*
X39259524Y-33021142D01*
X39259524Y-33021142D02*
X38954762Y-33021142D01*
D10*
X34559523Y-20490190D02*
X34483333Y-20452095D01*
X34483333Y-20452095D02*
X34369047Y-20452095D01*
X34369047Y-20452095D02*
X34254761Y-20490190D01*
X34254761Y-20490190D02*
X34178571Y-20566380D01*
X34178571Y-20566380D02*
X34140476Y-20642571D01*
X34140476Y-20642571D02*
X34102380Y-20794952D01*
X34102380Y-20794952D02*
X34102380Y-20909238D01*
X34102380Y-20909238D02*
X34140476Y-21061619D01*
X34140476Y-21061619D02*
X34178571Y-21137809D01*
X34178571Y-21137809D02*
X34254761Y-21214000D01*
X34254761Y-21214000D02*
X34369047Y-21252095D01*
X34369047Y-21252095D02*
X34445238Y-21252095D01*
X34445238Y-21252095D02*
X34559523Y-21214000D01*
X34559523Y-21214000D02*
X34597619Y-21175904D01*
X34597619Y-21175904D02*
X34597619Y-20909238D01*
X34597619Y-20909238D02*
X34445238Y-20909238D01*
X30809523Y-21252095D02*
X30352380Y-21252095D01*
X30580952Y-21252095D02*
X30580952Y-20452095D01*
X30580952Y-20452095D02*
X30504761Y-20566380D01*
X30504761Y-20566380D02*
X30428571Y-20642571D01*
X30428571Y-20642571D02*
X30352380Y-20680666D01*
X31038095Y-20452095D02*
X31304762Y-21252095D01*
X31304762Y-21252095D02*
X31571428Y-20452095D01*
X32257142Y-21252095D02*
X31799999Y-21252095D01*
X32028571Y-21252095D02*
X32028571Y-20452095D01*
X32028571Y-20452095D02*
X31952380Y-20566380D01*
X31952380Y-20566380D02*
X31876190Y-20642571D01*
X31876190Y-20642571D02*
X31799999Y-20680666D01*
X31545238Y-25415333D02*
X32154762Y-25415333D01*
X31850000Y-25720095D02*
X31850000Y-25110571D01*
D12*
%TO.C,TP5*%
X36300000Y-21050000D02*
G75*
G03*
X36300000Y-21050000I-700000J0D01*
G01*
%TO.C,C3*%
X35859420Y-31490000D02*
X36140580Y-31490000D01*
X35859420Y-32510000D02*
X36140580Y-32510000D01*
%TO.C,R3*%
X24396359Y-25370000D02*
X24703641Y-25370000D01*
X24396359Y-26130000D02*
X24703641Y-26130000D01*
%TO.C,C15*%
X22359420Y-34090000D02*
X22640580Y-34090000D01*
X22359420Y-35110000D02*
X22640580Y-35110000D01*
%TO.C,R8*%
X38820000Y-37453641D02*
X38820000Y-37146359D01*
X39580000Y-37453641D02*
X39580000Y-37146359D01*
%TO.C,C4*%
X37359420Y-25590000D02*
X37640580Y-25590000D01*
X37359420Y-26610000D02*
X37640580Y-26610000D01*
%TO.C,R10*%
X22816359Y-30310000D02*
X23123641Y-30310000D01*
X22816359Y-31070000D02*
X23123641Y-31070000D01*
%TO.C,R11*%
X37762258Y-29672500D02*
X37287742Y-29672500D01*
X37762258Y-28627500D02*
X37287742Y-28627500D01*
%TO.C,C12*%
X23390580Y-32510000D02*
X23109420Y-32510000D01*
X23390580Y-31490000D02*
X23109420Y-31490000D01*
%TO.C,TP3*%
X34650000Y-25250000D02*
G75*
G03*
X34650000Y-25250000I-500000J0D01*
G01*
%TO.C,D2*%
X23400000Y-35400000D02*
X26000000Y-35400000D01*
X23400000Y-37600000D02*
X26000000Y-37600000D01*
X25100000Y-37600000D02*
X25100000Y-35400000D01*
%TO.C,C2*%
X32790000Y-23540580D02*
X32790000Y-23259420D01*
X33810000Y-23540580D02*
X33810000Y-23259420D01*
%TO.C,C5*%
X37359420Y-27090000D02*
X37640580Y-27090000D01*
X37359420Y-28110000D02*
X37640580Y-28110000D01*
D13*
%TO.C,U2*%
X24000000Y-24600000D02*
X24000000Y-21600000D01*
X28000000Y-24600000D02*
X28000000Y-21600000D01*
D14*
X23550000Y-24450000D02*
G75*
G03*
X23550000Y-24450000I-100000J0D01*
G01*
D12*
%TO.C,R4*%
X22337258Y-26322500D02*
X21862742Y-26322500D01*
X22337258Y-25277500D02*
X21862742Y-25277500D01*
%TO.C,C14*%
X33710000Y-37759420D02*
X33710000Y-38040580D01*
X32690000Y-37759420D02*
X32690000Y-38040580D01*
%TO.C,C11*%
X37359420Y-24090000D02*
X37640580Y-24090000D01*
X37359420Y-25110000D02*
X37640580Y-25110000D01*
%TO.C,C16*%
X22359420Y-37855000D02*
X22640580Y-37855000D01*
X22359420Y-38875000D02*
X22640580Y-38875000D01*
%TO.C,D1*%
X37065000Y-39285000D02*
X38535000Y-39285000D01*
X38535000Y-39285000D02*
X38535000Y-37000000D01*
X37065000Y-37000000D02*
X37065000Y-39285000D01*
%TO.C,D3*%
X39585000Y-35035000D02*
X39585000Y-33565000D01*
X39585000Y-33565000D02*
X37300000Y-33565000D01*
X37300000Y-35035000D02*
X39585000Y-35035000D01*
%TO.C,TP2*%
X33450000Y-25350000D02*
G75*
G03*
X33450000Y-25350000I-500000J0D01*
G01*
%TO.C,Y1*%
X28000000Y-36325000D02*
X28000000Y-39475000D01*
X28000000Y-39475000D02*
X32000000Y-39475000D01*
%TO.C,R9*%
X38496359Y-35120000D02*
X38803641Y-35120000D01*
X38496359Y-35880000D02*
X38803641Y-35880000D01*
%TO.C,C10*%
X36610000Y-37759420D02*
X36610000Y-38040580D01*
X35590000Y-37759420D02*
X35590000Y-38040580D01*
%TO.C,C13*%
X27310000Y-37759420D02*
X27310000Y-38040580D01*
X26290000Y-37759420D02*
X26290000Y-38040580D01*
D13*
%TO.C,U1*%
X26500000Y-27500000D02*
X26500000Y-27980000D01*
X26500000Y-27500000D02*
X26980000Y-27500000D01*
X26500000Y-34500000D02*
X26500000Y-34020000D01*
X26500000Y-34500000D02*
X26980000Y-34500000D01*
X33500000Y-27500000D02*
X33020000Y-27500000D01*
X33500000Y-27500000D02*
X33500000Y-27980000D01*
X33500000Y-34500000D02*
X33020000Y-34500000D01*
X33500000Y-34500000D02*
X33500000Y-34020000D01*
D14*
X25625000Y-28400000D02*
G75*
G03*
X25625000Y-28400000I-100000J0D01*
G01*
D12*
%TO.C,C1*%
X31290000Y-23540580D02*
X31290000Y-23259420D01*
X32310000Y-23540580D02*
X32310000Y-23259420D01*
%TO.C,D4*%
X21765000Y-28615000D02*
X21765000Y-30085000D01*
X21765000Y-30085000D02*
X24050000Y-30085000D01*
X24050000Y-28615000D02*
X21765000Y-28615000D01*
%TO.C,C8*%
X34290000Y-23540580D02*
X34290000Y-23259420D01*
X35310000Y-23540580D02*
X35310000Y-23259420D01*
%TO.C,R5*%
X35080000Y-37146359D02*
X35080000Y-37453641D01*
X34320000Y-37146359D02*
X34320000Y-37453641D01*
%TO.C,C9*%
X29790000Y-23540580D02*
X29790000Y-23259420D01*
X30810000Y-23540580D02*
X30810000Y-23259420D01*
%TO.C,U3*%
X21625000Y-37360000D02*
X22645000Y-37360000D01*
X22645000Y-37360000D02*
X22645000Y-35640000D01*
X21205000Y-35640000D02*
X21205000Y-36800000D01*
X22645000Y-35640000D02*
X21205000Y-35640000D01*
%TO.C,TP4*%
X30000000Y-21050000D02*
G75*
G03*
X30000000Y-21050000I-700000J0D01*
G01*
%TD*%
M02*
