M48
; DRILL file {KiCad 7.0.2} date Wed Sep 13 14:25:59 2023
; FORMAT={-:-/ absolute / inch / decimal}
; #@! TF.CreationDate,2023-09-13T14:25:59-04:00
; #@! TF.GenerationSoftware,Kicad,Pcbnew,7.0.2
; #@! TF.FileFunction,Plated,1,2,PTH
FMAT,2
INCH
; #@! TA.AperFunction,Plated,PTH,ViaDrill
T1C0.0100
%
G90
G05
T1
X0.8124Y-1.4724
X0.8314Y-1.2098
X0.8314Y-1.4035
X0.8595Y-1.0531
X0.8622Y-1.311
X0.8819Y-0.9764
X0.9055Y-1.4553
X0.9154Y-1.2911
X0.9449Y-0.9409
X0.9488Y-1.3562
X0.9613Y-1.4862
X0.9651Y-1.336
X0.9665Y-1.5472
X0.992Y-1.0759
X0.9928Y-1.1147
X0.9989Y-1.1976
X1.0073Y-1.3241
X1.0076Y-1.3501
X1.0096Y-1.1739
X1.0097Y-1.0949
X1.0098Y-1.5226
X1.0156Y-1.2932
X1.0443Y-1.0758
X1.0512Y-1.3819
X1.0591Y-1.3563
X1.0709Y-1.4016
X1.0827Y-1.1378
X1.0866Y-1.1811
X1.0869Y-1.2263
X1.0929Y-1.2516
X1.0945Y-0.9626
X1.0945Y-1.3235
X1.0954Y-1.4477
X1.0988Y-1.1582
X1.128Y-1.3169
X1.1305Y-1.3962
X1.1378Y-1.138
X1.1457Y-1.1732
X1.1732Y-1.1732
X1.1732Y-1.2047
X1.1732Y-1.2362
X1.1732Y-1.2677
X1.1831Y-0.9902
X1.1929Y-0.8504
X1.2008Y-1.1732
X1.2008Y-1.2047
X1.2008Y-1.2362
X1.2008Y-1.2677
X1.2236Y-1.2975
X1.2244Y-1.3942
X1.231Y-1.0189
X1.2385Y-1.138
X1.2409Y-1.3169
X1.2494Y-1.0373
X1.2502Y-1.3912
X1.252Y-0.8504
X1.2598Y-1.1969
X1.2631Y-1.1463
X1.2678Y-1.1719
X1.2788Y-1.2158
X1.2788Y-1.2418
X1.2788Y-1.2678
X1.2788Y-1.2938
X1.2797Y-1.3198
X1.2815Y-1.128
X1.3071Y-1.3684
X1.311Y-0.8504
X1.3217Y-1.3943
X1.3406Y-1.3563
X1.344Y-1.3066
X1.3445Y-1.5226
X1.3526Y-1.1616
X1.3538Y-1.2042
X1.3622Y-1.0197
X1.3701Y-0.8504
X1.3701Y-1.0834
X1.3839Y-1.3071
X1.3839Y-1.5226
X1.4075Y-0.914
X1.4272Y-1.3563
X1.4469Y-1.3006
X1.4764Y-0.998
X1.5162Y-1.4282
X1.5238Y-1.2225
X1.5269Y-1.1909
X1.5417Y-1.4232
X1.5492Y-0.9685
X1.5492Y-1.0276
X1.5492Y-1.0866
X1.5498Y-1.1673
X1.5498Y-1.2501
T0
M30
