%TF.GenerationSoftware,KiCad,Pcbnew,7.0.2*%
%TF.CreationDate,2023-09-13T14:25:54-04:00*%
%TF.ProjectId,PicoMod,5069636f-4d6f-4642-9e6b-696361645f70,rev?*%
%TF.SameCoordinates,Original*%
%TF.FileFunction,Copper,L2,Bot*%
%TF.FilePolarity,Positive*%
%FSLAX46Y46*%
G04 Gerber Fmt 4.6, Leading zero omitted, Abs format (unit mm)*
G04 Created by KiCad (PCBNEW 7.0.2) date 2023-09-13 14:25:54*
%MOMM*%
%LPD*%
G01*
G04 APERTURE LIST*
G04 Aperture macros list*
%AMRoundRect*
0 Rectangle with rounded corners*
0 $1 Rounding radius*
0 $2 $3 $4 $5 $6 $7 $8 $9 X,Y pos of 4 corners*
0 Add a 4 corners polygon primitive as box body*
4,1,4,$2,$3,$4,$5,$6,$7,$8,$9,$2,$3,0*
0 Add four circle primitives for the rounded corners*
1,1,$1+$1,$2,$3*
1,1,$1+$1,$4,$5*
1,1,$1+$1,$6,$7*
1,1,$1+$1,$8,$9*
0 Add four rect primitives between the rounded corners*
20,1,$1+$1,$2,$3,$4,$5,0*
20,1,$1+$1,$4,$5,$6,$7,0*
20,1,$1+$1,$6,$7,$8,$9,0*
20,1,$1+$1,$8,$9,$2,$3,0*%
%AMFreePoly0*
4,1,5,0.400000,-0.500000,-0.400000,-0.500000,-0.400000,0.500000,0.400000,0.500000,0.400000,-0.500000,0.400000,-0.500000,$1*%
G04 Aperture macros list end*
%TA.AperFunction,SMDPad,CuDef*%
%ADD10R,0.800000X1.600000*%
%TD*%
%TA.AperFunction,SMDPad,CuDef*%
%ADD11RoundRect,0.200000X-0.200000X-0.275000X0.200000X-0.275000X0.200000X0.275000X-0.200000X0.275000X0*%
%TD*%
%TA.AperFunction,SMDPad,CuDef*%
%ADD12RoundRect,0.135000X-0.135000X-0.185000X0.135000X-0.185000X0.135000X0.185000X-0.135000X0.185000X0*%
%TD*%
%TA.AperFunction,SMDPad,CuDef*%
%ADD13RoundRect,0.057500X0.267500X-0.057500X0.267500X0.057500X-0.267500X0.057500X-0.267500X-0.057500X0*%
%TD*%
%TA.AperFunction,SMDPad,CuDef*%
%ADD14RoundRect,0.112500X0.152500X-0.112500X0.152500X0.112500X-0.152500X0.112500X-0.152500X-0.112500X0*%
%TD*%
%TA.AperFunction,SMDPad,CuDef*%
%ADD15RoundRect,0.225000X-0.250000X0.225000X-0.250000X-0.225000X0.250000X-0.225000X0.250000X0.225000X0*%
%TD*%
%TA.AperFunction,SMDPad,CuDef*%
%ADD16R,0.800000X1.000000*%
%TD*%
%TA.AperFunction,SMDPad,CuDef*%
%ADD17FreePoly0,180.000000*%
%TD*%
%TA.AperFunction,SMDPad,CuDef*%
%ADD18RoundRect,0.225000X-0.225000X-0.250000X0.225000X-0.250000X0.225000X0.250000X-0.225000X0.250000X0*%
%TD*%
%TA.AperFunction,ViaPad*%
%ADD19C,0.508000*%
%TD*%
%TA.AperFunction,Conductor*%
%ADD20C,0.152400*%
%TD*%
%TA.AperFunction,Conductor*%
%ADD21C,0.200000*%
%TD*%
G04 APERTURE END LIST*
D10*
%TO.P,TP1,1,1*%
%TO.N,GND*%
X30150000Y-38550000D03*
%TD*%
D11*
%TO.P,R6,1*%
%TO.N,/SDA*%
X27075000Y-30900000D03*
%TO.P,R6,2*%
%TO.N,+3V3*%
X28725000Y-30900000D03*
%TD*%
D12*
%TO.P,R2,1*%
%TO.N,/usbP*%
X33040000Y-23350000D03*
%TO.P,R2,2*%
%TO.N,/USB_DP*%
X34060000Y-23350000D03*
%TD*%
D13*
%TO.P,J3,1,Pin_1*%
%TO.N,GND*%
X24125000Y-32800000D03*
%TO.P,J3,2,Pin_2*%
%TO.N,+5V*%
X24125000Y-32400000D03*
%TO.P,J3,3,Pin_3*%
%TO.N,/GPIO11*%
X24125000Y-32000000D03*
%TO.P,J3,4,Pin_4*%
%TO.N,/GPIO10*%
X24125000Y-31600000D03*
%TO.P,J3,5,Pin_5*%
%TO.N,/GPIO9*%
X24125000Y-31200000D03*
%TO.P,J3,6,Pin_6*%
%TO.N,/SCL*%
X24125000Y-30800000D03*
%TO.P,J3,7,Pin_7*%
%TO.N,/SDA*%
X24125000Y-30400000D03*
%TO.P,J3,8,Pin_8*%
%TO.N,/GPIO5*%
X24125000Y-30000000D03*
%TO.P,J3,9,Pin_9*%
%TO.N,/MISO0*%
X24125000Y-29600000D03*
%TO.P,J3,10,Pin_10*%
%TO.N,/MOSI0*%
X24125000Y-29200000D03*
%TO.P,J3,11,Pin_11*%
%TO.N,/SCK0*%
X24125000Y-28800000D03*
%TO.P,J3,12,Pin_12*%
%TO.N,/RX0*%
X24125000Y-28400000D03*
%TO.P,J3,13,Pin_13*%
%TO.N,/TX0*%
X24125000Y-28000000D03*
%TO.P,J3,14,Pin_14*%
%TO.N,+3V3*%
X24125000Y-27600000D03*
%TO.P,J3,15,Pin_15*%
%TO.N,GND*%
X24125000Y-27200000D03*
%TO.P,J3,16,Pin_16*%
X22375000Y-32800000D03*
%TO.P,J3,17,Pin_17*%
%TO.N,+3V3*%
X22375000Y-32400000D03*
%TO.P,J3,18,Pin_18*%
%TO.N,/MISO1*%
X22375000Y-32000000D03*
%TO.P,J3,19,Pin_19*%
%TO.N,/SCK1*%
X22375000Y-31600000D03*
%TO.P,J3,20,Pin_20*%
%TO.N,/MOSI1*%
X22375000Y-31200000D03*
%TO.P,J3,21,Pin_21*%
%TO.N,/GPIO13*%
X22375000Y-30800000D03*
%TO.P,J3,22,Pin_22*%
%TO.N,/VREG_EN*%
X22375000Y-30400000D03*
%TO.P,J3,23,Pin_23*%
%TO.N,unconnected-(J3-Pin_23-Pad23)*%
X22375000Y-30000000D03*
%TO.P,J3,24,Pin_24*%
%TO.N,unconnected-(J3-Pin_24-Pad24)*%
X22375000Y-29600000D03*
%TO.P,J3,25,Pin_25*%
%TO.N,unconnected-(J3-Pin_25-Pad25)*%
X22375000Y-29200000D03*
%TO.P,J3,26,Pin_26*%
%TO.N,unconnected-(J3-Pin_26-Pad26)*%
X22375000Y-28800000D03*
%TO.P,J3,27,Pin_27*%
%TO.N,unconnected-(J3-Pin_27-Pad27)*%
X22375000Y-28400000D03*
%TO.P,J3,28,Pin_28*%
%TO.N,/BOOTSEL*%
X22375000Y-28000000D03*
%TO.P,J3,29,Pin_29*%
%TO.N,+5V*%
X22375000Y-27600000D03*
%TO.P,J3,30,Pin_30*%
%TO.N,GND*%
X22375000Y-27200000D03*
D14*
%TO.P,J3,31,Pin_30*%
X22685000Y-33600000D03*
X23815000Y-33600000D03*
X22685000Y-26400000D03*
X23815000Y-26400000D03*
%TD*%
D13*
%TO.P,J2,1,Pin_1*%
%TO.N,GND*%
X37625000Y-32800000D03*
%TO.P,J2,2,Pin_2*%
%TO.N,+5V*%
X37625000Y-32400000D03*
%TO.P,J2,3,Pin_3*%
%TO.N,/GPIO17*%
X37625000Y-32000000D03*
%TO.P,J2,4,Pin_4*%
%TO.N,/GPIO16*%
X37625000Y-31600000D03*
%TO.P,J2,5,Pin_5*%
%TO.N,/RUN*%
X37625000Y-31200000D03*
%TO.P,J2,6,Pin_6*%
%TO.N,/SWDIO*%
X37625000Y-30800000D03*
%TO.P,J2,7,Pin_7*%
%TO.N,/SWCLK*%
X37625000Y-30400000D03*
%TO.P,J2,8,Pin_8*%
%TO.N,unconnected-(J2-Pin_8-Pad8)*%
X37625000Y-30000000D03*
%TO.P,J2,9,Pin_9*%
%TO.N,unconnected-(J2-Pin_9-Pad9)*%
X37625000Y-29600000D03*
%TO.P,J2,10,Pin_10*%
%TO.N,unconnected-(J2-Pin_10-Pad10)*%
X37625000Y-29200000D03*
%TO.P,J2,11,Pin_11*%
%TO.N,unconnected-(J2-Pin_11-Pad11)*%
X37625000Y-28800000D03*
%TO.P,J2,12,Pin_12*%
%TO.N,/USB_DP*%
X37625000Y-28400000D03*
%TO.P,J2,13,Pin_13*%
%TO.N,/USB_DN*%
X37625000Y-28000000D03*
%TO.P,J2,14,Pin_14*%
%TO.N,+3V3*%
X37625000Y-27600000D03*
%TO.P,J2,15,Pin_15*%
%TO.N,GND*%
X37625000Y-27200000D03*
%TO.P,J2,16,Pin_16*%
X35875000Y-32800000D03*
%TO.P,J2,17,Pin_17*%
%TO.N,+3V3*%
X35875000Y-32400000D03*
%TO.P,J2,18,Pin_18*%
%TO.N,/GPIO18*%
X35875000Y-32000000D03*
%TO.P,J2,19,Pin_19*%
%TO.N,/GPIO19*%
X35875000Y-31600000D03*
%TO.P,J2,20,Pin_20*%
%TO.N,/GPIO20*%
X35875000Y-31200000D03*
%TO.P,J2,21,Pin_21*%
%TO.N,/GPIO21*%
X35875000Y-30800000D03*
%TO.P,J2,22,Pin_22*%
%TO.N,/GPIO22*%
X35875000Y-30400000D03*
%TO.P,J2,23,Pin_23*%
%TO.N,/GPIO23*%
X35875000Y-30000000D03*
%TO.P,J2,24,Pin_24*%
%TO.N,/GPIO24*%
X35875000Y-29600000D03*
%TO.P,J2,25,Pin_25*%
%TO.N,/ADC0*%
X35875000Y-29200000D03*
%TO.P,J2,26,Pin_26*%
%TO.N,/ADC1*%
X35875000Y-28800000D03*
%TO.P,J2,27,Pin_27*%
%TO.N,/ADC2*%
X35875000Y-28400000D03*
%TO.P,J2,28,Pin_28*%
%TO.N,/ADC3*%
X35875000Y-28000000D03*
%TO.P,J2,29,Pin_29*%
%TO.N,+5V*%
X35875000Y-27600000D03*
%TO.P,J2,30,Pin_30*%
%TO.N,GND*%
X35875000Y-27200000D03*
D14*
%TO.P,J2,31,Pin_30*%
X36185000Y-33600000D03*
X37315000Y-33600000D03*
X36185000Y-26400000D03*
X37315000Y-26400000D03*
%TD*%
D11*
%TO.P,R7,1*%
%TO.N,/SCL*%
X27075000Y-32400000D03*
%TO.P,R7,2*%
%TO.N,+3V3*%
X28725000Y-32400000D03*
%TD*%
D12*
%TO.P,R1,1*%
%TO.N,/usbN*%
X33040000Y-24350000D03*
%TO.P,R1,2*%
%TO.N,/USB_DN*%
X34060000Y-24350000D03*
%TD*%
D15*
%TO.P,C6,1*%
%TO.N,+3V3*%
X28600000Y-34575000D03*
%TO.P,C6,2*%
%TO.N,GND*%
X28600000Y-36125000D03*
%TD*%
D16*
%TO.P,JP1,1,A*%
%TO.N,+3V3*%
X23200000Y-38650000D03*
%TO.P,JP1,2,C*%
%TO.N,/LED_PWR*%
X22200000Y-38650000D03*
D17*
%TO.P,JP1,3,B*%
%TO.N,+5V*%
X21200000Y-38650000D03*
%TD*%
D18*
%TO.P,C7,1*%
%TO.N,+3V3*%
X26025000Y-25700000D03*
%TO.P,C7,2*%
%TO.N,GND*%
X27575000Y-25700000D03*
%TD*%
D19*
%TO.N,+3V3*%
X24000000Y-23900000D03*
X28650000Y-33450000D03*
X37500000Y-25350000D03*
X26524423Y-27325577D03*
X35150000Y-33200000D03*
X27500000Y-28900000D03*
X21900000Y-33300000D03*
%TO.N,GND*%
X28714709Y-35464709D03*
X29800000Y-31400000D03*
X29100000Y-29800000D03*
X25650000Y-38675226D03*
X24417900Y-37750000D03*
X39350000Y-26100000D03*
X27800000Y-24450000D03*
X34150000Y-38675000D03*
X27822673Y-36772673D03*
X35150000Y-38675000D03*
X29800000Y-29800000D03*
X36750000Y-33035000D03*
X39350000Y-27600000D03*
X30300000Y-21600000D03*
X30500000Y-32200000D03*
X29800000Y-30600000D03*
X39350000Y-24600000D03*
X23250000Y-32794100D03*
X31800000Y-21600000D03*
X24098874Y-34448392D03*
X30500000Y-29800000D03*
X30500000Y-30600000D03*
X30500000Y-31400000D03*
X33300000Y-21600000D03*
X29800000Y-32200000D03*
X39160000Y-36150000D03*
X34800000Y-21600000D03*
%TO.N,+1V1*%
X35750000Y-23215200D03*
X31080480Y-32955902D03*
X34600000Y-25900000D03*
X30050000Y-25150000D03*
%TO.N,+5V*%
X25197387Y-27327440D03*
X21832100Y-26750000D03*
X20634501Y-37400000D03*
X28900000Y-28905900D03*
X24512628Y-33934310D03*
X31458025Y-28905900D03*
X34800000Y-27517900D03*
X36250000Y-34450500D03*
%TO.N,/LED*%
X32000000Y-30400000D03*
X34050000Y-34450000D03*
%TO.N,/TX0*%
X25645974Y-27811422D03*
%TO.N,/RX0*%
X25217900Y-28313641D03*
%TO.N,/SCK0*%
X27909723Y-29417299D03*
%TO.N,/MOSI0*%
X27600000Y-30000000D03*
%TO.N,/MISO0*%
X25644570Y-29816943D03*
%TO.N,/GPIO5*%
X25371949Y-30417900D03*
%TO.N,/SDA*%
X27608487Y-31149076D03*
%TO.N,/GPIO9*%
X25796186Y-32847645D03*
%TO.N,/GPIO10*%
X25585582Y-33632405D03*
%TO.N,/GPIO11*%
X25592277Y-34292272D03*
%TO.N,/MISO1*%
X26900000Y-34450000D03*
%TO.N,/SWCLK*%
X31099038Y-35411563D03*
X38512429Y-36276975D03*
X38783397Y-30249808D03*
%TO.N,/SWDIO*%
X39365500Y-31751948D03*
X38703500Y-31050362D03*
X31754546Y-35335539D03*
%TO.N,/RUN*%
X39365500Y-29650000D03*
X31517900Y-33450000D03*
%TO.N,/GPIO13*%
X27800000Y-33618104D03*
%TO.N,/SCK1*%
X26700000Y-35100000D03*
%TO.N,/MOSI1*%
X27200000Y-35600000D03*
%TO.N,/GPIO16*%
X33572370Y-35415500D03*
%TO.N,/GPIO17*%
X33200000Y-34756797D03*
%TO.N,/GPIO18*%
X32504048Y-33521653D03*
%TO.N,/GPIO19*%
X34137371Y-33188116D03*
%TO.N,/GPIO20*%
X32482100Y-32862115D03*
%TO.N,/GPIO21*%
X32482100Y-32202212D03*
%TO.N,/GPIO22*%
X32482100Y-31542309D03*
%TO.N,/GPIO23*%
X34387525Y-30587525D03*
%TO.N,/GPIO24*%
X32482100Y-30882406D03*
%TO.N,/ADC0*%
X34355450Y-29505450D03*
%TO.N,/ADC1*%
X32202875Y-29765615D03*
%TO.N,/ADC2*%
X32083379Y-29116621D03*
%TO.N,/ADC3*%
X32550000Y-28650000D03*
%TO.N,/SCL*%
X27759751Y-31791408D03*
%TO.N,/BOOTSEL*%
X22400000Y-24800000D03*
%TO.N,/VREG_EN*%
X22999454Y-36963438D03*
X21116601Y-30729850D03*
X21116601Y-35650000D03*
%TO.N,/LED_PWR*%
X24550000Y-39300000D03*
%TO.N,/usbN*%
X31733699Y-26346299D03*
%TO.N,/usbP*%
X31266301Y-25878901D03*
%TD*%
D20*
%TO.N,+3V3*%
X24000000Y-23900000D02*
X24225000Y-23900000D01*
X24225000Y-23900000D02*
X26025000Y-25700000D01*
X22045393Y-32400000D02*
X22375000Y-32400000D01*
X35545393Y-32400000D02*
X35875000Y-32400000D01*
X37681400Y-27656400D02*
X37850000Y-27656400D01*
X38190400Y-27364207D02*
X38190400Y-26040400D01*
D21*
X28650000Y-33450000D02*
X28650000Y-34375000D01*
X28526698Y-30701698D02*
X28725000Y-30900000D01*
D20*
X21821400Y-32623993D02*
X22045393Y-32400000D01*
D21*
X28650000Y-34375000D02*
X28850000Y-34575000D01*
D20*
X24678600Y-27163727D02*
X24678600Y-27376007D01*
X37625000Y-27600000D02*
X37681400Y-27656400D01*
X37954607Y-27600000D02*
X38190400Y-27364207D01*
X26524423Y-27325577D02*
X26033133Y-26834287D01*
X23200000Y-38650000D02*
X23200000Y-37600000D01*
X21900000Y-33300000D02*
X21900000Y-33275000D01*
X38190400Y-26040400D02*
X37500000Y-25350000D01*
D21*
X28725000Y-33375000D02*
X28725000Y-32400000D01*
D20*
X28225000Y-34575000D02*
X28850000Y-34575000D01*
X21900000Y-33300000D02*
X21821400Y-33221400D01*
X23200000Y-37600000D02*
X23998200Y-36801800D01*
D21*
X28725000Y-30900000D02*
X28725000Y-32400000D01*
D20*
X35150000Y-32795393D02*
X35545393Y-32400000D01*
D21*
X28114703Y-28900000D02*
X28526698Y-29311995D01*
D20*
X24678600Y-27376007D02*
X24454607Y-27600000D01*
X25008040Y-26834287D02*
X24678600Y-27163727D01*
X37625000Y-27600000D02*
X37954607Y-27600000D01*
X26033133Y-26834287D02*
X25008040Y-26834287D01*
X26025000Y-25700000D02*
X26524423Y-26199423D01*
D21*
X27500000Y-28900000D02*
X28114703Y-28900000D01*
X28526698Y-29311995D02*
X28526698Y-30701698D01*
D20*
X26524423Y-26199423D02*
X26524423Y-27325577D01*
X23998200Y-36801800D02*
X27111752Y-36801800D01*
X35150000Y-33200000D02*
X35150000Y-32795393D01*
X27987400Y-34812600D02*
X28225000Y-34575000D01*
X21821400Y-33221400D02*
X21821400Y-32623993D01*
D21*
X28650000Y-33450000D02*
X28725000Y-33375000D01*
D20*
X27111752Y-36801800D02*
X27987400Y-35926152D01*
X27987400Y-35926152D02*
X27987400Y-34812600D01*
X24454607Y-27600000D02*
X24125000Y-27600000D01*
%TO.N,GND*%
X23250000Y-27200000D02*
X22375000Y-27200000D01*
X36750000Y-27200000D02*
X36750000Y-26965000D01*
X36750000Y-33035000D02*
X37315000Y-33600000D01*
X36185000Y-26400000D02*
X36750000Y-26965000D01*
X23250000Y-33035000D02*
X23815000Y-33600000D01*
X23250000Y-32800000D02*
X23250000Y-33035000D01*
X36750000Y-33035000D02*
X36750000Y-32800000D01*
X35875000Y-27200000D02*
X36750000Y-27200000D01*
X23250000Y-27200000D02*
X23250000Y-26965000D01*
X36750000Y-27200000D02*
X37625000Y-27200000D01*
X23250000Y-26965000D02*
X22685000Y-26400000D01*
X36750000Y-32800000D02*
X37625000Y-32800000D01*
X28714709Y-35989709D02*
X28850000Y-36125000D01*
X24125000Y-27200000D02*
X23250000Y-27200000D01*
X35875000Y-32800000D02*
X36750000Y-32800000D01*
X36750000Y-26965000D02*
X37315000Y-26400000D01*
X23815000Y-26400000D02*
X23250000Y-26965000D01*
X23250000Y-32800000D02*
X24125000Y-32800000D01*
X22375000Y-32800000D02*
X23250000Y-32800000D01*
X23250000Y-33035000D02*
X22685000Y-33600000D01*
X36185000Y-33600000D02*
X36750000Y-33035000D01*
X28714709Y-35464709D02*
X28714709Y-35989709D01*
%TO.N,+1V1*%
X32550000Y-22650000D02*
X30050000Y-25150000D01*
X30975425Y-29125425D02*
X30975425Y-28706000D01*
X34109600Y-27390400D02*
X34600000Y-26900000D01*
X31094098Y-32955902D02*
X31695200Y-32354800D01*
X35184800Y-22650000D02*
X32550000Y-22650000D01*
X31080480Y-32955902D02*
X31094098Y-32955902D01*
X33779996Y-27390400D02*
X34109600Y-27390400D01*
X34600000Y-26900000D02*
X34600000Y-25900000D01*
X30050000Y-25150000D02*
X30050000Y-25282500D01*
X31695200Y-32354800D02*
X31695200Y-30777700D01*
X31517400Y-29667400D02*
X30975425Y-29125425D01*
X32087673Y-27845200D02*
X33325196Y-27845200D01*
X33325196Y-27845200D02*
X33779996Y-27390400D01*
X30975425Y-28706000D02*
X31258125Y-28423300D01*
X35750000Y-23215200D02*
X35184800Y-22650000D01*
X31517400Y-30599900D02*
X31517400Y-29667400D01*
X31509573Y-28423300D02*
X32087673Y-27845200D01*
X31695200Y-30777700D02*
X31517400Y-30599900D01*
X31258125Y-28423300D02*
X31509573Y-28423300D01*
%TO.N,+5V*%
X33906248Y-27695200D02*
X34622700Y-27695200D01*
X37625000Y-32400000D02*
X37954608Y-32400000D01*
X37954608Y-32400000D02*
X38300000Y-32745392D01*
X21200000Y-37965499D02*
X21200000Y-38650000D01*
X34882100Y-27600000D02*
X35875000Y-27600000D01*
X25843786Y-27327440D02*
X25197387Y-27327440D01*
X38300000Y-33544740D02*
X37394240Y-34450500D01*
X34622700Y-27695200D02*
X34800000Y-27517900D01*
X34800000Y-27517900D02*
X34882100Y-27600000D01*
X21821400Y-26760700D02*
X21821400Y-27376007D01*
X37394240Y-34450500D02*
X36250000Y-34450500D01*
X24125000Y-32400000D02*
X24468948Y-32400000D01*
X24704486Y-33742452D02*
X24704486Y-32635538D01*
X21821400Y-27376007D02*
X22045393Y-27600000D01*
X28900000Y-28900000D02*
X28150000Y-28150000D01*
X28150000Y-28150000D02*
X26666346Y-28150000D01*
X20634501Y-37400000D02*
X21200000Y-37965499D01*
X32213925Y-28150000D02*
X33451448Y-28150000D01*
X26666346Y-28150000D02*
X25843786Y-27327440D01*
X21832100Y-26750000D02*
X21821400Y-26760700D01*
X38300000Y-32745392D02*
X38300000Y-33544740D01*
X24512628Y-33934310D02*
X24704486Y-33742452D01*
X28900000Y-28905900D02*
X28900000Y-28900000D01*
X31458025Y-28905900D02*
X32213925Y-28150000D01*
X22045393Y-27600000D02*
X22375000Y-27600000D01*
X24468948Y-32400000D02*
X24704486Y-32635538D01*
X33451448Y-28150000D02*
X33906248Y-27695200D01*
%TO.N,/USB_DP*%
X34540001Y-23350000D02*
X34887301Y-23697300D01*
X38800100Y-25484148D02*
X38800100Y-27625017D01*
X34887301Y-23697300D02*
X37013252Y-23697300D01*
X38025117Y-28400000D02*
X37625000Y-28400000D01*
X37013252Y-23697300D02*
X38800100Y-25484148D01*
X38800100Y-27625017D02*
X38025117Y-28400000D01*
X34060000Y-23350000D02*
X34540001Y-23350000D01*
%TO.N,/USB_DN*%
X36450000Y-24002700D02*
X36886748Y-24002700D01*
X38494700Y-27498513D02*
X37993213Y-28000000D01*
X34887301Y-24002700D02*
X35250000Y-24002700D01*
X34540001Y-24350000D02*
X34887301Y-24002700D01*
X36886748Y-24002700D02*
X38494700Y-25610652D01*
X38494700Y-25610652D02*
X38494700Y-27498513D01*
X34060000Y-24350000D02*
X34540001Y-24350000D01*
X36150000Y-24485833D02*
X36150000Y-24302700D01*
X35550000Y-24302700D02*
X35550000Y-24485833D01*
X37993213Y-28000000D02*
X37625000Y-28000000D01*
X35850000Y-24785800D02*
G75*
G03*
X36150000Y-24485833I0J300000D01*
G01*
X36450000Y-24002700D02*
G75*
G03*
X36150000Y-24302700I0J-300000D01*
G01*
X35550000Y-24302700D02*
G75*
G03*
X35250000Y-24002700I-300000J0D01*
G01*
X35549967Y-24485833D02*
G75*
G03*
X35850000Y-24785833I300033J33D01*
G01*
%TO.N,/LED*%
X32349895Y-34050000D02*
X33300000Y-34050000D01*
X33300000Y-34050000D02*
X33650000Y-34050000D01*
X32000000Y-30400000D02*
X32000000Y-33700105D01*
X33650000Y-34050000D02*
X34050000Y-34450000D01*
X32000000Y-33700105D02*
X32349895Y-34050000D01*
%TO.N,/TX0*%
X24988578Y-27811422D02*
X24800000Y-28000000D01*
X24125000Y-28000000D02*
X24800000Y-28000000D01*
X25645974Y-27811422D02*
X24988578Y-27811422D01*
%TO.N,/RX0*%
X25131541Y-28400000D02*
X25217900Y-28313641D01*
X24125000Y-28400000D02*
X25131541Y-28400000D01*
%TO.N,/SCK0*%
X26448351Y-29417299D02*
X25831052Y-28800000D01*
X25831052Y-28800000D02*
X24125000Y-28800000D01*
X27909723Y-29417299D02*
X26448351Y-29417299D01*
%TO.N,/MOSI0*%
X26600000Y-30000000D02*
X25800000Y-29200000D01*
X25800000Y-29200000D02*
X24125000Y-29200000D01*
X27600000Y-30000000D02*
X26600000Y-30000000D01*
%TO.N,/MISO0*%
X25644570Y-29816943D02*
X25427627Y-29600000D01*
X25427627Y-29600000D02*
X24125000Y-29600000D01*
%TO.N,/GPIO5*%
X25371949Y-30417900D02*
X24954049Y-30000000D01*
X24954049Y-30000000D02*
X23875000Y-30000000D01*
%TO.N,/SDA*%
X27359411Y-30900000D02*
X27608487Y-31149076D01*
X25162104Y-30900000D02*
X24662104Y-30400000D01*
X27075000Y-30900000D02*
X25162104Y-30900000D01*
X24662104Y-30400000D02*
X23875000Y-30400000D01*
X27075000Y-30900000D02*
X27359411Y-30900000D01*
%TO.N,/GPIO9*%
X24600000Y-31200000D02*
X23875000Y-31200000D01*
X25796186Y-32847645D02*
X25796186Y-32396186D01*
X25796186Y-32396186D02*
X24600000Y-31200000D01*
%TO.N,/GPIO10*%
X25585582Y-33632405D02*
X25314086Y-33360909D01*
X25314086Y-32383034D02*
X24531052Y-31600000D01*
X25314086Y-33360909D02*
X25314086Y-32383034D01*
X24531052Y-31600000D02*
X23875000Y-31600000D01*
%TO.N,/GPIO11*%
X24500000Y-32000000D02*
X23875000Y-32000000D01*
X25492272Y-34292272D02*
X25009286Y-33809286D01*
X25009286Y-33809286D02*
X25009286Y-32509286D01*
X25009286Y-32509286D02*
X24500000Y-32000000D01*
X25592277Y-34292272D02*
X25492272Y-34292272D01*
%TO.N,/MISO1*%
X26667500Y-34450000D02*
X26217400Y-34900100D01*
X21417400Y-32404000D02*
X21821400Y-32000000D01*
X26217400Y-34900100D02*
X26217400Y-35151548D01*
X23500100Y-35582600D02*
X21417400Y-33499900D01*
X25786348Y-35582600D02*
X23500100Y-35582600D01*
X26217400Y-35151548D02*
X25786348Y-35582600D01*
X26900000Y-34450000D02*
X26667500Y-34450000D01*
X21417400Y-33499900D02*
X21417400Y-32404000D01*
X21821400Y-32000000D02*
X22375000Y-32000000D01*
%TO.N,/SWCLK*%
X32108900Y-36508900D02*
X38280504Y-36508900D01*
X38783397Y-30249808D02*
X38350192Y-30249808D01*
X31099038Y-35499038D02*
X32108900Y-36508900D01*
X38280504Y-36508900D02*
X38512429Y-36276975D01*
X31099038Y-35411563D02*
X31099038Y-35499038D01*
X38200000Y-30400000D02*
X37625000Y-30400000D01*
X38350192Y-30249808D02*
X38200000Y-30400000D01*
%TO.N,/SWDIO*%
X39542800Y-31929248D02*
X39365500Y-31751948D01*
X38703500Y-31050362D02*
X38453138Y-30800000D01*
X32623107Y-36204100D02*
X37364848Y-36204100D01*
X37364848Y-36204100D02*
X39542800Y-34026148D01*
X31754546Y-35335539D02*
X32623107Y-36204100D01*
X39542800Y-34026148D02*
X39542800Y-31929248D01*
X38453138Y-30800000D02*
X37625000Y-30800000D01*
%TO.N,/RUN*%
X37238596Y-35899300D02*
X39238000Y-33899896D01*
X33000100Y-35899300D02*
X37238596Y-35899300D01*
X38817827Y-31882173D02*
X38815526Y-31884474D01*
X38690526Y-31759474D02*
X38565526Y-31634474D01*
X38690526Y-31745129D02*
X38690526Y-31759474D01*
X38817827Y-31617827D02*
X38690526Y-31745129D01*
X39365500Y-31070155D02*
X38817827Y-31617827D01*
X38131052Y-31200000D02*
X37625000Y-31200000D01*
X39238000Y-33899896D02*
X39238000Y-32306948D01*
X39238000Y-32306948D02*
X38815526Y-31884474D01*
X31517900Y-33450000D02*
X31517900Y-34417100D01*
X38815526Y-31884474D02*
X38690526Y-31759474D01*
X38565526Y-31634474D02*
X38131052Y-31200000D01*
X39365500Y-29650000D02*
X39365500Y-31070155D01*
X38817827Y-31617827D02*
X38817827Y-31882173D01*
X31517900Y-34417100D02*
X33000100Y-35899300D01*
X38817827Y-31617827D02*
X38801180Y-31634474D01*
X38801180Y-31634474D02*
X38565526Y-31634474D01*
%TO.N,/GPIO13*%
X27682600Y-33735504D02*
X27682600Y-35799900D01*
X20503000Y-32025244D02*
X21728244Y-30800000D01*
X27682600Y-35799900D02*
X26985500Y-36497000D01*
X23121344Y-36497000D02*
X20503000Y-33878656D01*
X26985500Y-36497000D02*
X23121344Y-36497000D01*
X21728244Y-30800000D02*
X22375000Y-30800000D01*
X27800000Y-33618104D02*
X27682600Y-33735504D01*
X20503000Y-33878656D02*
X20503000Y-32025244D01*
%TO.N,/SCK1*%
X22375000Y-31600000D02*
X21790348Y-31600000D01*
X23373848Y-35887400D02*
X25912600Y-35887400D01*
X21112600Y-33626152D02*
X23373848Y-35887400D01*
X21790348Y-31600000D02*
X21112600Y-32277748D01*
X25912600Y-35887400D02*
X26700000Y-35100000D01*
X21112600Y-32277748D02*
X21112600Y-33626152D01*
%TO.N,/MOSI1*%
X23247596Y-36192200D02*
X26607800Y-36192200D01*
X22375000Y-31200000D02*
X21759296Y-31200000D01*
X20807800Y-32151496D02*
X20807800Y-33752404D01*
X26607800Y-36192200D02*
X27200000Y-35600000D01*
X20807800Y-33752404D02*
X23247596Y-36192200D01*
X21759296Y-31200000D02*
X20807800Y-32151496D01*
%TO.N,/GPIO16*%
X38100000Y-31600000D02*
X37625000Y-31600000D01*
X33572370Y-35415500D02*
X33573570Y-35416700D01*
X33573570Y-35416700D02*
X37290144Y-35416700D01*
X37290144Y-35416700D02*
X38933200Y-33773644D01*
X38933200Y-33773644D02*
X38933200Y-32433200D01*
X38933200Y-32433200D02*
X38100000Y-31600000D01*
%TO.N,/GPIO17*%
X38628400Y-33647392D02*
X38628400Y-32559452D01*
X33200000Y-34756797D02*
X33375803Y-34932600D01*
X33375803Y-34932600D02*
X37343192Y-34932600D01*
X37343192Y-34932600D02*
X38628400Y-33647392D01*
X38068948Y-32000000D02*
X37625000Y-32000000D01*
X38628400Y-32559452D02*
X38068948Y-32000000D01*
%TO.N,/GPIO18*%
X33788408Y-33521653D02*
X33937471Y-33670716D01*
X34665526Y-32715526D02*
X35381052Y-32000000D01*
X34665526Y-33342461D02*
X34665526Y-32715526D01*
X35381052Y-32000000D02*
X35875000Y-32000000D01*
X33937471Y-33670716D02*
X34337271Y-33670716D01*
X34337271Y-33670716D02*
X34665526Y-33342461D01*
X32504048Y-33521653D02*
X33788408Y-33521653D01*
%TO.N,/GPIO19*%
X34137371Y-32812629D02*
X35350000Y-31600000D01*
X35350000Y-31600000D02*
X35875000Y-31600000D01*
X34137371Y-33188116D02*
X34137371Y-32812629D01*
%TO.N,/GPIO20*%
X35875000Y-31200000D02*
X35318948Y-31200000D01*
X33656833Y-32862115D02*
X32482100Y-32862115D01*
X35318948Y-31200000D02*
X33656833Y-32862115D01*
%TO.N,/GPIO21*%
X33885684Y-32202212D02*
X35287896Y-30800000D01*
X35287896Y-30800000D02*
X35875000Y-30800000D01*
X32482100Y-32202212D02*
X33885684Y-32202212D01*
%TO.N,/GPIO22*%
X35875000Y-30400000D02*
X35256844Y-30400000D01*
X34114535Y-31542309D02*
X32482100Y-31542309D01*
X35256844Y-30400000D02*
X34114535Y-31542309D01*
%TO.N,/GPIO23*%
X35875000Y-30000000D02*
X35239068Y-30000000D01*
X34987620Y-30000000D02*
X34400095Y-30587525D01*
X35239068Y-30000000D02*
X34987620Y-30000000D01*
X34400095Y-30587525D02*
X34387525Y-30587525D01*
%TO.N,/GPIO24*%
X34486153Y-30070415D02*
X34956568Y-29600000D01*
X32482100Y-30882406D02*
X33067594Y-30882406D01*
X33067594Y-30882406D02*
X33879585Y-30070415D01*
X33879585Y-30070415D02*
X34486153Y-30070415D01*
X34956568Y-29600000D02*
X35875000Y-29600000D01*
%TO.N,/ADC0*%
X34355450Y-29505450D02*
X34660900Y-29200000D01*
X34660900Y-29200000D02*
X35875000Y-29200000D01*
%TO.N,/ADC1*%
X35875000Y-28800000D02*
X34094604Y-28800000D01*
X34094604Y-28800000D02*
X33128989Y-29765615D01*
X33128989Y-29765615D02*
X32202875Y-29765615D01*
%TO.N,/ADC2*%
X35875000Y-28400000D02*
X34063552Y-28400000D01*
X34063552Y-28400000D02*
X33330952Y-29132600D01*
X33330952Y-29132600D02*
X32099358Y-29132600D01*
X32099358Y-29132600D02*
X32083379Y-29116621D01*
%TO.N,/ADC3*%
X34032500Y-28000000D02*
X35875000Y-28000000D01*
X32550000Y-28650000D02*
X33382500Y-28650000D01*
X33382500Y-28650000D02*
X34032500Y-28000000D01*
%TO.N,/SCL*%
X27759751Y-31791408D02*
X25622460Y-31791408D01*
X27500000Y-32400000D02*
X27075000Y-32400000D01*
X24631052Y-30800000D02*
X23875000Y-30800000D01*
X27759751Y-32140249D02*
X27500000Y-32400000D01*
X27759751Y-31791408D02*
X27759751Y-32140249D01*
X25622460Y-31791408D02*
X24631052Y-30800000D01*
%TO.N,/BOOTSEL*%
X21350000Y-27528600D02*
X21821400Y-28000000D01*
X22050000Y-24800000D02*
X21350000Y-25500000D01*
X21821400Y-28000000D02*
X22375000Y-28000000D01*
X21350000Y-25500000D02*
X21350000Y-27528600D01*
X22400000Y-24800000D02*
X22050000Y-24800000D01*
%TO.N,/VREG_EN*%
X22430039Y-36963438D02*
X22999454Y-36963438D01*
X21116601Y-30729850D02*
X21446451Y-30400000D01*
X21116601Y-35650000D02*
X22430039Y-36963438D01*
X21446451Y-30400000D02*
X22375000Y-30400000D01*
%TO.N,/LED_PWR*%
X22276200Y-39378600D02*
X24471400Y-39378600D01*
X22200000Y-39302400D02*
X22276200Y-39378600D01*
X22200000Y-38650000D02*
X22200000Y-39302400D01*
X24471400Y-39378600D02*
X24550000Y-39300000D01*
%TO.N,/usbN*%
X32150000Y-25050000D02*
X31959460Y-24859460D01*
X31571101Y-25501201D02*
X31748901Y-25679001D01*
X33040000Y-24350000D02*
X33040000Y-24910000D01*
X31748901Y-25679001D02*
X31748901Y-26331097D01*
X33040000Y-24910000D02*
X32900000Y-25050000D01*
X31571101Y-25022083D02*
X31571101Y-25501201D01*
X31671592Y-24859460D02*
X31615035Y-24916017D01*
X31853394Y-24815526D02*
X31777658Y-24815526D01*
X32900000Y-25050000D02*
X32150000Y-25050000D01*
X31748901Y-26331097D02*
X31733699Y-26346299D01*
X31959458Y-24859462D02*
G75*
G03*
X31853394Y-24815526I-106058J-106038D01*
G01*
X31777658Y-24815489D02*
G75*
G03*
X31671592Y-24859460I42J-150011D01*
G01*
X31615044Y-24916026D02*
G75*
G03*
X31571101Y-25022083I106056J-106074D01*
G01*
%TO.N,/usbP*%
X31266301Y-25878901D02*
X31266301Y-24833699D01*
X31266301Y-24833699D02*
X32750000Y-23350000D01*
X32750000Y-23350000D02*
X33040000Y-23350000D01*
%TD*%
%TA.AperFunction,Conductor*%
%TO.N,GND*%
G36*
X39005611Y-20381997D02*
G01*
X39027491Y-20384464D01*
X39126620Y-20395645D01*
X39148220Y-20400577D01*
X39247735Y-20435410D01*
X39257887Y-20438964D01*
X39277857Y-20448583D01*
X39376231Y-20510405D01*
X39393561Y-20524227D01*
X39475712Y-20606386D01*
X39489532Y-20623717D01*
X39551343Y-20722095D01*
X39560961Y-20742067D01*
X39599336Y-20851737D01*
X39604268Y-20873348D01*
X39617877Y-20994114D01*
X39618500Y-21005200D01*
X39618500Y-29066240D01*
X39599593Y-29124431D01*
X39550093Y-29160395D01*
X39491609Y-29161230D01*
X39438036Y-29145500D01*
X39292964Y-29145500D01*
X39153768Y-29186370D01*
X39031725Y-29264804D01*
X38936722Y-29374442D01*
X38876456Y-29506406D01*
X38854317Y-29660397D01*
X38827321Y-29715305D01*
X38773207Y-29743858D01*
X38756325Y-29745308D01*
X38710861Y-29745308D01*
X38571665Y-29786178D01*
X38449619Y-29864614D01*
X38429602Y-29887715D01*
X38377206Y-29919311D01*
X38346155Y-29921506D01*
X38321279Y-29919329D01*
X38311708Y-29921894D01*
X38250606Y-29918691D01*
X38203057Y-29880185D01*
X38195526Y-29866265D01*
X38183922Y-29839983D01*
X38177715Y-29779119D01*
X38183923Y-29760014D01*
X38197512Y-29729238D01*
X38200500Y-29703484D01*
X38200500Y-29496516D01*
X38197512Y-29470762D01*
X38183922Y-29439984D01*
X38177715Y-29379117D01*
X38183920Y-29360020D01*
X38197512Y-29329238D01*
X38200500Y-29303484D01*
X38200500Y-29096516D01*
X38197512Y-29070762D01*
X38183922Y-29039984D01*
X38177715Y-28979117D01*
X38183920Y-28960020D01*
X38197512Y-28929238D01*
X38200500Y-28903484D01*
X38200500Y-28733142D01*
X38219407Y-28674951D01*
X38227414Y-28667741D01*
X38227132Y-28667504D01*
X38238355Y-28654128D01*
X38263440Y-28624231D01*
X38269253Y-28617886D01*
X39017975Y-27869163D01*
X39024333Y-27863339D01*
X39024336Y-27863335D01*
X39054228Y-27838255D01*
X39073749Y-27804441D01*
X39078368Y-27797192D01*
X39100759Y-27765217D01*
X39101162Y-27763709D01*
X39111054Y-27739828D01*
X39111834Y-27738479D01*
X39118613Y-27700026D01*
X39120473Y-27691635D01*
X39130577Y-27653931D01*
X39127177Y-27615066D01*
X39126800Y-27606437D01*
X39126800Y-25502735D01*
X39127177Y-25494105D01*
X39130578Y-25455236D01*
X39128804Y-25448615D01*
X39120473Y-25417526D01*
X39118612Y-25409136D01*
X39111834Y-25370686D01*
X39111054Y-25369335D01*
X39101163Y-25345459D01*
X39100759Y-25343949D01*
X39078370Y-25311974D01*
X39073739Y-25304705D01*
X39073406Y-25304128D01*
X39054228Y-25270910D01*
X39041017Y-25259825D01*
X39024345Y-25245835D01*
X39017977Y-25240001D01*
X37257403Y-23479427D01*
X37251569Y-23473059D01*
X37226491Y-23443172D01*
X37210632Y-23434016D01*
X37192691Y-23423658D01*
X37185432Y-23419034D01*
X37153451Y-23396641D01*
X37153450Y-23396640D01*
X37153449Y-23396640D01*
X37151940Y-23396236D01*
X37128066Y-23386346D01*
X37126714Y-23385565D01*
X37088292Y-23378791D01*
X37079860Y-23376922D01*
X37042165Y-23366821D01*
X37003295Y-23370223D01*
X36994665Y-23370600D01*
X36351597Y-23370600D01*
X36293406Y-23351693D01*
X36257442Y-23302193D01*
X36253605Y-23257511D01*
X36259688Y-23215199D01*
X36239043Y-23071606D01*
X36178777Y-22939642D01*
X36178776Y-22939642D01*
X36083775Y-22830004D01*
X36005341Y-22779597D01*
X35961731Y-22751570D01*
X35822536Y-22710700D01*
X35748530Y-22710700D01*
X35690339Y-22691793D01*
X35678526Y-22681703D01*
X35428956Y-22432132D01*
X35423122Y-22425765D01*
X35398039Y-22395872D01*
X35382180Y-22386716D01*
X35364239Y-22376358D01*
X35356980Y-22371734D01*
X35324999Y-22349341D01*
X35324998Y-22349340D01*
X35324997Y-22349340D01*
X35323488Y-22348936D01*
X35299614Y-22339046D01*
X35298262Y-22338265D01*
X35259840Y-22331491D01*
X35251408Y-22329622D01*
X35213713Y-22319521D01*
X35174843Y-22322923D01*
X35166213Y-22323300D01*
X32568587Y-22323300D01*
X32559959Y-22322923D01*
X32556083Y-22322583D01*
X32521084Y-22319521D01*
X32483390Y-22329621D01*
X32474962Y-22331490D01*
X32436536Y-22338266D01*
X32435179Y-22339050D01*
X32411312Y-22348936D01*
X32409800Y-22349341D01*
X32377832Y-22371724D01*
X32370554Y-22376361D01*
X32336762Y-22395871D01*
X32311688Y-22425753D01*
X32305855Y-22432119D01*
X30121472Y-24616504D01*
X30066955Y-24644281D01*
X30051468Y-24645500D01*
X29977464Y-24645500D01*
X29838268Y-24686370D01*
X29716225Y-24764804D01*
X29621222Y-24874442D01*
X29560956Y-25006406D01*
X29540311Y-25150000D01*
X29560956Y-25293593D01*
X29621222Y-25425557D01*
X29631921Y-25437904D01*
X29716225Y-25535196D01*
X29838268Y-25613629D01*
X29977464Y-25654500D01*
X30122536Y-25654500D01*
X30261732Y-25613629D01*
X30383775Y-25535196D01*
X30478777Y-25425558D01*
X30539042Y-25293596D01*
X30539042Y-25293594D01*
X30539043Y-25293593D01*
X30561714Y-25135911D01*
X30564397Y-25136296D01*
X30571181Y-25097090D01*
X30588734Y-25073288D01*
X30770599Y-24891423D01*
X30825114Y-24863648D01*
X30885546Y-24873219D01*
X30928811Y-24916484D01*
X30939601Y-24961429D01*
X30939601Y-25448615D01*
X30920694Y-25506806D01*
X30915426Y-25513439D01*
X30896575Y-25535195D01*
X30837523Y-25603343D01*
X30777257Y-25735307D01*
X30756612Y-25878901D01*
X30777257Y-26022494D01*
X30837523Y-26154458D01*
X30837524Y-26154459D01*
X30932526Y-26264097D01*
X31054569Y-26342530D01*
X31169866Y-26376383D01*
X31220373Y-26410918D01*
X31239967Y-26457283D01*
X31244655Y-26489893D01*
X31304921Y-26621856D01*
X31304922Y-26621857D01*
X31399924Y-26731495D01*
X31521967Y-26809928D01*
X31661163Y-26850799D01*
X31806235Y-26850799D01*
X31945431Y-26809928D01*
X32067474Y-26731495D01*
X32162476Y-26621857D01*
X32222741Y-26489895D01*
X32222741Y-26489893D01*
X32222742Y-26489892D01*
X32243387Y-26346299D01*
X32222742Y-26202705D01*
X32162476Y-26070741D01*
X32152496Y-26059224D01*
X32099781Y-25998387D01*
X32075964Y-25942029D01*
X32075601Y-25933557D01*
X32075601Y-25697587D01*
X32075978Y-25688957D01*
X32079379Y-25650086D01*
X32069277Y-25612387D01*
X32067413Y-25603982D01*
X32060635Y-25565539D01*
X32059856Y-25564189D01*
X32049963Y-25540305D01*
X32049560Y-25538802D01*
X32049560Y-25538801D01*
X32047581Y-25535975D01*
X32029692Y-25477465D01*
X32049611Y-25419613D01*
X32099730Y-25384517D01*
X32120048Y-25380568D01*
X32150221Y-25377928D01*
X32159950Y-25377076D01*
X32168578Y-25376700D01*
X32881414Y-25376700D01*
X32890041Y-25377076D01*
X32928914Y-25380478D01*
X32966636Y-25370369D01*
X32975011Y-25368512D01*
X33013462Y-25361734D01*
X33014809Y-25360955D01*
X33038691Y-25351062D01*
X33040199Y-25350659D01*
X33072183Y-25328262D01*
X33079422Y-25323650D01*
X33113238Y-25304128D01*
X33138323Y-25274231D01*
X33144136Y-25267886D01*
X33257886Y-25154136D01*
X33264231Y-25148323D01*
X33294128Y-25123238D01*
X33313650Y-25089422D01*
X33318262Y-25082183D01*
X33340659Y-25050199D01*
X33341062Y-25048691D01*
X33350955Y-25024809D01*
X33351734Y-25023462D01*
X33358512Y-24985011D01*
X33360370Y-24976631D01*
X33370478Y-24938914D01*
X33370140Y-24935050D01*
X33383903Y-24875434D01*
X33398760Y-24856417D01*
X33402100Y-24853076D01*
X33402102Y-24853076D01*
X33479996Y-24775181D01*
X33534514Y-24747404D01*
X33594946Y-24756976D01*
X33620000Y-24775178D01*
X33697898Y-24853076D01*
X33813482Y-24909582D01*
X33888418Y-24920500D01*
X33888421Y-24920500D01*
X34231579Y-24920500D01*
X34231582Y-24920500D01*
X34306518Y-24909582D01*
X34422102Y-24853076D01*
X34513076Y-24762102D01*
X34530787Y-24725872D01*
X34573329Y-24681900D01*
X34594091Y-24673731D01*
X34606632Y-24670370D01*
X34615012Y-24668512D01*
X34653463Y-24661734D01*
X34654810Y-24660955D01*
X34678692Y-24651062D01*
X34680200Y-24650659D01*
X34712184Y-24628262D01*
X34719423Y-24623650D01*
X34753239Y-24604128D01*
X34778324Y-24574231D01*
X34784149Y-24567875D01*
X34993629Y-24358396D01*
X35048145Y-24330619D01*
X35063632Y-24329400D01*
X35124295Y-24329400D01*
X35182486Y-24348307D01*
X35218450Y-24397807D01*
X35223295Y-24428394D01*
X35223296Y-24444829D01*
X35223263Y-24444930D01*
X35223273Y-24556478D01*
X35254712Y-24694160D01*
X35287832Y-24762918D01*
X35315996Y-24821390D01*
X35404053Y-24931796D01*
X35514469Y-25019841D01*
X35641707Y-25081111D01*
X35779389Y-25112534D01*
X35850000Y-25112533D01*
X35901744Y-25112533D01*
X35917253Y-25112533D01*
X35917462Y-25112500D01*
X35920608Y-25112500D01*
X35942181Y-25107576D01*
X36058281Y-25081079D01*
X36185513Y-25019812D01*
X36295923Y-24931772D01*
X36308117Y-24916484D01*
X36362766Y-24847965D01*
X36383976Y-24821372D01*
X36445256Y-24694147D01*
X36476692Y-24556476D01*
X36476694Y-24525291D01*
X36476700Y-24525254D01*
X36476700Y-24485797D01*
X36476701Y-24470317D01*
X36476705Y-24434125D01*
X36476704Y-24434123D01*
X36476705Y-24428391D01*
X36495617Y-24370202D01*
X36545121Y-24334243D01*
X36575705Y-24329400D01*
X36710416Y-24329400D01*
X36768607Y-24348307D01*
X36780420Y-24358396D01*
X37213652Y-24791628D01*
X37241429Y-24846145D01*
X37231858Y-24906577D01*
X37197173Y-24944914D01*
X37171477Y-24961429D01*
X37166225Y-24964804D01*
X37071222Y-25074442D01*
X37010956Y-25206406D01*
X36990311Y-25350000D01*
X37010956Y-25493593D01*
X37071222Y-25625557D01*
X37071223Y-25625558D01*
X37166225Y-25735196D01*
X37177929Y-25742718D01*
X37216658Y-25790081D01*
X37220152Y-25851167D01*
X37187073Y-25902639D01*
X37135042Y-25922897D01*
X37135198Y-25923967D01*
X37130558Y-25924642D01*
X37130057Y-25924838D01*
X37129012Y-25924868D01*
X37057635Y-25935265D01*
X37037088Y-25945310D01*
X37037088Y-25945311D01*
X37315000Y-26223224D01*
X37421773Y-26329996D01*
X37449550Y-26384513D01*
X37439979Y-26444945D01*
X37421773Y-26470004D01*
X37037089Y-26854687D01*
X37043128Y-26857640D01*
X37087101Y-26900185D01*
X37097668Y-26960451D01*
X37090210Y-26986568D01*
X37052982Y-27070879D01*
X37050330Y-27093741D01*
X37050000Y-27099455D01*
X37050000Y-27300552D01*
X37050329Y-27306241D01*
X37052983Y-27329123D01*
X37066349Y-27359394D01*
X37072557Y-27420263D01*
X37066350Y-27439367D01*
X37052487Y-27470764D01*
X37049830Y-27493667D01*
X37049829Y-27493676D01*
X37049500Y-27496516D01*
X37049500Y-27703484D01*
X37049829Y-27706324D01*
X37049830Y-27706332D01*
X37052487Y-27729237D01*
X37066076Y-27760014D01*
X37072282Y-27820883D01*
X37066076Y-27839983D01*
X37052488Y-27870760D01*
X37049830Y-27893667D01*
X37049829Y-27893676D01*
X37049500Y-27896516D01*
X37049500Y-28103484D01*
X37049829Y-28106324D01*
X37049830Y-28106332D01*
X37052487Y-28129237D01*
X37066076Y-28160014D01*
X37072282Y-28220883D01*
X37066076Y-28239983D01*
X37052488Y-28270760D01*
X37049830Y-28293667D01*
X37049829Y-28293676D01*
X37049500Y-28296516D01*
X37049500Y-28503484D01*
X37049829Y-28506324D01*
X37049830Y-28506332D01*
X37052487Y-28529237D01*
X37066076Y-28560014D01*
X37072282Y-28620883D01*
X37066076Y-28639983D01*
X37052488Y-28670760D01*
X37049830Y-28693667D01*
X37049829Y-28693676D01*
X37049500Y-28696516D01*
X37049500Y-28903484D01*
X37049829Y-28906324D01*
X37049830Y-28906332D01*
X37052487Y-28929237D01*
X37066076Y-28960014D01*
X37072282Y-29020883D01*
X37066076Y-29039983D01*
X37052488Y-29070760D01*
X37049830Y-29093667D01*
X37049829Y-29093676D01*
X37049500Y-29096516D01*
X37049500Y-29303484D01*
X37049829Y-29306324D01*
X37049830Y-29306332D01*
X37052487Y-29329237D01*
X37066076Y-29360014D01*
X37072282Y-29420883D01*
X37066076Y-29439983D01*
X37052488Y-29470760D01*
X37049830Y-29493667D01*
X37049829Y-29493676D01*
X37049500Y-29496516D01*
X37049500Y-29703484D01*
X37049829Y-29706324D01*
X37049830Y-29706332D01*
X37052487Y-29729237D01*
X37066076Y-29760014D01*
X37072282Y-29820883D01*
X37066076Y-29839983D01*
X37052488Y-29870760D01*
X37049830Y-29893667D01*
X37049829Y-29893676D01*
X37049500Y-29896516D01*
X37049500Y-30103484D01*
X37049829Y-30106324D01*
X37049830Y-30106332D01*
X37052487Y-30129237D01*
X37066076Y-30160014D01*
X37072282Y-30220883D01*
X37066076Y-30239983D01*
X37052488Y-30270760D01*
X37049830Y-30293667D01*
X37049829Y-30293676D01*
X37049500Y-30296516D01*
X37049500Y-30503484D01*
X37049829Y-30506324D01*
X37049830Y-30506332D01*
X37052487Y-30529237D01*
X37066076Y-30560014D01*
X37072282Y-30620883D01*
X37066076Y-30639983D01*
X37052488Y-30670760D01*
X37049830Y-30693667D01*
X37049829Y-30693676D01*
X37049500Y-30696516D01*
X37049500Y-30903484D01*
X37049829Y-30906324D01*
X37049830Y-30906332D01*
X37052487Y-30929237D01*
X37066076Y-30960014D01*
X37072282Y-31020883D01*
X37066076Y-31039983D01*
X37052488Y-31070760D01*
X37049830Y-31093667D01*
X37049829Y-31093676D01*
X37049500Y-31096516D01*
X37049500Y-31303484D01*
X37049829Y-31306324D01*
X37049830Y-31306332D01*
X37052487Y-31329237D01*
X37066076Y-31360014D01*
X37072282Y-31420883D01*
X37066076Y-31439983D01*
X37052488Y-31470760D01*
X37049830Y-31493667D01*
X37049829Y-31493676D01*
X37049500Y-31496516D01*
X37049500Y-31703484D01*
X37049829Y-31706324D01*
X37049830Y-31706332D01*
X37052487Y-31729237D01*
X37066076Y-31760014D01*
X37072282Y-31820883D01*
X37066076Y-31839983D01*
X37052488Y-31870760D01*
X37049830Y-31893667D01*
X37049829Y-31893676D01*
X37049500Y-31896516D01*
X37049500Y-32103484D01*
X37049829Y-32106324D01*
X37049830Y-32106332D01*
X37052487Y-32129237D01*
X37066076Y-32160014D01*
X37072282Y-32220883D01*
X37066076Y-32239983D01*
X37052488Y-32270760D01*
X37049830Y-32293667D01*
X37049829Y-32293676D01*
X37049500Y-32296516D01*
X37049500Y-32503484D01*
X37049829Y-32506322D01*
X37049830Y-32506334D01*
X37052487Y-32529237D01*
X37066349Y-32560631D01*
X37072557Y-32621500D01*
X37066350Y-32640604D01*
X37052982Y-32670879D01*
X37050330Y-32693741D01*
X37050000Y-32699455D01*
X37050000Y-32900552D01*
X37050329Y-32906241D01*
X37052983Y-32929121D01*
X37090209Y-33013430D01*
X37096417Y-33074299D01*
X37065661Y-33127193D01*
X37043125Y-33142358D01*
X37037088Y-33145309D01*
X37037088Y-33145311D01*
X37315000Y-33423224D01*
X37421773Y-33529996D01*
X37449550Y-33584513D01*
X37439979Y-33644945D01*
X37421773Y-33670004D01*
X37001055Y-34090722D01*
X36999998Y-34089665D01*
X36977401Y-34112637D01*
X36931732Y-34123800D01*
X36679673Y-34123800D01*
X36621482Y-34104893D01*
X36604854Y-34089631D01*
X36583775Y-34065304D01*
X36583773Y-34065303D01*
X36576715Y-34057157D01*
X36558759Y-34014669D01*
X36528037Y-34019535D01*
X36490000Y-34005038D01*
X36461731Y-33986870D01*
X36391640Y-33966290D01*
X36349528Y-33941304D01*
X36185000Y-33776777D01*
X35896581Y-34065194D01*
X35893311Y-34087008D01*
X35879554Y-34107623D01*
X35821222Y-34174941D01*
X35760956Y-34306906D01*
X35740311Y-34450499D01*
X35746395Y-34492811D01*
X35735962Y-34553100D01*
X35692084Y-34595743D01*
X35648403Y-34605900D01*
X34651525Y-34605900D01*
X34593334Y-34586993D01*
X34557370Y-34537493D01*
X34553533Y-34492811D01*
X34559688Y-34449999D01*
X34539043Y-34306406D01*
X34478777Y-34174442D01*
X34439296Y-34128879D01*
X34415479Y-34072520D01*
X34429337Y-34012925D01*
X34464135Y-33982772D01*
X34463167Y-33981390D01*
X34477468Y-33971375D01*
X34477470Y-33971375D01*
X34509454Y-33948978D01*
X34516693Y-33944366D01*
X34550509Y-33924844D01*
X34575594Y-33894947D01*
X34581407Y-33888602D01*
X34801568Y-33668441D01*
X34856083Y-33640666D01*
X34916515Y-33650237D01*
X34925093Y-33655162D01*
X34938268Y-33663629D01*
X35077464Y-33704500D01*
X35222536Y-33704500D01*
X35361732Y-33663629D01*
X35483775Y-33585196D01*
X35496181Y-33570878D01*
X35548575Y-33539282D01*
X35609536Y-33544517D01*
X35655778Y-33584584D01*
X35670000Y-33635708D01*
X35670000Y-33746899D01*
X35680265Y-33817364D01*
X35716578Y-33891642D01*
X36008222Y-33599999D01*
X36361777Y-33599999D01*
X36613528Y-33851750D01*
X36635386Y-33894651D01*
X36653419Y-33891642D01*
X36661059Y-33876017D01*
X36703602Y-33832043D01*
X36763868Y-33821474D01*
X36818836Y-33848347D01*
X36838939Y-33876016D01*
X36846578Y-33891642D01*
X36846579Y-33891642D01*
X37138223Y-33599999D01*
X36846579Y-33308355D01*
X36846577Y-33308356D01*
X36838939Y-33323981D01*
X36796396Y-33367955D01*
X36736130Y-33378524D01*
X36681162Y-33351651D01*
X36661059Y-33323981D01*
X36653420Y-33308356D01*
X36653419Y-33308356D01*
X36361777Y-33599999D01*
X36008222Y-33599999D01*
X36184999Y-33423223D01*
X36462910Y-33145311D01*
X36456873Y-33142360D01*
X36412899Y-33099816D01*
X36402330Y-33039550D01*
X36409790Y-33013430D01*
X36447017Y-32929121D01*
X36449669Y-32906258D01*
X36449999Y-32900544D01*
X36449999Y-32699447D01*
X36449670Y-32693758D01*
X36447016Y-32670879D01*
X36433650Y-32640608D01*
X36427441Y-32579739D01*
X36433646Y-32560640D01*
X36447512Y-32529238D01*
X36450500Y-32503484D01*
X36450500Y-32296516D01*
X36447512Y-32270762D01*
X36433923Y-32239987D01*
X36427715Y-32179119D01*
X36433923Y-32160014D01*
X36447512Y-32129238D01*
X36450500Y-32103484D01*
X36450500Y-31896516D01*
X36447512Y-31870762D01*
X36433923Y-31839987D01*
X36427715Y-31779119D01*
X36433923Y-31760014D01*
X36447512Y-31729238D01*
X36450500Y-31703484D01*
X36450500Y-31496516D01*
X36447512Y-31470762D01*
X36433923Y-31439987D01*
X36427715Y-31379119D01*
X36433923Y-31360014D01*
X36447512Y-31329238D01*
X36450500Y-31303484D01*
X36450500Y-31096516D01*
X36447512Y-31070762D01*
X36433923Y-31039987D01*
X36427715Y-30979119D01*
X36433923Y-30960014D01*
X36447512Y-30929238D01*
X36450500Y-30903484D01*
X36450500Y-30696516D01*
X36447512Y-30670762D01*
X36433923Y-30639987D01*
X36427715Y-30579119D01*
X36433923Y-30560014D01*
X36447512Y-30529238D01*
X36450500Y-30503484D01*
X36450500Y-30296516D01*
X36447512Y-30270762D01*
X36433923Y-30239987D01*
X36427715Y-30179119D01*
X36433923Y-30160014D01*
X36447512Y-30129238D01*
X36450500Y-30103484D01*
X36450500Y-29896516D01*
X36447512Y-29870762D01*
X36433923Y-29839987D01*
X36427715Y-29779119D01*
X36433923Y-29760014D01*
X36447512Y-29729238D01*
X36450500Y-29703484D01*
X36450500Y-29496516D01*
X36447512Y-29470762D01*
X36433923Y-29439987D01*
X36427715Y-29379119D01*
X36433924Y-29360012D01*
X36447512Y-29329238D01*
X36450500Y-29303484D01*
X36450500Y-29096516D01*
X36447512Y-29070762D01*
X36433923Y-29039987D01*
X36427715Y-28979119D01*
X36433924Y-28960012D01*
X36447512Y-28929238D01*
X36450500Y-28903484D01*
X36450500Y-28696516D01*
X36447512Y-28670762D01*
X36433923Y-28639987D01*
X36427715Y-28579119D01*
X36433924Y-28560012D01*
X36447512Y-28529238D01*
X36450500Y-28503484D01*
X36450500Y-28296516D01*
X36447512Y-28270762D01*
X36433923Y-28239987D01*
X36427715Y-28179119D01*
X36433923Y-28160014D01*
X36447512Y-28129238D01*
X36450500Y-28103484D01*
X36450500Y-27896516D01*
X36447512Y-27870762D01*
X36433923Y-27839987D01*
X36427715Y-27779119D01*
X36433923Y-27760014D01*
X36447512Y-27729238D01*
X36450500Y-27703484D01*
X36450500Y-27496516D01*
X36447512Y-27470762D01*
X36433649Y-27439366D01*
X36427442Y-27378498D01*
X36433651Y-27359390D01*
X36447017Y-27329119D01*
X36449669Y-27306258D01*
X36449999Y-27300544D01*
X36449999Y-27099447D01*
X36449670Y-27093758D01*
X36447016Y-27070877D01*
X36409790Y-26986568D01*
X36403581Y-26925698D01*
X36434337Y-26872804D01*
X36456872Y-26857639D01*
X36462910Y-26854686D01*
X36008223Y-26399999D01*
X36361777Y-26399999D01*
X36653420Y-26691642D01*
X36661059Y-26676017D01*
X36703602Y-26632043D01*
X36763868Y-26621474D01*
X36818836Y-26648347D01*
X36838939Y-26676016D01*
X36846578Y-26691642D01*
X36846579Y-26691642D01*
X37138223Y-26399999D01*
X36846579Y-26108355D01*
X36846577Y-26108356D01*
X36838939Y-26123981D01*
X36796396Y-26167955D01*
X36736130Y-26178524D01*
X36681162Y-26151651D01*
X36661059Y-26123981D01*
X36653420Y-26108356D01*
X36653419Y-26108356D01*
X36361777Y-26399999D01*
X36008223Y-26399999D01*
X35716579Y-26108355D01*
X35716578Y-26108356D01*
X35680266Y-26182635D01*
X35670000Y-26253100D01*
X35670000Y-26546899D01*
X35680265Y-26617364D01*
X35717007Y-26692519D01*
X35725579Y-26753101D01*
X35696904Y-26807151D01*
X35680936Y-26814957D01*
X35672634Y-26834999D01*
X35903131Y-27065497D01*
X35930908Y-27120013D01*
X35921337Y-27180445D01*
X35878072Y-27223710D01*
X35833127Y-27234500D01*
X35787873Y-27234500D01*
X35729682Y-27215593D01*
X35717870Y-27205504D01*
X35413747Y-26901382D01*
X35349419Y-26965710D01*
X35302982Y-27070880D01*
X35302589Y-27074271D01*
X35277100Y-27129895D01*
X35223784Y-27159913D01*
X35163006Y-27152859D01*
X35145956Y-27140077D01*
X35145749Y-27140400D01*
X35133776Y-27132705D01*
X35133775Y-27132704D01*
X35011732Y-27054271D01*
X35011729Y-27054269D01*
X34998018Y-27050243D01*
X34947512Y-27015707D01*
X34926951Y-26958080D01*
X34930286Y-26929626D01*
X34930477Y-26928914D01*
X34927077Y-26890049D01*
X34926700Y-26881420D01*
X34926700Y-26330286D01*
X34945607Y-26272095D01*
X34950874Y-26265461D01*
X35028777Y-26175558D01*
X35089042Y-26043596D01*
X35089042Y-26043594D01*
X35089043Y-26043593D01*
X35103174Y-25945310D01*
X35907088Y-25945310D01*
X36185000Y-26223222D01*
X36462910Y-25945311D01*
X36442362Y-25935266D01*
X36371899Y-25925000D01*
X35998100Y-25925000D01*
X35927635Y-25935265D01*
X35907088Y-25945310D01*
X35103174Y-25945310D01*
X35109688Y-25900000D01*
X35089043Y-25756406D01*
X35028777Y-25624442D01*
X35028776Y-25624442D01*
X34933775Y-25514804D01*
X34830784Y-25448615D01*
X34811731Y-25436370D01*
X34672536Y-25395500D01*
X34527464Y-25395500D01*
X34388268Y-25436370D01*
X34266225Y-25514804D01*
X34171222Y-25624442D01*
X34110956Y-25756406D01*
X34090311Y-25900000D01*
X34110956Y-26043593D01*
X34171222Y-26175557D01*
X34175268Y-26180226D01*
X34249119Y-26265455D01*
X34272937Y-26321814D01*
X34273300Y-26330286D01*
X34273300Y-26723667D01*
X34254393Y-26781858D01*
X34244304Y-26793670D01*
X34003272Y-27034703D01*
X33948755Y-27062481D01*
X33933268Y-27063700D01*
X33798574Y-27063700D01*
X33789946Y-27063323D01*
X33787254Y-27063087D01*
X33751080Y-27059922D01*
X33713397Y-27070019D01*
X33704969Y-27071888D01*
X33666530Y-27078666D01*
X33665173Y-27079450D01*
X33641313Y-27089333D01*
X33639799Y-27089738D01*
X33607827Y-27112125D01*
X33600547Y-27116762D01*
X33566758Y-27136270D01*
X33541674Y-27166164D01*
X33535841Y-27172529D01*
X33218868Y-27489503D01*
X33164351Y-27517281D01*
X33148864Y-27518500D01*
X32106261Y-27518500D01*
X32097631Y-27518123D01*
X32058759Y-27514721D01*
X32021063Y-27524822D01*
X32012633Y-27526691D01*
X31974209Y-27533466D01*
X31972852Y-27534250D01*
X31948985Y-27544136D01*
X31947473Y-27544541D01*
X31915505Y-27566924D01*
X31908227Y-27571561D01*
X31874435Y-27591071D01*
X31849356Y-27620959D01*
X31843523Y-27627324D01*
X31403246Y-28067603D01*
X31348729Y-28095381D01*
X31333242Y-28096600D01*
X31276712Y-28096600D01*
X31268082Y-28096223D01*
X31229210Y-28092821D01*
X31191519Y-28102920D01*
X31183092Y-28104789D01*
X31144658Y-28111566D01*
X31143302Y-28112350D01*
X31119442Y-28122233D01*
X31117926Y-28122639D01*
X31085962Y-28145020D01*
X31078683Y-28149658D01*
X31044885Y-28169172D01*
X31019812Y-28199053D01*
X31013979Y-28205420D01*
X30757544Y-28461855D01*
X30751178Y-28467688D01*
X30721296Y-28492762D01*
X30701786Y-28526554D01*
X30697149Y-28533832D01*
X30674766Y-28565800D01*
X30674361Y-28567312D01*
X30664475Y-28591179D01*
X30663691Y-28592536D01*
X30656915Y-28630962D01*
X30655046Y-28639390D01*
X30644946Y-28677084D01*
X30648348Y-28715956D01*
X30648725Y-28724586D01*
X30648725Y-29106837D01*
X30648348Y-29115467D01*
X30644946Y-29154337D01*
X30655047Y-29192033D01*
X30656916Y-29200465D01*
X30663690Y-29238887D01*
X30664471Y-29240239D01*
X30674361Y-29264113D01*
X30674766Y-29265624D01*
X30697159Y-29297605D01*
X30701783Y-29304864D01*
X30702631Y-29306332D01*
X30721297Y-29338664D01*
X30751190Y-29363747D01*
X30757557Y-29369581D01*
X31161703Y-29773726D01*
X31189481Y-29828243D01*
X31190700Y-29843730D01*
X31190700Y-30581312D01*
X31190323Y-30589942D01*
X31186921Y-30628812D01*
X31197022Y-30666508D01*
X31198891Y-30674940D01*
X31205665Y-30713362D01*
X31206446Y-30714714D01*
X31216336Y-30738588D01*
X31216741Y-30740099D01*
X31239134Y-30772080D01*
X31243758Y-30779339D01*
X31254116Y-30797280D01*
X31263272Y-30813139D01*
X31293159Y-30838217D01*
X31299527Y-30844052D01*
X31339503Y-30884029D01*
X31367280Y-30938546D01*
X31368499Y-30954032D01*
X31368500Y-32178468D01*
X31349593Y-32236659D01*
X31339504Y-32248471D01*
X31165571Y-32422405D01*
X31111054Y-32450183D01*
X31095567Y-32451402D01*
X31007944Y-32451402D01*
X30868748Y-32492272D01*
X30746705Y-32570706D01*
X30651702Y-32680344D01*
X30591436Y-32812308D01*
X30570791Y-32955902D01*
X30591436Y-33099495D01*
X30651702Y-33231459D01*
X30651703Y-33231460D01*
X30746705Y-33341098D01*
X30853009Y-33409416D01*
X30868748Y-33419531D01*
X30948738Y-33443018D01*
X30999245Y-33477553D01*
X31018839Y-33523919D01*
X31028856Y-33593593D01*
X31089123Y-33725560D01*
X31167018Y-33815455D01*
X31190836Y-33871814D01*
X31191199Y-33880286D01*
X31191200Y-34398512D01*
X31190823Y-34407142D01*
X31187421Y-34446012D01*
X31197522Y-34483708D01*
X31199391Y-34492140D01*
X31206165Y-34530562D01*
X31206946Y-34531914D01*
X31216836Y-34555788D01*
X31217241Y-34557299D01*
X31239634Y-34589280D01*
X31244258Y-34596539D01*
X31254616Y-34614480D01*
X31263772Y-34630339D01*
X31293659Y-34655417D01*
X31300027Y-34661251D01*
X31431846Y-34793070D01*
X31459623Y-34847587D01*
X31450052Y-34908019D01*
X31406787Y-34951284D01*
X31346355Y-34960855D01*
X31318100Y-34950086D01*
X31171574Y-34907063D01*
X31026502Y-34907063D01*
X30887306Y-34947933D01*
X30765263Y-35026367D01*
X30670260Y-35136005D01*
X30609994Y-35267969D01*
X30589349Y-35411563D01*
X30609994Y-35555156D01*
X30670260Y-35687120D01*
X30670261Y-35687121D01*
X30765263Y-35796759D01*
X30872225Y-35865500D01*
X30887306Y-35875192D01*
X31040159Y-35920073D01*
X31038871Y-35924458D01*
X31071222Y-35934970D01*
X31083035Y-35945059D01*
X31864753Y-36726777D01*
X31870587Y-36733145D01*
X31895662Y-36763028D01*
X31929462Y-36782542D01*
X31936726Y-36787170D01*
X31968701Y-36809559D01*
X31970211Y-36809963D01*
X31994087Y-36819854D01*
X31995438Y-36820634D01*
X32033888Y-36827412D01*
X32042278Y-36829273D01*
X32079987Y-36839378D01*
X32079987Y-36839377D01*
X32079988Y-36839378D01*
X32098121Y-36837791D01*
X32118859Y-36835976D01*
X32127487Y-36835600D01*
X38261918Y-36835600D01*
X38270545Y-36835976D01*
X38309418Y-36839378D01*
X38347140Y-36829269D01*
X38355515Y-36827412D01*
X38393966Y-36820634D01*
X38395313Y-36819855D01*
X38419195Y-36809962D01*
X38420703Y-36809559D01*
X38435241Y-36799378D01*
X38492025Y-36781475D01*
X38584965Y-36781475D01*
X38724161Y-36740604D01*
X38846204Y-36662171D01*
X38941206Y-36552533D01*
X39001471Y-36420571D01*
X39001471Y-36420569D01*
X39001472Y-36420568D01*
X39022117Y-36276975D01*
X39001472Y-36133381D01*
X38941206Y-36001417D01*
X38937315Y-35996927D01*
X38846204Y-35891779D01*
X38767770Y-35841372D01*
X38724160Y-35813345D01*
X38584965Y-35772475D01*
X38497505Y-35772475D01*
X38439314Y-35753568D01*
X38403350Y-35704068D01*
X38403350Y-35642882D01*
X38427501Y-35603471D01*
X39449496Y-34581476D01*
X39504013Y-34553699D01*
X39564445Y-34563270D01*
X39607710Y-34606535D01*
X39618500Y-34651480D01*
X39618500Y-37996460D01*
X39618248Y-38003523D01*
X39602530Y-38223280D01*
X39600519Y-38237261D01*
X39554444Y-38449061D01*
X39550465Y-38462614D01*
X39474712Y-38665718D01*
X39468844Y-38678567D01*
X39364964Y-38868809D01*
X39357328Y-38880691D01*
X39227426Y-39054220D01*
X39218176Y-39064896D01*
X39064896Y-39218176D01*
X39054220Y-39227426D01*
X38880691Y-39357328D01*
X38868809Y-39364964D01*
X38689790Y-39462716D01*
X38678567Y-39468844D01*
X38665718Y-39474712D01*
X38462614Y-39550465D01*
X38449061Y-39554444D01*
X38237261Y-39600519D01*
X38223280Y-39602530D01*
X38003523Y-39618248D01*
X37996460Y-39618500D01*
X30856483Y-39618500D01*
X30798292Y-39599593D01*
X30762328Y-39550093D01*
X30762328Y-39488907D01*
X30774167Y-39464499D01*
X30785494Y-39447545D01*
X30800000Y-39374622D01*
X30800000Y-38675001D01*
X30799999Y-38675000D01*
X29500001Y-38675000D01*
X29500000Y-38675001D01*
X29500000Y-39374622D01*
X29514505Y-39447545D01*
X29525833Y-39464499D01*
X29542441Y-39523388D01*
X29521263Y-39580791D01*
X29470389Y-39614783D01*
X29443517Y-39618500D01*
X25113213Y-39618500D01*
X25055022Y-39599593D01*
X25019058Y-39550093D01*
X25019058Y-39488907D01*
X25023160Y-39478373D01*
X25026344Y-39471401D01*
X25039042Y-39443596D01*
X25059688Y-39300000D01*
X25039043Y-39156406D01*
X24978777Y-39024442D01*
X24943294Y-38983493D01*
X24883775Y-38914804D01*
X24805341Y-38864397D01*
X24761731Y-38836370D01*
X24622536Y-38795500D01*
X24477464Y-38795500D01*
X24338268Y-38836370D01*
X24216223Y-38914805D01*
X24127038Y-39017731D01*
X24074642Y-39049327D01*
X24052219Y-39051900D01*
X23949500Y-39051900D01*
X23891309Y-39032993D01*
X23855345Y-38983493D01*
X23850500Y-38952900D01*
X23850500Y-38424999D01*
X29500000Y-38424999D01*
X29500001Y-38425000D01*
X30024999Y-38425000D01*
X30024999Y-38424999D01*
X30275000Y-38424999D01*
X30275001Y-38425000D01*
X30799999Y-38425000D01*
X30800000Y-38424999D01*
X30800000Y-37725377D01*
X30785494Y-37652454D01*
X30730240Y-37569759D01*
X30647545Y-37514505D01*
X30574623Y-37500000D01*
X30275001Y-37500000D01*
X30275000Y-37500001D01*
X30275000Y-38424999D01*
X30024999Y-38424999D01*
X30024999Y-37500000D01*
X29725377Y-37500000D01*
X29652454Y-37514505D01*
X29569759Y-37569759D01*
X29514505Y-37652454D01*
X29500000Y-37725377D01*
X29500000Y-38424999D01*
X23850500Y-38424999D01*
X23850500Y-38125327D01*
X23850500Y-38125326D01*
X23835966Y-38052260D01*
X23780601Y-37969399D01*
X23697740Y-37914034D01*
X23624674Y-37899500D01*
X23624673Y-37899500D01*
X23615111Y-37897598D01*
X23615398Y-37896152D01*
X23567509Y-37880593D01*
X23531545Y-37831093D01*
X23526700Y-37800500D01*
X23526700Y-37776332D01*
X23545607Y-37718141D01*
X23555696Y-37706328D01*
X24104528Y-37157496D01*
X24159045Y-37129719D01*
X24174532Y-37128500D01*
X27093166Y-37128500D01*
X27101793Y-37128876D01*
X27140666Y-37132278D01*
X27178388Y-37122169D01*
X27186763Y-37120312D01*
X27225214Y-37113534D01*
X27226561Y-37112755D01*
X27250443Y-37102862D01*
X27251951Y-37102459D01*
X27283935Y-37080062D01*
X27291174Y-37075450D01*
X27324990Y-37055928D01*
X27350075Y-37026031D01*
X27355899Y-37019676D01*
X27566018Y-36809557D01*
X27790993Y-36584581D01*
X27845508Y-36556805D01*
X27905940Y-36566376D01*
X27940248Y-36595257D01*
X28010668Y-36689327D01*
X28120018Y-36771186D01*
X28247992Y-36818918D01*
X28301934Y-36824717D01*
X28307209Y-36824999D01*
X28474999Y-36824999D01*
X28474999Y-36824998D01*
X28725000Y-36824998D01*
X28725001Y-36824999D01*
X28892789Y-36824999D01*
X28898067Y-36824716D01*
X28952006Y-36818918D01*
X29079981Y-36771186D01*
X29189329Y-36689329D01*
X29271186Y-36579981D01*
X29318918Y-36452007D01*
X29324717Y-36398065D01*
X29325000Y-36392791D01*
X29325000Y-36250001D01*
X29324999Y-36250000D01*
X28725001Y-36250000D01*
X28725000Y-36250001D01*
X28725000Y-36824998D01*
X28474999Y-36824998D01*
X28475000Y-36099000D01*
X28493907Y-36040809D01*
X28543407Y-36004845D01*
X28574000Y-36000000D01*
X29324998Y-36000000D01*
X29324999Y-35999999D01*
X29324999Y-35857211D01*
X29324716Y-35851932D01*
X29318918Y-35797993D01*
X29271186Y-35670018D01*
X29189329Y-35560670D01*
X29079981Y-35478814D01*
X28984026Y-35443024D01*
X28936112Y-35404973D01*
X28919715Y-35346025D01*
X28941097Y-35288698D01*
X28984026Y-35257509D01*
X29080226Y-35221628D01*
X29189687Y-35139687D01*
X29271628Y-35030226D01*
X29319412Y-34902114D01*
X29325500Y-34845485D01*
X29325499Y-34304516D01*
X29319412Y-34247886D01*
X29305232Y-34209868D01*
X29271628Y-34119773D01*
X29236254Y-34072520D01*
X29189687Y-34010313D01*
X29103774Y-33946000D01*
X29080225Y-33928371D01*
X29079909Y-33928253D01*
X29077298Y-33926179D01*
X29068831Y-33919841D01*
X29069012Y-33919598D01*
X29031996Y-33890201D01*
X29015600Y-33831253D01*
X29036984Y-33773926D01*
X29039663Y-33770697D01*
X29078777Y-33725558D01*
X29139042Y-33593596D01*
X29159688Y-33450000D01*
X29159415Y-33448104D01*
X29146295Y-33356847D01*
X29139042Y-33306404D01*
X29093949Y-33207665D01*
X29086975Y-33146880D01*
X29117061Y-33093603D01*
X29126732Y-33087814D01*
X29125876Y-33086654D01*
X29144792Y-33072693D01*
X29247150Y-32997150D01*
X29327793Y-32887882D01*
X29372646Y-32759699D01*
X29375500Y-32729266D01*
X29375500Y-32070734D01*
X29372646Y-32040301D01*
X29327793Y-31912118D01*
X29247150Y-31802850D01*
X29147972Y-31729653D01*
X29112380Y-31679888D01*
X29112838Y-31618704D01*
X29147972Y-31570346D01*
X29247150Y-31497150D01*
X29327793Y-31387882D01*
X29372646Y-31259699D01*
X29375500Y-31229266D01*
X29375500Y-30570734D01*
X29372646Y-30540301D01*
X29327793Y-30412118D01*
X29247150Y-30302850D01*
X29137882Y-30222207D01*
X29009699Y-30177354D01*
X29009697Y-30177353D01*
X29009695Y-30177353D01*
X28981577Y-30174716D01*
X28981561Y-30174715D01*
X28979266Y-30174500D01*
X28976955Y-30174500D01*
X28976198Y-30174500D01*
X28976070Y-30174458D01*
X28974644Y-30174392D01*
X28975960Y-30174422D01*
X28918007Y-30155593D01*
X28882043Y-30106093D01*
X28877198Y-30075500D01*
X28877198Y-29509400D01*
X28896105Y-29451209D01*
X28945605Y-29415245D01*
X28968248Y-29411658D01*
X28972532Y-29410400D01*
X28972536Y-29410400D01*
X29111732Y-29369529D01*
X29233775Y-29291096D01*
X29328777Y-29181458D01*
X29389042Y-29049496D01*
X29389042Y-29049494D01*
X29389043Y-29049493D01*
X29409688Y-28905900D01*
X29389043Y-28762306D01*
X29328777Y-28630342D01*
X29302485Y-28600000D01*
X29233775Y-28520704D01*
X29140803Y-28460954D01*
X29111731Y-28442270D01*
X28972536Y-28401400D01*
X28904432Y-28401400D01*
X28846241Y-28382493D01*
X28834428Y-28372404D01*
X28394151Y-27932127D01*
X28388317Y-27925759D01*
X28363239Y-27895872D01*
X28347380Y-27886716D01*
X28329439Y-27876358D01*
X28322180Y-27871734D01*
X28290199Y-27849341D01*
X28290198Y-27849340D01*
X28290197Y-27849340D01*
X28288688Y-27848936D01*
X28264814Y-27839046D01*
X28263462Y-27838265D01*
X28225040Y-27831491D01*
X28216608Y-27829622D01*
X28178913Y-27819521D01*
X28140043Y-27822923D01*
X28131413Y-27823300D01*
X26977473Y-27823300D01*
X26919282Y-27804393D01*
X26883318Y-27754893D01*
X26883318Y-27693707D01*
X26902654Y-27659469D01*
X26953199Y-27601137D01*
X26967692Y-27569401D01*
X27013465Y-27469173D01*
X27013465Y-27469171D01*
X27013466Y-27469170D01*
X27034111Y-27325577D01*
X27013466Y-27181983D01*
X26953200Y-27050019D01*
X26951861Y-27048474D01*
X26875303Y-26960121D01*
X26851486Y-26903763D01*
X26851123Y-26895291D01*
X26851123Y-26632043D01*
X26851123Y-26367666D01*
X26870029Y-26309479D01*
X26919529Y-26273515D01*
X26980715Y-26273515D01*
X27009451Y-26288416D01*
X27120018Y-26371186D01*
X27247992Y-26418918D01*
X27301934Y-26424717D01*
X27307209Y-26424999D01*
X27450000Y-26424999D01*
X27450000Y-26424998D01*
X27700000Y-26424998D01*
X27700001Y-26424999D01*
X27842789Y-26424999D01*
X27848067Y-26424716D01*
X27902006Y-26418918D01*
X28029981Y-26371186D01*
X28139329Y-26289329D01*
X28221186Y-26179981D01*
X28268918Y-26052007D01*
X28274717Y-25998065D01*
X28275000Y-25992791D01*
X28275000Y-25825001D01*
X28274999Y-25825000D01*
X27700001Y-25825000D01*
X27700000Y-25825001D01*
X27700000Y-26424998D01*
X27450000Y-26424998D01*
X27450000Y-24975001D01*
X27449999Y-24975000D01*
X27700000Y-24975000D01*
X27700000Y-25574999D01*
X27700001Y-25575000D01*
X28274998Y-25575000D01*
X28274998Y-25574999D01*
X28274999Y-25407211D01*
X28274716Y-25401932D01*
X28268918Y-25347993D01*
X28221186Y-25220018D01*
X28139329Y-25110670D01*
X28029981Y-25028813D01*
X27902007Y-24981081D01*
X27848065Y-24975282D01*
X27842791Y-24975000D01*
X27700000Y-24975000D01*
X27449999Y-24975000D01*
X27307211Y-24975000D01*
X27301931Y-24975283D01*
X27247993Y-24981081D01*
X27120018Y-25028813D01*
X27010670Y-25110670D01*
X26928814Y-25220018D01*
X26893024Y-25315973D01*
X26854972Y-25363887D01*
X26796025Y-25380284D01*
X26738698Y-25358901D01*
X26707509Y-25315973D01*
X26681824Y-25247111D01*
X26671628Y-25219773D01*
X26636547Y-25172912D01*
X26589687Y-25110313D01*
X26509384Y-25050199D01*
X26480226Y-25028371D01*
X26352114Y-24980587D01*
X26298115Y-24974782D01*
X26298101Y-24974781D01*
X26295485Y-24974500D01*
X26292838Y-24974500D01*
X25802532Y-24974500D01*
X25744341Y-24955593D01*
X25732528Y-24945504D01*
X24469145Y-23682121D01*
X24463311Y-23675753D01*
X24447587Y-23657014D01*
X24433372Y-23634504D01*
X24428777Y-23624442D01*
X24333775Y-23514804D01*
X24268819Y-23473059D01*
X24211731Y-23436370D01*
X24072536Y-23395500D01*
X23927464Y-23395500D01*
X23788268Y-23436370D01*
X23666225Y-23514804D01*
X23571222Y-23624442D01*
X23510956Y-23756406D01*
X23490311Y-23900000D01*
X23510956Y-24043593D01*
X23571222Y-24175557D01*
X23571223Y-24175558D01*
X23666225Y-24285196D01*
X23788268Y-24363629D01*
X23927464Y-24404500D01*
X24072535Y-24404500D01*
X24072536Y-24404500D01*
X24166871Y-24376801D01*
X24228027Y-24378548D01*
X24264763Y-24401787D01*
X25295504Y-25432527D01*
X25323281Y-25487044D01*
X25324500Y-25502531D01*
X25324500Y-25992835D01*
X25324500Y-25992853D01*
X25324501Y-25995484D01*
X25324783Y-25998116D01*
X25324784Y-25998117D01*
X25330587Y-26052113D01*
X25378371Y-26180226D01*
X25425232Y-26242825D01*
X25460313Y-26289687D01*
X25498836Y-26318525D01*
X25513275Y-26329334D01*
X25548528Y-26379343D01*
X25547654Y-26440522D01*
X25510987Y-26489503D01*
X25453946Y-26507587D01*
X25026628Y-26507587D01*
X25017998Y-26507210D01*
X24979126Y-26503808D01*
X24941430Y-26513909D01*
X24933000Y-26515778D01*
X24894576Y-26522553D01*
X24893219Y-26523337D01*
X24869352Y-26533223D01*
X24867840Y-26533628D01*
X24835872Y-26556011D01*
X24828594Y-26560648D01*
X24794802Y-26580158D01*
X24769728Y-26610040D01*
X24763895Y-26616406D01*
X24495965Y-26884336D01*
X24441448Y-26912113D01*
X24381016Y-26902542D01*
X24337751Y-26859277D01*
X24334497Y-26852217D01*
X24320434Y-26818267D01*
X24313742Y-26816093D01*
X24277778Y-26766593D01*
X24277778Y-26705407D01*
X24282992Y-26692519D01*
X24319733Y-26617363D01*
X24329999Y-26546899D01*
X24329999Y-26253100D01*
X24319734Y-26182635D01*
X24283420Y-26108356D01*
X23815000Y-26576778D01*
X23537088Y-26854687D01*
X23543128Y-26857640D01*
X23587101Y-26900185D01*
X23597668Y-26960451D01*
X23590210Y-26986568D01*
X23552982Y-27070879D01*
X23550330Y-27093741D01*
X23550000Y-27099455D01*
X23550000Y-27300552D01*
X23550329Y-27306241D01*
X23552983Y-27329123D01*
X23566349Y-27359394D01*
X23572557Y-27420263D01*
X23566350Y-27439367D01*
X23552487Y-27470764D01*
X23549830Y-27493667D01*
X23549829Y-27493676D01*
X23549500Y-27496516D01*
X23549500Y-27703484D01*
X23549829Y-27706324D01*
X23549830Y-27706332D01*
X23552487Y-27729237D01*
X23566076Y-27760014D01*
X23572282Y-27820883D01*
X23566076Y-27839983D01*
X23552488Y-27870760D01*
X23549830Y-27893667D01*
X23549829Y-27893676D01*
X23549500Y-27896516D01*
X23549500Y-28103484D01*
X23549829Y-28106324D01*
X23549830Y-28106332D01*
X23552487Y-28129237D01*
X23566076Y-28160014D01*
X23572282Y-28220883D01*
X23566076Y-28239983D01*
X23552488Y-28270760D01*
X23549830Y-28293667D01*
X23549829Y-28293676D01*
X23549500Y-28296516D01*
X23549500Y-28503484D01*
X23549829Y-28506324D01*
X23549830Y-28506332D01*
X23552487Y-28529237D01*
X23566076Y-28560014D01*
X23572282Y-28620883D01*
X23566076Y-28639983D01*
X23552488Y-28670760D01*
X23549830Y-28693667D01*
X23549829Y-28693676D01*
X23549500Y-28696516D01*
X23549500Y-28903484D01*
X23549829Y-28906324D01*
X23549830Y-28906332D01*
X23552487Y-28929237D01*
X23566076Y-28960014D01*
X23572282Y-29020883D01*
X23566076Y-29039983D01*
X23552488Y-29070760D01*
X23549830Y-29093667D01*
X23549829Y-29093676D01*
X23549500Y-29096516D01*
X23549500Y-29303484D01*
X23549829Y-29306324D01*
X23549830Y-29306332D01*
X23552487Y-29329237D01*
X23566076Y-29360014D01*
X23572282Y-29420883D01*
X23566076Y-29439983D01*
X23552488Y-29470760D01*
X23549830Y-29493667D01*
X23549829Y-29493676D01*
X23549500Y-29496516D01*
X23549500Y-29703484D01*
X23549829Y-29706324D01*
X23549830Y-29706332D01*
X23552488Y-29729237D01*
X23566076Y-29760015D01*
X23572282Y-29820885D01*
X23566076Y-29839985D01*
X23552488Y-29870762D01*
X23549830Y-29893667D01*
X23549829Y-29893676D01*
X23549500Y-29896516D01*
X23549500Y-29899380D01*
X23549500Y-29921640D01*
X23548300Y-29928447D01*
X23548300Y-30071560D01*
X23549500Y-30078362D01*
X23549500Y-30103484D01*
X23549829Y-30106324D01*
X23549830Y-30106332D01*
X23551453Y-30120320D01*
X23552168Y-30126484D01*
X23552488Y-30129237D01*
X23566076Y-30160015D01*
X23572282Y-30220885D01*
X23566076Y-30239985D01*
X23552488Y-30270762D01*
X23549830Y-30293667D01*
X23549829Y-30293676D01*
X23549500Y-30296516D01*
X23549500Y-30299380D01*
X23549500Y-30321640D01*
X23548300Y-30328447D01*
X23548300Y-30471560D01*
X23549500Y-30478362D01*
X23549500Y-30503484D01*
X23549829Y-30506324D01*
X23549830Y-30506332D01*
X23552488Y-30529237D01*
X23566076Y-30560015D01*
X23572282Y-30620885D01*
X23566076Y-30639985D01*
X23552488Y-30670762D01*
X23549830Y-30693667D01*
X23549829Y-30693676D01*
X23549500Y-30696516D01*
X23549500Y-30699380D01*
X23549500Y-30721640D01*
X23548300Y-30728447D01*
X23548300Y-30871560D01*
X23549500Y-30878362D01*
X23549500Y-30903484D01*
X23549829Y-30906324D01*
X23549830Y-30906332D01*
X23552488Y-30929237D01*
X23566076Y-30960015D01*
X23572282Y-31020885D01*
X23566076Y-31039985D01*
X23552488Y-31070762D01*
X23549830Y-31093667D01*
X23549829Y-31093676D01*
X23549500Y-31096516D01*
X23549500Y-31099380D01*
X23549500Y-31121640D01*
X23548300Y-31128447D01*
X23548300Y-31271560D01*
X23549500Y-31278362D01*
X23549500Y-31303484D01*
X23549829Y-31306324D01*
X23549830Y-31306332D01*
X23552488Y-31329237D01*
X23566076Y-31360015D01*
X23572282Y-31420885D01*
X23566076Y-31439985D01*
X23552488Y-31470762D01*
X23549830Y-31493667D01*
X23549829Y-31493676D01*
X23549500Y-31496516D01*
X23549500Y-31499380D01*
X23549500Y-31521640D01*
X23548300Y-31528447D01*
X23548300Y-31671560D01*
X23549500Y-31678362D01*
X23549500Y-31703484D01*
X23549829Y-31706324D01*
X23549830Y-31706332D01*
X23551672Y-31722207D01*
X23552488Y-31729238D01*
X23557602Y-31740822D01*
X23566076Y-31760015D01*
X23572282Y-31820885D01*
X23566076Y-31839985D01*
X23552488Y-31870762D01*
X23549830Y-31893667D01*
X23549829Y-31893676D01*
X23549500Y-31896516D01*
X23549500Y-31899380D01*
X23549500Y-31921640D01*
X23548300Y-31928447D01*
X23548300Y-32071560D01*
X23549500Y-32078362D01*
X23549500Y-32103484D01*
X23549829Y-32106324D01*
X23549830Y-32106332D01*
X23552488Y-32129237D01*
X23566076Y-32160015D01*
X23572282Y-32220885D01*
X23566076Y-32239985D01*
X23552488Y-32270762D01*
X23549830Y-32293667D01*
X23549829Y-32293676D01*
X23549500Y-32296516D01*
X23549500Y-32503484D01*
X23549829Y-32506322D01*
X23549830Y-32506334D01*
X23552487Y-32529237D01*
X23566349Y-32560631D01*
X23572557Y-32621500D01*
X23566350Y-32640604D01*
X23552982Y-32670879D01*
X23550330Y-32693741D01*
X23550000Y-32699455D01*
X23550000Y-32900552D01*
X23550329Y-32906241D01*
X23552983Y-32929121D01*
X23590209Y-33013430D01*
X23596417Y-33074299D01*
X23565661Y-33127193D01*
X23543125Y-33142358D01*
X23537088Y-33145309D01*
X23537088Y-33145311D01*
X23815000Y-33423224D01*
X23921773Y-33529996D01*
X23949550Y-33584513D01*
X23939979Y-33644945D01*
X23921773Y-33670004D01*
X23537088Y-34054688D01*
X23557634Y-34064733D01*
X23628100Y-34074999D01*
X23958635Y-34074999D01*
X24016826Y-34093906D01*
X24048689Y-34132873D01*
X24083850Y-34209867D01*
X24083851Y-34209868D01*
X24178853Y-34319506D01*
X24300896Y-34397939D01*
X24440092Y-34438810D01*
X24585164Y-34438810D01*
X24724360Y-34397939D01*
X24846403Y-34319506D01*
X24874761Y-34286778D01*
X24927157Y-34255183D01*
X24988118Y-34260419D01*
X25019579Y-34281602D01*
X25068080Y-34330103D01*
X25095856Y-34384618D01*
X25096067Y-34386016D01*
X25103234Y-34435865D01*
X25103234Y-34435866D01*
X25103235Y-34435868D01*
X25109689Y-34450000D01*
X25163499Y-34567829D01*
X25163500Y-34567830D01*
X25258502Y-34677468D01*
X25380545Y-34755901D01*
X25519741Y-34796772D01*
X25664813Y-34796772D01*
X25759032Y-34769107D01*
X25820192Y-34770854D01*
X25868645Y-34808217D01*
X25885546Y-34855467D01*
X25890323Y-34910056D01*
X25890700Y-34918686D01*
X25890700Y-34975216D01*
X25871793Y-35033407D01*
X25861704Y-35045220D01*
X25680020Y-35226904D01*
X25625503Y-35254681D01*
X25610016Y-35255900D01*
X23676432Y-35255900D01*
X23618241Y-35236993D01*
X23606428Y-35226904D01*
X22623527Y-34244003D01*
X22595750Y-34189486D01*
X22605321Y-34129054D01*
X22648586Y-34085789D01*
X22693531Y-34074999D01*
X22871899Y-34074999D01*
X22942364Y-34064733D01*
X22962910Y-34054688D01*
X22578226Y-33670004D01*
X22550449Y-33615487D01*
X22552902Y-33599999D01*
X22861776Y-33599999D01*
X23153420Y-33891642D01*
X23161059Y-33876017D01*
X23203602Y-33832043D01*
X23263868Y-33821474D01*
X23318836Y-33848347D01*
X23338939Y-33876016D01*
X23346578Y-33891642D01*
X23638222Y-33599999D01*
X23346579Y-33308356D01*
X23346577Y-33308356D01*
X23338939Y-33323981D01*
X23296396Y-33367955D01*
X23236130Y-33378524D01*
X23181162Y-33351651D01*
X23161059Y-33323981D01*
X23153420Y-33308356D01*
X23153419Y-33308356D01*
X22861776Y-33599999D01*
X22552902Y-33599999D01*
X22560020Y-33555055D01*
X22578227Y-33529996D01*
X22685001Y-33423223D01*
X22962910Y-33145311D01*
X22956873Y-33142360D01*
X22912899Y-33099816D01*
X22902330Y-33039550D01*
X22909790Y-33013430D01*
X22947017Y-32929121D01*
X22949669Y-32906258D01*
X22949999Y-32900544D01*
X22949999Y-32699447D01*
X22949670Y-32693758D01*
X22947016Y-32670879D01*
X22933650Y-32640608D01*
X22927441Y-32579739D01*
X22933646Y-32560640D01*
X22947512Y-32529238D01*
X22950500Y-32503484D01*
X22950500Y-32296516D01*
X22947512Y-32270762D01*
X22933923Y-32239987D01*
X22927715Y-32179119D01*
X22933923Y-32160014D01*
X22947512Y-32129238D01*
X22950500Y-32103484D01*
X22950500Y-31896516D01*
X22947512Y-31870762D01*
X22933923Y-31839987D01*
X22927715Y-31779119D01*
X22933923Y-31760014D01*
X22947512Y-31729238D01*
X22950500Y-31703484D01*
X22950500Y-31496516D01*
X22947512Y-31470762D01*
X22933923Y-31439987D01*
X22927715Y-31379119D01*
X22933923Y-31360014D01*
X22947512Y-31329238D01*
X22950500Y-31303484D01*
X22950500Y-31096516D01*
X22947512Y-31070762D01*
X22933923Y-31039987D01*
X22927715Y-30979119D01*
X22933923Y-30960014D01*
X22947512Y-30929238D01*
X22950500Y-30903484D01*
X22950500Y-30696516D01*
X22947512Y-30670762D01*
X22933923Y-30639987D01*
X22927715Y-30579119D01*
X22933923Y-30560014D01*
X22947512Y-30529238D01*
X22950500Y-30503484D01*
X22950500Y-30296516D01*
X22947512Y-30270762D01*
X22933923Y-30239987D01*
X22927715Y-30179119D01*
X22933923Y-30160014D01*
X22947512Y-30129238D01*
X22950500Y-30103484D01*
X22950500Y-29896516D01*
X22947512Y-29870762D01*
X22933923Y-29839987D01*
X22927715Y-29779119D01*
X22933923Y-29760014D01*
X22947512Y-29729238D01*
X22950500Y-29703484D01*
X22950500Y-29496516D01*
X22947512Y-29470762D01*
X22933923Y-29439987D01*
X22927715Y-29379119D01*
X22933924Y-29360012D01*
X22947512Y-29329238D01*
X22950500Y-29303484D01*
X22950500Y-29096516D01*
X22947512Y-29070762D01*
X22933923Y-29039987D01*
X22927715Y-28979119D01*
X22933924Y-28960012D01*
X22947512Y-28929238D01*
X22950500Y-28903484D01*
X22950500Y-28696516D01*
X22947512Y-28670762D01*
X22933923Y-28639987D01*
X22927715Y-28579119D01*
X22933924Y-28560012D01*
X22947512Y-28529238D01*
X22950500Y-28503484D01*
X22950500Y-28296516D01*
X22947512Y-28270762D01*
X22933923Y-28239987D01*
X22927715Y-28179119D01*
X22933923Y-28160014D01*
X22947512Y-28129238D01*
X22950500Y-28103484D01*
X22950500Y-27896516D01*
X22947512Y-27870762D01*
X22933923Y-27839987D01*
X22927715Y-27779119D01*
X22933923Y-27760014D01*
X22947512Y-27729238D01*
X22950500Y-27703484D01*
X22950500Y-27496516D01*
X22947512Y-27470762D01*
X22933649Y-27439366D01*
X22927442Y-27378498D01*
X22933651Y-27359390D01*
X22947017Y-27329119D01*
X22949669Y-27306258D01*
X22949999Y-27300544D01*
X22949999Y-27099447D01*
X22949670Y-27093758D01*
X22947016Y-27070877D01*
X22909790Y-26986568D01*
X22903581Y-26925698D01*
X22934337Y-26872804D01*
X22956872Y-26857639D01*
X22962910Y-26854686D01*
X22508223Y-26399999D01*
X22861776Y-26399999D01*
X23153420Y-26691642D01*
X23161059Y-26676017D01*
X23203602Y-26632043D01*
X23263868Y-26621474D01*
X23318836Y-26648347D01*
X23338939Y-26676016D01*
X23346578Y-26691642D01*
X23638222Y-26399999D01*
X23346579Y-26108356D01*
X23346577Y-26108356D01*
X23338939Y-26123981D01*
X23296396Y-26167955D01*
X23236130Y-26178524D01*
X23181162Y-26151651D01*
X23161059Y-26123981D01*
X23153420Y-26108356D01*
X23153419Y-26108356D01*
X22861776Y-26399999D01*
X22508223Y-26399999D01*
X22216579Y-26108355D01*
X22216578Y-26108356D01*
X22180265Y-26182637D01*
X22176615Y-26207689D01*
X22149515Y-26262545D01*
X22095347Y-26290996D01*
X22050759Y-26288404D01*
X21904636Y-26245500D01*
X21775700Y-26245500D01*
X21717509Y-26226593D01*
X21681545Y-26177093D01*
X21676700Y-26146500D01*
X21676700Y-25945311D01*
X22407088Y-25945311D01*
X22684998Y-26223222D01*
X22962909Y-25945311D01*
X22962907Y-25945310D01*
X23537088Y-25945310D01*
X23815000Y-26223222D01*
X24092910Y-25945311D01*
X24072362Y-25935266D01*
X24001899Y-25925000D01*
X23628100Y-25925000D01*
X23557635Y-25935265D01*
X23537088Y-25945310D01*
X22962907Y-25945310D01*
X22942362Y-25935266D01*
X22871899Y-25925000D01*
X22498100Y-25925000D01*
X22427635Y-25935265D01*
X22407088Y-25945310D01*
X22407088Y-25945311D01*
X21676700Y-25945311D01*
X21676700Y-25676329D01*
X21695607Y-25618138D01*
X21705690Y-25606332D01*
X22046705Y-25265316D01*
X22101220Y-25237540D01*
X22161652Y-25247111D01*
X22170228Y-25252035D01*
X22188268Y-25263629D01*
X22327464Y-25304500D01*
X22472536Y-25304500D01*
X22611732Y-25263629D01*
X22733775Y-25185196D01*
X22828777Y-25075558D01*
X22889042Y-24943596D01*
X22889042Y-24943594D01*
X22889043Y-24943593D01*
X22909688Y-24800000D01*
X22889043Y-24656406D01*
X22828777Y-24524442D01*
X22803753Y-24495563D01*
X22733775Y-24414804D01*
X22646003Y-24358396D01*
X22611731Y-24336370D01*
X22472536Y-24295500D01*
X22327464Y-24295500D01*
X22188268Y-24336370D01*
X22066224Y-24414804D01*
X22037998Y-24447378D01*
X21988808Y-24478170D01*
X21983405Y-24479618D01*
X21974969Y-24481489D01*
X21936534Y-24488266D01*
X21935177Y-24489050D01*
X21911317Y-24498933D01*
X21909803Y-24499338D01*
X21877831Y-24521725D01*
X21870551Y-24526362D01*
X21836761Y-24545871D01*
X21811682Y-24575759D01*
X21805849Y-24582126D01*
X21132119Y-25255855D01*
X21125753Y-25261688D01*
X21095871Y-25286762D01*
X21076361Y-25320554D01*
X21071724Y-25327832D01*
X21049341Y-25359800D01*
X21048936Y-25361312D01*
X21039050Y-25385179D01*
X21038266Y-25386536D01*
X21031490Y-25424962D01*
X21029621Y-25433390D01*
X21019521Y-25471084D01*
X21022923Y-25509956D01*
X21023300Y-25518586D01*
X21023300Y-27510012D01*
X21022923Y-27518642D01*
X21019521Y-27557512D01*
X21029622Y-27595208D01*
X21031491Y-27603640D01*
X21038265Y-27642062D01*
X21039046Y-27643414D01*
X21048936Y-27667288D01*
X21049341Y-27668799D01*
X21071734Y-27700780D01*
X21076358Y-27708039D01*
X21086716Y-27725980D01*
X21095872Y-27741839D01*
X21125759Y-27766917D01*
X21132127Y-27772751D01*
X21577253Y-28217877D01*
X21583077Y-28224233D01*
X21596293Y-28239983D01*
X21608163Y-28254129D01*
X21641950Y-28273636D01*
X21649217Y-28278264D01*
X21681200Y-28300659D01*
X21682418Y-28300985D01*
X21682704Y-28301062D01*
X21706588Y-28310955D01*
X21707435Y-28311443D01*
X21707938Y-28311734D01*
X21717689Y-28313453D01*
X21771712Y-28342175D01*
X21798536Y-28397167D01*
X21799500Y-28410949D01*
X21799500Y-28503484D01*
X21799829Y-28506324D01*
X21799830Y-28506332D01*
X21802487Y-28529236D01*
X21802488Y-28529238D01*
X21816076Y-28560013D01*
X21822284Y-28620882D01*
X21816077Y-28639985D01*
X21802487Y-28670763D01*
X21799830Y-28693667D01*
X21799829Y-28693676D01*
X21799500Y-28696516D01*
X21799500Y-28903484D01*
X21799829Y-28906324D01*
X21799830Y-28906332D01*
X21802487Y-28929236D01*
X21802488Y-28929238D01*
X21816076Y-28960013D01*
X21822284Y-29020882D01*
X21816077Y-29039982D01*
X21811879Y-29049493D01*
X21802487Y-29070763D01*
X21799830Y-29093667D01*
X21799829Y-29093676D01*
X21799500Y-29096516D01*
X21799500Y-29303484D01*
X21799829Y-29306324D01*
X21799830Y-29306332D01*
X21802487Y-29329236D01*
X21802488Y-29329238D01*
X21816076Y-29360013D01*
X21822284Y-29420882D01*
X21816077Y-29439982D01*
X21816075Y-29439989D01*
X21802487Y-29470763D01*
X21799830Y-29493667D01*
X21799829Y-29493676D01*
X21799500Y-29496516D01*
X21799500Y-29703484D01*
X21799829Y-29706324D01*
X21799830Y-29706332D01*
X21802488Y-29729237D01*
X21816076Y-29760015D01*
X21822282Y-29820885D01*
X21816076Y-29839985D01*
X21802488Y-29870762D01*
X21799830Y-29893667D01*
X21799829Y-29893676D01*
X21799500Y-29896516D01*
X21799500Y-29899380D01*
X21799500Y-29974300D01*
X21780593Y-30032491D01*
X21731093Y-30068455D01*
X21700500Y-30073300D01*
X21465029Y-30073300D01*
X21456401Y-30072923D01*
X21453709Y-30072687D01*
X21417535Y-30069522D01*
X21379852Y-30079619D01*
X21371424Y-30081488D01*
X21332985Y-30088266D01*
X21331628Y-30089050D01*
X21307768Y-30098933D01*
X21306254Y-30099338D01*
X21274282Y-30121725D01*
X21267002Y-30126362D01*
X21233213Y-30145870D01*
X21208123Y-30175771D01*
X21202292Y-30182134D01*
X21188076Y-30196351D01*
X21133560Y-30224131D01*
X21118070Y-30225350D01*
X21044065Y-30225350D01*
X20904869Y-30266220D01*
X20782826Y-30344654D01*
X20687823Y-30454292D01*
X20627557Y-30586256D01*
X20606912Y-30729849D01*
X20627557Y-30873443D01*
X20687823Y-31005407D01*
X20687824Y-31005408D01*
X20782826Y-31115046D01*
X20782827Y-31115047D01*
X20792147Y-31125802D01*
X20791599Y-31126276D01*
X20820691Y-31161853D01*
X20824185Y-31222939D01*
X20798441Y-31267776D01*
X20550504Y-31515714D01*
X20495987Y-31543492D01*
X20435555Y-31533921D01*
X20392290Y-31490656D01*
X20381500Y-31445711D01*
X20381500Y-22106834D01*
X20847100Y-22106834D01*
X20886359Y-22316854D01*
X20963546Y-22516095D01*
X21072334Y-22691793D01*
X21076025Y-22697754D01*
X21219969Y-22855653D01*
X21390476Y-22984415D01*
X21581740Y-23079653D01*
X21787248Y-23138125D01*
X21946699Y-23152900D01*
X21948995Y-23152900D01*
X22051005Y-23152900D01*
X22053301Y-23152900D01*
X22212752Y-23138125D01*
X22418260Y-23079653D01*
X22609524Y-22984415D01*
X22780031Y-22855653D01*
X22923975Y-22697754D01*
X23036455Y-22516093D01*
X23113639Y-22316858D01*
X23152900Y-22106834D01*
X36847100Y-22106834D01*
X36886359Y-22316854D01*
X36963546Y-22516095D01*
X37072334Y-22691793D01*
X37076025Y-22697754D01*
X37219969Y-22855653D01*
X37390476Y-22984415D01*
X37581740Y-23079653D01*
X37787248Y-23138125D01*
X37946699Y-23152900D01*
X37948995Y-23152900D01*
X38051005Y-23152900D01*
X38053301Y-23152900D01*
X38212752Y-23138125D01*
X38418260Y-23079653D01*
X38609524Y-22984415D01*
X38780031Y-22855653D01*
X38923975Y-22697754D01*
X39036455Y-22516093D01*
X39113639Y-22316858D01*
X39152900Y-22106832D01*
X39152900Y-21893168D01*
X39152900Y-21893167D01*
X39152900Y-21893165D01*
X39113640Y-21683145D01*
X39113639Y-21683142D01*
X39036455Y-21483907D01*
X38923975Y-21302246D01*
X38780031Y-21144347D01*
X38609524Y-21015585D01*
X38609522Y-21015584D01*
X38609521Y-21015583D01*
X38418262Y-20920348D01*
X38418260Y-20920347D01*
X38212752Y-20861875D01*
X38180671Y-20858902D01*
X38055582Y-20847311D01*
X38055574Y-20847310D01*
X38053301Y-20847100D01*
X37946699Y-20847100D01*
X37944426Y-20847310D01*
X37944417Y-20847311D01*
X37787248Y-20861874D01*
X37787248Y-20861875D01*
X37581740Y-20920347D01*
X37581739Y-20920347D01*
X37581737Y-20920348D01*
X37390478Y-21015583D01*
X37219968Y-21144347D01*
X37076023Y-21302248D01*
X36963546Y-21483904D01*
X36886359Y-21683145D01*
X36847100Y-21893165D01*
X36847100Y-22106834D01*
X23152900Y-22106834D01*
X23152900Y-22106832D01*
X23152900Y-21893168D01*
X23152900Y-21893165D01*
X23113640Y-21683145D01*
X23113639Y-21683142D01*
X23036455Y-21483907D01*
X22923975Y-21302246D01*
X22780031Y-21144347D01*
X22609524Y-21015585D01*
X22609522Y-21015584D01*
X22609521Y-21015583D01*
X22418262Y-20920348D01*
X22418260Y-20920347D01*
X22212752Y-20861875D01*
X22180671Y-20858902D01*
X22055582Y-20847311D01*
X22055574Y-20847310D01*
X22053301Y-20847100D01*
X21946699Y-20847100D01*
X21944426Y-20847310D01*
X21944417Y-20847311D01*
X21787247Y-20861874D01*
X21787248Y-20861875D01*
X21581740Y-20920347D01*
X21581739Y-20920347D01*
X21581737Y-20920348D01*
X21390478Y-21015583D01*
X21219968Y-21144347D01*
X21076023Y-21302248D01*
X20963546Y-21483904D01*
X20886359Y-21683145D01*
X20847100Y-21893165D01*
X20847100Y-22106834D01*
X20381500Y-22106834D01*
X20381500Y-21005551D01*
X20382123Y-20994466D01*
X20382163Y-20994114D01*
X20395759Y-20873444D01*
X20400688Y-20851849D01*
X20439069Y-20742164D01*
X20448685Y-20722198D01*
X20477471Y-20676386D01*
X20510505Y-20623813D01*
X20524320Y-20606488D01*
X20606488Y-20524320D01*
X20623813Y-20510505D01*
X20722201Y-20448683D01*
X20742164Y-20439069D01*
X20851851Y-20400687D01*
X20873436Y-20395760D01*
X20994542Y-20382114D01*
X21005618Y-20381493D01*
X21066369Y-20381493D01*
X21066373Y-20381491D01*
X38994515Y-20381373D01*
X39005611Y-20381997D01*
G37*
%TD.AperFunction*%
%TA.AperFunction,Conductor*%
G36*
X24314330Y-26944777D02*
G01*
X24357594Y-26988042D01*
X24367166Y-27048474D01*
X24366881Y-27050180D01*
X24360090Y-27088689D01*
X24358221Y-27097117D01*
X24353267Y-27115607D01*
X24327645Y-27159988D01*
X24282133Y-27205502D01*
X24227617Y-27233281D01*
X24212128Y-27234500D01*
X24166873Y-27234500D01*
X24108682Y-27215593D01*
X24072718Y-27166093D01*
X24072718Y-27104907D01*
X24096869Y-27065497D01*
X24199381Y-26962984D01*
X24253898Y-26935206D01*
X24314330Y-26944777D01*
G37*
%TD.AperFunction*%
%TD*%
M02*
