%TF.GenerationSoftware,KiCad,Pcbnew,7.0.2*%
%TF.CreationDate,2023-09-13T14:25:54-04:00*%
%TF.ProjectId,PicoMod,5069636f-4d6f-4642-9e6b-696361645f70,rev?*%
%TF.SameCoordinates,Original*%
%TF.FileFunction,Paste,Top*%
%TF.FilePolarity,Positive*%
%FSLAX46Y46*%
G04 Gerber Fmt 4.6, Leading zero omitted, Abs format (unit mm)*
G04 Created by KiCad (PCBNEW 7.0.2) date 2023-09-13 14:25:54*
%MOMM*%
%LPD*%
G01*
G04 APERTURE LIST*
G04 Aperture macros list*
%AMRoundRect*
0 Rectangle with rounded corners*
0 $1 Rounding radius*
0 $2 $3 $4 $5 $6 $7 $8 $9 X,Y pos of 4 corners*
0 Add a 4 corners polygon primitive as box body*
4,1,4,$2,$3,$4,$5,$6,$7,$8,$9,$2,$3,0*
0 Add four circle primitives for the rounded corners*
1,1,$1+$1,$2,$3*
1,1,$1+$1,$4,$5*
1,1,$1+$1,$6,$7*
1,1,$1+$1,$8,$9*
0 Add four rect primitives between the rounded corners*
20,1,$1+$1,$2,$3,$4,$5,0*
20,1,$1+$1,$4,$5,$6,$7,0*
20,1,$1+$1,$6,$7,$8,$9,0*
20,1,$1+$1,$8,$9,$2,$3,0*%
%AMRotRect*
0 Rectangle, with rotation*
0 The origin of the aperture is its center*
0 $1 length*
0 $2 width*
0 $3 Rotation angle, in degrees counterclockwise*
0 Add horizontal line*
21,1,$1,$2,0,0,$3*%
%AMFreePoly0*
4,1,6,0.130000,0.115000,0.130000,-0.115000,-0.130000,-0.115000,-0.130000,0.275000,-0.020000,0.275000,0.130000,0.115000,0.130000,0.115000,$1*%
%AMFreePoly1*
4,1,6,0.130000,-0.115000,-0.130000,-0.115000,-0.130000,0.115000,0.020000,0.275000,0.130000,0.275000,0.130000,-0.115000,0.130000,-0.115000,$1*%
G04 Aperture macros list end*
%ADD10C,0.010000*%
%ADD11RoundRect,0.225000X-0.225000X-0.250000X0.225000X-0.250000X0.225000X0.250000X-0.225000X0.250000X0*%
%ADD12RoundRect,0.135000X-0.135000X-0.185000X0.135000X-0.185000X0.135000X0.185000X-0.135000X0.185000X0*%
%ADD13RoundRect,0.135000X0.185000X-0.135000X0.185000X0.135000X-0.185000X0.135000X-0.185000X-0.135000X0*%
%ADD14RoundRect,0.200000X0.200000X0.275000X-0.200000X0.275000X-0.200000X-0.275000X0.200000X-0.275000X0*%
%ADD15RoundRect,0.225000X0.225000X0.250000X-0.225000X0.250000X-0.225000X-0.250000X0.225000X-0.250000X0*%
%ADD16R,0.700000X0.700000*%
%ADD17RoundRect,0.225000X0.250000X-0.225000X0.250000X0.225000X-0.250000X0.225000X-0.250000X-0.225000X0*%
%ADD18RoundRect,0.012800X0.147200X-0.517200X0.147200X0.517200X-0.147200X0.517200X-0.147200X-0.517200X0*%
%ADD19RoundRect,0.225000X-0.250000X0.225000X-0.250000X-0.225000X0.250000X-0.225000X0.250000X0.225000X0*%
%ADD20RoundRect,0.218750X0.256250X-0.218750X0.256250X0.218750X-0.256250X0.218750X-0.256250X-0.218750X0*%
%ADD21RoundRect,0.218750X0.218750X0.256250X-0.218750X0.256250X-0.218750X-0.256250X0.218750X-0.256250X0*%
%ADD22R,1.400000X1.150000*%
%ADD23RoundRect,0.006000X-0.414000X-0.094000X0.414000X-0.094000X0.414000X0.094000X-0.414000X0.094000X0*%
%ADD24RoundRect,0.020000X-0.080000X-0.400000X0.080000X-0.400000X0.080000X0.400000X-0.080000X0.400000X0*%
%ADD25RoundRect,0.218750X-0.218750X-0.256250X0.218750X-0.256250X0.218750X0.256250X-0.218750X0.256250X0*%
%ADD26RoundRect,0.135000X-0.185000X0.135000X-0.185000X-0.135000X0.185000X-0.135000X0.185000X0.135000X0*%
%ADD27FreePoly0,0.000000*%
%ADD28FreePoly1,0.000000*%
%ADD29FreePoly0,180.000000*%
%ADD30FreePoly1,180.000000*%
%ADD31RotRect,0.520000X0.520000X225.000000*%
G04 APERTURE END LIST*
%TO.C,U2*%
D10*
X25450000Y-23160000D02*
X24950000Y-23160000D01*
X24950000Y-23040000D01*
X25450000Y-23040000D01*
X25450000Y-23160000D01*
G36*
X25450000Y-23160000D02*
G01*
X24950000Y-23160000D01*
X24950000Y-23040000D01*
X25450000Y-23040000D01*
X25450000Y-23160000D01*
G37*
X27050000Y-23160000D02*
X26550000Y-23160000D01*
X26550000Y-23040000D01*
X27050000Y-23040000D01*
X27050000Y-23160000D01*
G36*
X27050000Y-23160000D02*
G01*
X26550000Y-23160000D01*
X26550000Y-23040000D01*
X27050000Y-23040000D01*
X27050000Y-23160000D01*
G37*
%TO.C,U1*%
X30980000Y-31980000D02*
X29020000Y-31980000D01*
X29020000Y-30020000D01*
X30980000Y-30020000D01*
X30980000Y-31980000D01*
G36*
X30980000Y-31980000D02*
G01*
X29020000Y-31980000D01*
X29020000Y-30020000D01*
X30980000Y-30020000D01*
X30980000Y-31980000D01*
G37*
%TD*%
D11*
%TO.C,C3*%
X35225000Y-32000000D03*
X36775000Y-32000000D03*
%TD*%
D12*
%TO.C,R3*%
X24040000Y-25750000D03*
X25060000Y-25750000D03*
%TD*%
D11*
%TO.C,C15*%
X21725000Y-34600000D03*
X23275000Y-34600000D03*
%TD*%
D13*
%TO.C,R8*%
X39200000Y-37810000D03*
X39200000Y-36790000D03*
%TD*%
D11*
%TO.C,C4*%
X36725000Y-26100000D03*
X38275000Y-26100000D03*
%TD*%
D12*
%TO.C,R10*%
X22460000Y-30690000D03*
X23480000Y-30690000D03*
%TD*%
D14*
%TO.C,R11*%
X38350000Y-29150000D03*
X36700000Y-29150000D03*
%TD*%
D15*
%TO.C,C12*%
X24025000Y-32000000D03*
X22475000Y-32000000D03*
%TD*%
D16*
%TO.C,D2*%
X23785000Y-35950000D03*
X23785000Y-37050000D03*
X25615000Y-37050000D03*
X25615000Y-35950000D03*
%TD*%
D17*
%TO.C,C2*%
X33300000Y-24175000D03*
X33300000Y-22625000D03*
%TD*%
D11*
%TO.C,C5*%
X36725000Y-27600000D03*
X38275000Y-27600000D03*
%TD*%
D18*
%TO.C,U2*%
X24800000Y-24435000D03*
X25600000Y-24435000D03*
X26400000Y-24435000D03*
X27200000Y-24435000D03*
X27200000Y-21765000D03*
X26400000Y-21765000D03*
X25600000Y-21765000D03*
X24800000Y-21765000D03*
%TD*%
D14*
%TO.C,R4*%
X22925000Y-25800000D03*
X21275000Y-25800000D03*
%TD*%
D19*
%TO.C,C14*%
X33200000Y-37125000D03*
X33200000Y-38675000D03*
%TD*%
D11*
%TO.C,C11*%
X36725000Y-24600000D03*
X38275000Y-24600000D03*
%TD*%
%TO.C,C16*%
X21725000Y-38365000D03*
X23275000Y-38365000D03*
%TD*%
D20*
%TO.C,D1*%
X37800000Y-38587500D03*
X37800000Y-37012500D03*
%TD*%
D21*
%TO.C,D3*%
X38887500Y-34300000D03*
X37312500Y-34300000D03*
%TD*%
D22*
%TO.C,Y1*%
X28900000Y-38700000D03*
X31100000Y-38700000D03*
X31100000Y-37100000D03*
X28900000Y-37100000D03*
%TD*%
D12*
%TO.C,R9*%
X38140000Y-35500000D03*
X39160000Y-35500000D03*
%TD*%
D19*
%TO.C,C10*%
X36100000Y-37125000D03*
X36100000Y-38675000D03*
%TD*%
%TO.C,C13*%
X26800000Y-37125000D03*
X26800000Y-38675000D03*
%TD*%
D23*
%TO.C,U1*%
X26565000Y-28400000D03*
X26565000Y-28800000D03*
X26565000Y-29200000D03*
X26565000Y-29600000D03*
X26565000Y-30000000D03*
X26565000Y-30400000D03*
X26565000Y-30800000D03*
X26565000Y-31200000D03*
X26565000Y-31600000D03*
X26565000Y-32000000D03*
X26565000Y-32400000D03*
X26565000Y-32800000D03*
X26565000Y-33200000D03*
X26565000Y-33600000D03*
D24*
X27400000Y-34435000D03*
X27800000Y-34435000D03*
X28200000Y-34435000D03*
X28600000Y-34435000D03*
X29000000Y-34435000D03*
X29400000Y-34435000D03*
X29800000Y-34435000D03*
X30200000Y-34435000D03*
X30600000Y-34435000D03*
X31000000Y-34435000D03*
X31400000Y-34435000D03*
X31800000Y-34435000D03*
X32200000Y-34435000D03*
X32600000Y-34435000D03*
D23*
X33435000Y-33600000D03*
X33435000Y-33200000D03*
X33435000Y-32800000D03*
X33435000Y-32400000D03*
X33435000Y-32000000D03*
X33435000Y-31600000D03*
X33435000Y-31200000D03*
X33435000Y-30800000D03*
X33435000Y-30400000D03*
X33435000Y-30000000D03*
X33435000Y-29600000D03*
X33435000Y-29200000D03*
X33435000Y-28800000D03*
X33435000Y-28400000D03*
D24*
X32600000Y-27565000D03*
X32200000Y-27565000D03*
X31800000Y-27565000D03*
X31400000Y-27565000D03*
X31000000Y-27565000D03*
X30600000Y-27565000D03*
X30200000Y-27565000D03*
X29800000Y-27565000D03*
X29400000Y-27565000D03*
X29000000Y-27565000D03*
X28600000Y-27565000D03*
X28200000Y-27565000D03*
X27800000Y-27565000D03*
X27400000Y-27565000D03*
%TD*%
D17*
%TO.C,C1*%
X31800000Y-24175000D03*
X31800000Y-22625000D03*
%TD*%
D25*
%TO.C,D4*%
X22462500Y-29350000D03*
X24037500Y-29350000D03*
%TD*%
D17*
%TO.C,C8*%
X34800000Y-24175000D03*
X34800000Y-22625000D03*
%TD*%
D26*
%TO.C,R5*%
X34700000Y-36790000D03*
X34700000Y-37810000D03*
%TD*%
D17*
%TO.C,C9*%
X30300000Y-24175000D03*
X30300000Y-22625000D03*
%TD*%
D27*
%TO.C,U3*%
X21600000Y-36985000D03*
D28*
X22250000Y-36985000D03*
D29*
X22250000Y-36015000D03*
D30*
X21600000Y-36015000D03*
D31*
X21925000Y-36500000D03*
%TD*%
M02*
