%TF.GenerationSoftware,KiCad,Pcbnew,7.0.2*%
%TF.CreationDate,2023-09-13T14:25:54-04:00*%
%TF.ProjectId,PicoMod,5069636f-4d6f-4642-9e6b-696361645f70,rev?*%
%TF.SameCoordinates,Original*%
%TF.FileFunction,Paste,Bot*%
%TF.FilePolarity,Positive*%
%FSLAX46Y46*%
G04 Gerber Fmt 4.6, Leading zero omitted, Abs format (unit mm)*
G04 Created by KiCad (PCBNEW 7.0.2) date 2023-09-13 14:25:54*
%MOMM*%
%LPD*%
G01*
G04 APERTURE LIST*
G04 Aperture macros list*
%AMRoundRect*
0 Rectangle with rounded corners*
0 $1 Rounding radius*
0 $2 $3 $4 $5 $6 $7 $8 $9 X,Y pos of 4 corners*
0 Add a 4 corners polygon primitive as box body*
4,1,4,$2,$3,$4,$5,$6,$7,$8,$9,$2,$3,0*
0 Add four circle primitives for the rounded corners*
1,1,$1+$1,$2,$3*
1,1,$1+$1,$4,$5*
1,1,$1+$1,$6,$7*
1,1,$1+$1,$8,$9*
0 Add four rect primitives between the rounded corners*
20,1,$1+$1,$2,$3,$4,$5,0*
20,1,$1+$1,$4,$5,$6,$7,0*
20,1,$1+$1,$6,$7,$8,$9,0*
20,1,$1+$1,$8,$9,$2,$3,0*%
G04 Aperture macros list end*
%ADD10R,0.800000X1.600000*%
%ADD11RoundRect,0.200000X-0.200000X-0.275000X0.200000X-0.275000X0.200000X0.275000X-0.200000X0.275000X0*%
%ADD12RoundRect,0.135000X-0.135000X-0.185000X0.135000X-0.185000X0.135000X0.185000X-0.135000X0.185000X0*%
%ADD13RoundRect,0.057500X0.267500X-0.057500X0.267500X0.057500X-0.267500X0.057500X-0.267500X-0.057500X0*%
%ADD14RoundRect,0.112500X0.152500X-0.112500X0.152500X0.112500X-0.152500X0.112500X-0.152500X-0.112500X0*%
%ADD15RoundRect,0.225000X-0.250000X0.225000X-0.250000X-0.225000X0.250000X-0.225000X0.250000X0.225000X0*%
%ADD16RoundRect,0.225000X-0.225000X-0.250000X0.225000X-0.250000X0.225000X0.250000X-0.225000X0.250000X0*%
G04 APERTURE END LIST*
D10*
%TO.C,TP1*%
X30150000Y-38550000D03*
%TD*%
D11*
%TO.C,R6*%
X27075000Y-30900000D03*
X28725000Y-30900000D03*
%TD*%
D12*
%TO.C,R2*%
X33040000Y-23350000D03*
X34060000Y-23350000D03*
%TD*%
D13*
%TO.C,J3*%
X24125000Y-32800000D03*
X24125000Y-32400000D03*
X24125000Y-32000000D03*
X24125000Y-31600000D03*
X24125000Y-31200000D03*
X24125000Y-30800000D03*
X24125000Y-30400000D03*
X24125000Y-30000000D03*
X24125000Y-29600000D03*
X24125000Y-29200000D03*
X24125000Y-28800000D03*
X24125000Y-28400000D03*
X24125000Y-28000000D03*
X24125000Y-27600000D03*
X24125000Y-27200000D03*
X22375000Y-32800000D03*
X22375000Y-32400000D03*
X22375000Y-32000000D03*
X22375000Y-31600000D03*
X22375000Y-31200000D03*
X22375000Y-30800000D03*
X22375000Y-30400000D03*
X22375000Y-30000000D03*
X22375000Y-29600000D03*
X22375000Y-29200000D03*
X22375000Y-28800000D03*
X22375000Y-28400000D03*
X22375000Y-28000000D03*
X22375000Y-27600000D03*
X22375000Y-27200000D03*
D14*
X22685000Y-33600000D03*
X23815000Y-33600000D03*
X22685000Y-26400000D03*
X23815000Y-26400000D03*
%TD*%
D13*
%TO.C,J2*%
X37625000Y-32800000D03*
X37625000Y-32400000D03*
X37625000Y-32000000D03*
X37625000Y-31600000D03*
X37625000Y-31200000D03*
X37625000Y-30800000D03*
X37625000Y-30400000D03*
X37625000Y-30000000D03*
X37625000Y-29600000D03*
X37625000Y-29200000D03*
X37625000Y-28800000D03*
X37625000Y-28400000D03*
X37625000Y-28000000D03*
X37625000Y-27600000D03*
X37625000Y-27200000D03*
X35875000Y-32800000D03*
X35875000Y-32400000D03*
X35875000Y-32000000D03*
X35875000Y-31600000D03*
X35875000Y-31200000D03*
X35875000Y-30800000D03*
X35875000Y-30400000D03*
X35875000Y-30000000D03*
X35875000Y-29600000D03*
X35875000Y-29200000D03*
X35875000Y-28800000D03*
X35875000Y-28400000D03*
X35875000Y-28000000D03*
X35875000Y-27600000D03*
X35875000Y-27200000D03*
D14*
X36185000Y-33600000D03*
X37315000Y-33600000D03*
X36185000Y-26400000D03*
X37315000Y-26400000D03*
%TD*%
D11*
%TO.C,R7*%
X27075000Y-32400000D03*
X28725000Y-32400000D03*
%TD*%
D12*
%TO.C,R1*%
X33040000Y-24350000D03*
X34060000Y-24350000D03*
%TD*%
D15*
%TO.C,C6*%
X28600000Y-34575000D03*
X28600000Y-36125000D03*
%TD*%
D16*
%TO.C,C7*%
X26025000Y-25700000D03*
X27575000Y-25700000D03*
%TD*%
M02*
