<?xml version="1.0" standalone="no"?>
 <!DOCTYPE svg PUBLIC "-//W3C//DTD SVG 1.1//EN" 
 "http://www.w3.org/Graphics/SVG/1.1/DTD/svg11.dtd"> 
<svg
  xmlns:svg="http://www.w3.org/2000/svg"
  xmlns="http://www.w3.org/2000/svg"
  xmlns:xlink="http://www.w3.org/1999/xlink"
  version="1.1"
  width="44.5262mm" height="46.1772mm" viewBox="0.0000 0.0000 44.5262 46.1772">
<title>SVG Image created as PicoMod Breakout-F_Paste.svg date 2023/05/24 00:03:13 </title>
  <desc>Image generated by PCBNEW </desc>
<g style="fill:#000000; fill-opacity:1.0000;stroke:#000000; stroke-opacity:1.0000;
stroke-linecap:round; stroke-linejoin:round;"
 transform="translate(0 0) scale(1 1)">
</g>
<g style="fill:#000000; fill-opacity:0.0; 
stroke:#000000; stroke-width:0.0000; stroke-opacity:1; 
stroke-linecap:round; stroke-linejoin:round;">
<g >
</g>
<g >
</g>
<g style="fill:#B4A09A; fill-opacity:0.0; 
stroke:#B4A09A; stroke-width:0.0000; stroke-opacity:1; 
stroke-linecap:round; stroke-linejoin:round;">
</g>
<g style="fill:#B4A09A; fill-opacity:0.0; 
stroke:#B4A09A; stroke-width:0.0000; stroke-opacity:1; 
stroke-linecap:round; stroke-linejoin:round;">
</g>
<g style="fill:#B4A09A; fill-opacity:0.9000; 
stroke:#B4A09A; stroke-width:0.0000; stroke-opacity:1; 
stroke-linecap:round; stroke-linejoin:round;">
<path style="fill:#B4A09A; fill-opacity:0.9000; 
stroke:#B4A09A; stroke-width:0.0000; stroke-opacity:1; 
stroke-linecap:round; stroke-linejoin:round;fill-rule:evenodd;"
d="M 26.6837,37.3125
26.7027,37.2168
26.7569,37.1357
26.8380,37.0815
26.9337,37.0625
27.4337,37.0625
27.5294,37.0815
27.6105,37.1357
27.6647,37.2168
27.6837,37.3125
27.6837,38.0125
27.6647,38.1082
27.6105,38.1893
27.5294,38.2435
27.4337,38.2625
26.9337,38.2625
26.8380,38.2435
26.7569,38.1893
26.7027,38.1082
26.6837,38.0125
Z" /> 
<path style="fill:#B4A09A; fill-opacity:0.9000; 
stroke:#B4A09A; stroke-width:0.0000; stroke-opacity:1; 
stroke-linecap:round; stroke-linejoin:round;fill-rule:evenodd;"
d="M 29.1837,37.3125
29.2027,37.2168
29.2569,37.1357
29.3380,37.0815
29.4337,37.0625
29.9337,37.0625
30.0294,37.0815
30.1105,37.1357
30.1647,37.2168
30.1837,37.3125
30.1837,38.0125
30.1647,38.1082
30.1105,38.1893
30.0294,38.2435
29.9337,38.2625
29.4337,38.2625
29.3380,38.2435
29.2569,38.1893
29.2027,38.1082
29.1837,38.0125
Z" /> 
<path style="fill:#B4A09A; fill-opacity:0.9000; 
stroke:#B4A09A; stroke-width:0.0000; stroke-opacity:1; 
stroke-linecap:round; stroke-linejoin:round;fill-rule:evenodd;"
d="M 31.6837,37.3125
31.7027,37.2168
31.7569,37.1357
31.8380,37.0815
31.9337,37.0625
32.4337,37.0625
32.5294,37.0815
32.6105,37.1357
32.6647,37.2168
32.6837,37.3125
32.6837,38.0125
32.6647,38.1082
32.6105,38.1893
32.5294,38.2435
32.4337,38.2625
31.9337,38.2625
31.8380,38.2435
31.7569,38.1893
31.7027,38.1082
31.6837,38.0125
Z" /> 
</g>
<g >
</g>
<g style="fill:#B4A09A; fill-opacity:0.9000; 
stroke:#B4A09A; stroke-width:0.0000; stroke-opacity:1; 
stroke-linecap:round; stroke-linejoin:round;">
<path style="fill:#B4A09A; fill-opacity:0.9000; 
stroke:#B4A09A; stroke-width:0.0000; stroke-opacity:1; 
stroke-linecap:round; stroke-linejoin:round;fill-rule:evenodd;"
d="M 15.5837,38.7375
15.5837,37.9375
17.1837,37.9375
17.1837,38.7375
Z" /> 
</g>
<g >
</g>
<g style="fill:#B4A09A; fill-opacity:0.9000; 
stroke:#B4A09A; stroke-width:0.0000; stroke-opacity:1; 
stroke-linecap:round; stroke-linejoin:round;">
<path style="fill:#B4A09A; fill-opacity:0.9000; 
stroke:#B4A09A; stroke-width:0.0000; stroke-opacity:1; 
stroke-linecap:round; stroke-linejoin:round;fill-rule:evenodd;"
d="M 29.6837,34.6125
29.5976,34.5954
29.5246,34.5466
29.4758,34.4736
29.4587,34.3875
29.4587,33.9375
29.4758,33.8514
29.5246,33.7784
29.5976,33.7296
29.6837,33.7125
30.1837,33.7125
30.2698,33.7296
30.3428,33.7784
30.3916,33.8514
30.4087,33.9375
30.4087,34.3875
30.3916,34.4736
30.3428,34.5466
30.2698,34.5954
30.1837,34.6125
Z" /> 
<path style="fill:#B4A09A; fill-opacity:0.9000; 
stroke:#B4A09A; stroke-width:0.0000; stroke-opacity:1; 
stroke-linecap:round; stroke-linejoin:round;fill-rule:evenodd;"
d="M 29.6837,33.0625
29.5976,33.0454
29.5246,32.9966
29.4758,32.9236
29.4587,32.8375
29.4587,32.3875
29.4758,32.3014
29.5246,32.2284
29.5976,32.1796
29.6837,32.1625
30.1837,32.1625
30.2698,32.1796
30.3428,32.2284
30.3916,32.3014
30.4087,32.3875
30.4087,32.8375
30.3916,32.9236
30.3428,32.9966
30.2698,33.0454
30.1837,33.0625
Z" /> 
</g>
<g >
</g>
<g >
</g>
<g style="fill:#B4A09A; fill-opacity:0.9000; 
stroke:#B4A09A; stroke-width:0.0000; stroke-opacity:1; 
stroke-linecap:round; stroke-linejoin:round;">
<path style="fill:#B4A09A; fill-opacity:0.9000; 
stroke:#B4A09A; stroke-width:0.0000; stroke-opacity:1; 
stroke-linecap:round; stroke-linejoin:round;fill-rule:evenodd;"
d="M 28.7212,11.2375
28.8121,11.2556
28.8891,11.3071
28.9406,11.3841
28.9587,11.4750
28.9587,11.9750
28.9406,12.0659
28.8891,12.1429
28.8121,12.1944
28.7212,12.2125
28.2462,12.2125
28.1553,12.1944
28.0783,12.1429
28.0268,12.0659
28.0087,11.9750
28.0087,11.4750
28.0268,11.3841
28.0783,11.3071
28.1553,11.2556
28.2462,11.2375
Z" /> 
<path style="fill:#B4A09A; fill-opacity:0.9000; 
stroke:#B4A09A; stroke-width:0.0000; stroke-opacity:1; 
stroke-linecap:round; stroke-linejoin:round;fill-rule:evenodd;"
d="M 28.7212,13.0625
28.8121,13.0806
28.8891,13.1321
28.9406,13.2091
28.9587,13.3000
28.9587,13.8000
28.9406,13.8909
28.8891,13.9679
28.8121,14.0194
28.7212,14.0375
28.2462,14.0375
28.1553,14.0194
28.0783,13.9679
28.0268,13.8909
28.0087,13.8000
28.0087,13.3000
28.0268,13.2091
28.0783,13.1321
28.1553,13.0806
28.2462,13.0625
Z" /> 
</g>
<g >
</g>
<g style="fill:#B4A09A; fill-opacity:0.9000; 
stroke:#B4A09A; stroke-width:0.0000; stroke-opacity:1; 
stroke-linecap:round; stroke-linejoin:round;">
<path style="fill:#B4A09A; fill-opacity:0.9000; 
stroke:#B4A09A; stroke-width:0.0000; stroke-opacity:1; 
stroke-linecap:round; stroke-linejoin:round;fill-rule:evenodd;"
d="M 12.5087,13.4875
11.8087,13.4875
11.8087,12.4875
12.5087,12.4875
Z" /> 
<path style="fill:#B4A09A; fill-opacity:0.9000; 
stroke:#B4A09A; stroke-width:0.0000; stroke-opacity:1; 
stroke-linecap:round; stroke-linejoin:round;fill-rule:evenodd;"
d="M 12.5087,9.4875
11.8087,9.4875
11.8087,8.4875
12.5087,8.4875
Z" /> 
<path style="fill:#B4A09A; fill-opacity:0.9000; 
stroke:#B4A09A; stroke-width:0.0000; stroke-opacity:1; 
stroke-linecap:round; stroke-linejoin:round;fill-rule:evenodd;"
d="M 14.6587,13.4875
13.9587,13.4875
13.9587,12.4875
14.6587,12.4875
Z" /> 
<path style="fill:#B4A09A; fill-opacity:0.9000; 
stroke:#B4A09A; stroke-width:0.0000; stroke-opacity:1; 
stroke-linecap:round; stroke-linejoin:round;fill-rule:evenodd;"
d="M 14.6587,9.4875
13.9587,9.4875
13.9587,8.4875
14.6587,8.4875
Z" /> 
</g>
<g >
</g>
<g style="fill:#B4A09A; fill-opacity:0.9000; 
stroke:#B4A09A; stroke-width:0.0000; stroke-opacity:1; 
stroke-linecap:round; stroke-linejoin:round;">
<path style="fill:#B4A09A; fill-opacity:0.9000; 
stroke:#B4A09A; stroke-width:0.0000; stroke-opacity:1; 
stroke-linecap:round; stroke-linejoin:round;fill-rule:evenodd;"
d="M 22.7837,35.2125
22.6976,35.1954
22.6246,35.1466
22.5758,35.0736
22.5587,34.9875
22.5587,34.5375
22.5758,34.4514
22.6246,34.3784
22.6976,34.3296
22.7837,34.3125
23.2837,34.3125
23.3698,34.3296
23.4428,34.3784
23.4916,34.4514
23.5087,34.5375
23.5087,34.9875
23.4916,35.0736
23.4428,35.1466
23.3698,35.1954
23.2837,35.2125
Z" /> 
<path style="fill:#B4A09A; fill-opacity:0.9000; 
stroke:#B4A09A; stroke-width:0.0000; stroke-opacity:1; 
stroke-linecap:round; stroke-linejoin:round;fill-rule:evenodd;"
d="M 22.7837,33.6625
22.6976,33.6454
22.6246,33.5966
22.5758,33.5236
22.5587,33.4375
22.5587,32.9875
22.5758,32.9014
22.6246,32.8284
22.6976,32.7796
22.7837,32.7625
23.2837,32.7625
23.3698,32.7796
23.4428,32.8284
23.4916,32.9014
23.5087,32.9875
23.5087,33.4375
23.4916,33.5236
23.4428,33.5966
23.3698,33.6454
23.2837,33.6625
Z" /> 
</g>
<g >
</g>
<g >
</g>
<g style="fill:#B4A09A; fill-opacity:0.9000; 
stroke:#B4A09A; stroke-width:0.0000; stroke-opacity:1; 
stroke-linecap:round; stroke-linejoin:round;">
<path style="fill:#B4A09A; fill-opacity:0.9000; 
stroke:#B4A09A; stroke-width:0.0000; stroke-opacity:1; 
stroke-linecap:round; stroke-linejoin:round;fill-rule:evenodd;"
d="M 16.3712,27.3425
16.3492,27.3381
16.3305,27.3257
16.3181,27.3070
16.3137,27.2850
16.3137,27.1700
16.3181,27.1480
16.3305,27.1293
16.3492,27.1169
16.3712,27.1125
16.7562,27.1125
16.7782,27.1169
16.7968,27.1293
16.8093,27.1480
16.8137,27.1700
16.8137,27.2850
16.8093,27.3070
16.7968,27.3257
16.7782,27.3381
16.7562,27.3425
Z" /> 
<path style="fill:#B4A09A; fill-opacity:0.9000; 
stroke:#B4A09A; stroke-width:0.0000; stroke-opacity:1; 
stroke-linecap:round; stroke-linejoin:round;fill-rule:evenodd;"
d="M 16.3712,26.9425
16.3492,26.9381
16.3305,26.9257
16.3181,26.9070
16.3137,26.8850
16.3137,26.7700
16.3181,26.7480
16.3305,26.7293
16.3492,26.7169
16.3712,26.7125
16.7562,26.7125
16.7782,26.7169
16.7968,26.7293
16.8093,26.7480
16.8137,26.7700
16.8137,26.8850
16.8093,26.9070
16.7968,26.9257
16.7782,26.9381
16.7562,26.9425
Z" /> 
<path style="fill:#B4A09A; fill-opacity:0.9000; 
stroke:#B4A09A; stroke-width:0.0000; stroke-opacity:1; 
stroke-linecap:round; stroke-linejoin:round;fill-rule:evenodd;"
d="M 16.3712,26.5425
16.3492,26.5381
16.3305,26.5257
16.3181,26.5070
16.3137,26.4850
16.3137,26.3700
16.3181,26.3480
16.3305,26.3293
16.3492,26.3169
16.3712,26.3125
16.7562,26.3125
16.7782,26.3169
16.7968,26.3293
16.8093,26.3480
16.8137,26.3700
16.8137,26.4850
16.8093,26.5070
16.7968,26.5257
16.7782,26.5381
16.7562,26.5425
Z" /> 
<path style="fill:#B4A09A; fill-opacity:0.9000; 
stroke:#B4A09A; stroke-width:0.0000; stroke-opacity:1; 
stroke-linecap:round; stroke-linejoin:round;fill-rule:evenodd;"
d="M 16.3712,26.1425
16.3492,26.1381
16.3305,26.1257
16.3181,26.1070
16.3137,26.0850
16.3137,25.9700
16.3181,25.9480
16.3305,25.9293
16.3492,25.9169
16.3712,25.9125
16.7562,25.9125
16.7782,25.9169
16.7968,25.9293
16.8093,25.9480
16.8137,25.9700
16.8137,26.0850
16.8093,26.1070
16.7968,26.1257
16.7782,26.1381
16.7562,26.1425
Z" /> 
<path style="fill:#B4A09A; fill-opacity:0.9000; 
stroke:#B4A09A; stroke-width:0.0000; stroke-opacity:1; 
stroke-linecap:round; stroke-linejoin:round;fill-rule:evenodd;"
d="M 16.3712,25.7425
16.3492,25.7381
16.3305,25.7257
16.3181,25.7070
16.3137,25.6850
16.3137,25.5700
16.3181,25.5480
16.3305,25.5293
16.3492,25.5169
16.3712,25.5125
16.7562,25.5125
16.7782,25.5169
16.7968,25.5293
16.8093,25.5480
16.8137,25.5700
16.8137,25.6850
16.8093,25.7070
16.7968,25.7257
16.7782,25.7381
16.7562,25.7425
Z" /> 
<path style="fill:#B4A09A; fill-opacity:0.9000; 
stroke:#B4A09A; stroke-width:0.0000; stroke-opacity:1; 
stroke-linecap:round; stroke-linejoin:round;fill-rule:evenodd;"
d="M 16.3712,25.3425
16.3492,25.3381
16.3305,25.3257
16.3181,25.3070
16.3137,25.2850
16.3137,25.1700
16.3181,25.1480
16.3305,25.1293
16.3492,25.1169
16.3712,25.1125
16.7562,25.1125
16.7782,25.1169
16.7968,25.1293
16.8093,25.1480
16.8137,25.1700
16.8137,25.2850
16.8093,25.3070
16.7968,25.3257
16.7782,25.3381
16.7562,25.3425
Z" /> 
<path style="fill:#B4A09A; fill-opacity:0.9000; 
stroke:#B4A09A; stroke-width:0.0000; stroke-opacity:1; 
stroke-linecap:round; stroke-linejoin:round;fill-rule:evenodd;"
d="M 16.3712,24.9425
16.3492,24.9381
16.3305,24.9257
16.3181,24.9070
16.3137,24.8850
16.3137,24.7700
16.3181,24.7480
16.3305,24.7293
16.3492,24.7169
16.3712,24.7125
16.7562,24.7125
16.7782,24.7169
16.7968,24.7293
16.8093,24.7480
16.8137,24.7700
16.8137,24.8850
16.8093,24.9070
16.7968,24.9257
16.7782,24.9381
16.7562,24.9425
Z" /> 
<path style="fill:#B4A09A; fill-opacity:0.9000; 
stroke:#B4A09A; stroke-width:0.0000; stroke-opacity:1; 
stroke-linecap:round; stroke-linejoin:round;fill-rule:evenodd;"
d="M 16.3712,24.5425
16.3492,24.5381
16.3305,24.5257
16.3181,24.5070
16.3137,24.4850
16.3137,24.3700
16.3181,24.3480
16.3305,24.3293
16.3492,24.3169
16.3712,24.3125
16.7562,24.3125
16.7782,24.3169
16.7968,24.3293
16.8093,24.3480
16.8137,24.3700
16.8137,24.4850
16.8093,24.5070
16.7968,24.5257
16.7782,24.5381
16.7562,24.5425
Z" /> 
<path style="fill:#B4A09A; fill-opacity:0.9000; 
stroke:#B4A09A; stroke-width:0.0000; stroke-opacity:1; 
stroke-linecap:round; stroke-linejoin:round;fill-rule:evenodd;"
d="M 16.3712,24.1425
16.3492,24.1381
16.3305,24.1257
16.3181,24.1070
16.3137,24.0850
16.3137,23.9700
16.3181,23.9480
16.3305,23.9293
16.3492,23.9169
16.3712,23.9125
16.7562,23.9125
16.7782,23.9169
16.7968,23.9293
16.8093,23.9480
16.8137,23.9700
16.8137,24.0850
16.8093,24.1070
16.7968,24.1257
16.7782,24.1381
16.7562,24.1425
Z" /> 
<path style="fill:#B4A09A; fill-opacity:0.9000; 
stroke:#B4A09A; stroke-width:0.0000; stroke-opacity:1; 
stroke-linecap:round; stroke-linejoin:round;fill-rule:evenodd;"
d="M 16.3712,23.7425
16.3492,23.7381
16.3305,23.7257
16.3181,23.7070
16.3137,23.6850
16.3137,23.5700
16.3181,23.5480
16.3305,23.5293
16.3492,23.5169
16.3712,23.5125
16.7562,23.5125
16.7782,23.5169
16.7968,23.5293
16.8093,23.5480
16.8137,23.5700
16.8137,23.6850
16.8093,23.7070
16.7968,23.7257
16.7782,23.7381
16.7562,23.7425
Z" /> 
<path style="fill:#B4A09A; fill-opacity:0.9000; 
stroke:#B4A09A; stroke-width:0.0000; stroke-opacity:1; 
stroke-linecap:round; stroke-linejoin:round;fill-rule:evenodd;"
d="M 16.3712,23.3425
16.3492,23.3381
16.3305,23.3257
16.3181,23.3070
16.3137,23.2850
16.3137,23.1700
16.3181,23.1480
16.3305,23.1293
16.3492,23.1169
16.3712,23.1125
16.7562,23.1125
16.7782,23.1169
16.7968,23.1293
16.8093,23.1480
16.8137,23.1700
16.8137,23.2850
16.8093,23.3070
16.7968,23.3257
16.7782,23.3381
16.7562,23.3425
Z" /> 
<path style="fill:#B4A09A; fill-opacity:0.9000; 
stroke:#B4A09A; stroke-width:0.0000; stroke-opacity:1; 
stroke-linecap:round; stroke-linejoin:round;fill-rule:evenodd;"
d="M 16.3712,22.9425
16.3492,22.9381
16.3305,22.9257
16.3181,22.9070
16.3137,22.8850
16.3137,22.7700
16.3181,22.7480
16.3305,22.7293
16.3492,22.7169
16.3712,22.7125
16.7562,22.7125
16.7782,22.7169
16.7968,22.7293
16.8093,22.7480
16.8137,22.7700
16.8137,22.8850
16.8093,22.9070
16.7968,22.9257
16.7782,22.9381
16.7562,22.9425
Z" /> 
<path style="fill:#B4A09A; fill-opacity:0.9000; 
stroke:#B4A09A; stroke-width:0.0000; stroke-opacity:1; 
stroke-linecap:round; stroke-linejoin:round;fill-rule:evenodd;"
d="M 16.3712,22.5425
16.3492,22.5381
16.3305,22.5257
16.3181,22.5070
16.3137,22.4850
16.3137,22.3700
16.3181,22.3480
16.3305,22.3293
16.3492,22.3169
16.3712,22.3125
16.7562,22.3125
16.7782,22.3169
16.7968,22.3293
16.8093,22.3480
16.8137,22.3700
16.8137,22.4850
16.8093,22.5070
16.7968,22.5257
16.7782,22.5381
16.7562,22.5425
Z" /> 
<path style="fill:#B4A09A; fill-opacity:0.9000; 
stroke:#B4A09A; stroke-width:0.0000; stroke-opacity:1; 
stroke-linecap:round; stroke-linejoin:round;fill-rule:evenodd;"
d="M 16.3712,22.1425
16.3492,22.1381
16.3305,22.1257
16.3181,22.1070
16.3137,22.0850
16.3137,21.9700
16.3181,21.9480
16.3305,21.9293
16.3492,21.9169
16.3712,21.9125
16.7562,21.9125
16.7782,21.9169
16.7968,21.9293
16.8093,21.9480
16.8137,21.9700
16.8137,22.0850
16.8093,22.1070
16.7968,22.1257
16.7782,22.1381
16.7562,22.1425
Z" /> 
<path style="fill:#B4A09A; fill-opacity:0.9000; 
stroke:#B4A09A; stroke-width:0.0000; stroke-opacity:1; 
stroke-linecap:round; stroke-linejoin:round;fill-rule:evenodd;"
d="M 16.3712,21.7425
16.3492,21.7381
16.3305,21.7257
16.3181,21.7070
16.3137,21.6850
16.3137,21.5700
16.3181,21.5480
16.3305,21.5293
16.3492,21.5169
16.3712,21.5125
16.7562,21.5125
16.7782,21.5169
16.7968,21.5293
16.8093,21.5480
16.8137,21.5700
16.8137,21.6850
16.8093,21.7070
16.7968,21.7257
16.7782,21.7381
16.7562,21.7425
Z" /> 
<path style="fill:#B4A09A; fill-opacity:0.9000; 
stroke:#B4A09A; stroke-width:0.0000; stroke-opacity:1; 
stroke-linecap:round; stroke-linejoin:round;fill-rule:evenodd;"
d="M 13.9712,27.3425
13.9492,27.3381
13.9305,27.3257
13.9181,27.3070
13.9137,27.2850
13.9137,27.1700
13.9181,27.1480
13.9305,27.1293
13.9492,27.1169
13.9712,27.1125
14.3562,27.1125
14.3782,27.1169
14.3968,27.1293
14.4093,27.1480
14.4137,27.1700
14.4137,27.2850
14.4093,27.3070
14.3968,27.3257
14.3782,27.3381
14.3562,27.3425
Z" /> 
<path style="fill:#B4A09A; fill-opacity:0.9000; 
stroke:#B4A09A; stroke-width:0.0000; stroke-opacity:1; 
stroke-linecap:round; stroke-linejoin:round;fill-rule:evenodd;"
d="M 13.9712,26.9425
13.9492,26.9381
13.9305,26.9257
13.9181,26.9070
13.9137,26.8850
13.9137,26.7700
13.9181,26.7480
13.9305,26.7293
13.9492,26.7169
13.9712,26.7125
14.3562,26.7125
14.3782,26.7169
14.3968,26.7293
14.4093,26.7480
14.4137,26.7700
14.4137,26.8850
14.4093,26.9070
14.3968,26.9257
14.3782,26.9381
14.3562,26.9425
Z" /> 
<path style="fill:#B4A09A; fill-opacity:0.9000; 
stroke:#B4A09A; stroke-width:0.0000; stroke-opacity:1; 
stroke-linecap:round; stroke-linejoin:round;fill-rule:evenodd;"
d="M 13.9712,26.5425
13.9492,26.5381
13.9305,26.5257
13.9181,26.5070
13.9137,26.4850
13.9137,26.3700
13.9181,26.3480
13.9305,26.3293
13.9492,26.3169
13.9712,26.3125
14.3562,26.3125
14.3782,26.3169
14.3968,26.3293
14.4093,26.3480
14.4137,26.3700
14.4137,26.4850
14.4093,26.5070
14.3968,26.5257
14.3782,26.5381
14.3562,26.5425
Z" /> 
<path style="fill:#B4A09A; fill-opacity:0.9000; 
stroke:#B4A09A; stroke-width:0.0000; stroke-opacity:1; 
stroke-linecap:round; stroke-linejoin:round;fill-rule:evenodd;"
d="M 13.9712,26.1425
13.9492,26.1381
13.9305,26.1257
13.9181,26.1070
13.9137,26.0850
13.9137,25.9700
13.9181,25.9480
13.9305,25.9293
13.9492,25.9169
13.9712,25.9125
14.3562,25.9125
14.3782,25.9169
14.3968,25.9293
14.4093,25.9480
14.4137,25.9700
14.4137,26.0850
14.4093,26.1070
14.3968,26.1257
14.3782,26.1381
14.3562,26.1425
Z" /> 
<path style="fill:#B4A09A; fill-opacity:0.9000; 
stroke:#B4A09A; stroke-width:0.0000; stroke-opacity:1; 
stroke-linecap:round; stroke-linejoin:round;fill-rule:evenodd;"
d="M 13.9712,25.7425
13.9492,25.7381
13.9305,25.7257
13.9181,25.7070
13.9137,25.6850
13.9137,25.5700
13.9181,25.5480
13.9305,25.5293
13.9492,25.5169
13.9712,25.5125
14.3562,25.5125
14.3782,25.5169
14.3968,25.5293
14.4093,25.5480
14.4137,25.5700
14.4137,25.6850
14.4093,25.7070
14.3968,25.7257
14.3782,25.7381
14.3562,25.7425
Z" /> 
<path style="fill:#B4A09A; fill-opacity:0.9000; 
stroke:#B4A09A; stroke-width:0.0000; stroke-opacity:1; 
stroke-linecap:round; stroke-linejoin:round;fill-rule:evenodd;"
d="M 13.9712,25.3425
13.9492,25.3381
13.9305,25.3257
13.9181,25.3070
13.9137,25.2850
13.9137,25.1700
13.9181,25.1480
13.9305,25.1293
13.9492,25.1169
13.9712,25.1125
14.3562,25.1125
14.3782,25.1169
14.3968,25.1293
14.4093,25.1480
14.4137,25.1700
14.4137,25.2850
14.4093,25.3070
14.3968,25.3257
14.3782,25.3381
14.3562,25.3425
Z" /> 
<path style="fill:#B4A09A; fill-opacity:0.9000; 
stroke:#B4A09A; stroke-width:0.0000; stroke-opacity:1; 
stroke-linecap:round; stroke-linejoin:round;fill-rule:evenodd;"
d="M 13.9712,24.9425
13.9492,24.9381
13.9305,24.9257
13.9181,24.9070
13.9137,24.8850
13.9137,24.7700
13.9181,24.7480
13.9305,24.7293
13.9492,24.7169
13.9712,24.7125
14.3562,24.7125
14.3782,24.7169
14.3968,24.7293
14.4093,24.7480
14.4137,24.7700
14.4137,24.8850
14.4093,24.9070
14.3968,24.9257
14.3782,24.9381
14.3562,24.9425
Z" /> 
<path style="fill:#B4A09A; fill-opacity:0.9000; 
stroke:#B4A09A; stroke-width:0.0000; stroke-opacity:1; 
stroke-linecap:round; stroke-linejoin:round;fill-rule:evenodd;"
d="M 13.9712,24.5425
13.9492,24.5381
13.9305,24.5257
13.9181,24.5070
13.9137,24.4850
13.9137,24.3700
13.9181,24.3480
13.9305,24.3293
13.9492,24.3169
13.9712,24.3125
14.3562,24.3125
14.3782,24.3169
14.3968,24.3293
14.4093,24.3480
14.4137,24.3700
14.4137,24.4850
14.4093,24.5070
14.3968,24.5257
14.3782,24.5381
14.3562,24.5425
Z" /> 
<path style="fill:#B4A09A; fill-opacity:0.9000; 
stroke:#B4A09A; stroke-width:0.0000; stroke-opacity:1; 
stroke-linecap:round; stroke-linejoin:round;fill-rule:evenodd;"
d="M 13.9712,24.1425
13.9492,24.1381
13.9305,24.1257
13.9181,24.1070
13.9137,24.0850
13.9137,23.9700
13.9181,23.9480
13.9305,23.9293
13.9492,23.9169
13.9712,23.9125
14.3562,23.9125
14.3782,23.9169
14.3968,23.9293
14.4093,23.9480
14.4137,23.9700
14.4137,24.0850
14.4093,24.1070
14.3968,24.1257
14.3782,24.1381
14.3562,24.1425
Z" /> 
<path style="fill:#B4A09A; fill-opacity:0.9000; 
stroke:#B4A09A; stroke-width:0.0000; stroke-opacity:1; 
stroke-linecap:round; stroke-linejoin:round;fill-rule:evenodd;"
d="M 13.9712,23.7425
13.9492,23.7381
13.9305,23.7257
13.9181,23.7070
13.9137,23.6850
13.9137,23.5700
13.9181,23.5480
13.9305,23.5293
13.9492,23.5169
13.9712,23.5125
14.3562,23.5125
14.3782,23.5169
14.3968,23.5293
14.4093,23.5480
14.4137,23.5700
14.4137,23.6850
14.4093,23.7070
14.3968,23.7257
14.3782,23.7381
14.3562,23.7425
Z" /> 
<path style="fill:#B4A09A; fill-opacity:0.9000; 
stroke:#B4A09A; stroke-width:0.0000; stroke-opacity:1; 
stroke-linecap:round; stroke-linejoin:round;fill-rule:evenodd;"
d="M 13.9712,23.3425
13.9492,23.3381
13.9305,23.3257
13.9181,23.3070
13.9137,23.2850
13.9137,23.1700
13.9181,23.1480
13.9305,23.1293
13.9492,23.1169
13.9712,23.1125
14.3562,23.1125
14.3782,23.1169
14.3968,23.1293
14.4093,23.1480
14.4137,23.1700
14.4137,23.2850
14.4093,23.3070
14.3968,23.3257
14.3782,23.3381
14.3562,23.3425
Z" /> 
<path style="fill:#B4A09A; fill-opacity:0.9000; 
stroke:#B4A09A; stroke-width:0.0000; stroke-opacity:1; 
stroke-linecap:round; stroke-linejoin:round;fill-rule:evenodd;"
d="M 13.9712,22.9425
13.9492,22.9381
13.9305,22.9257
13.9181,22.9070
13.9137,22.8850
13.9137,22.7700
13.9181,22.7480
13.9305,22.7293
13.9492,22.7169
13.9712,22.7125
14.3562,22.7125
14.3782,22.7169
14.3968,22.7293
14.4093,22.7480
14.4137,22.7700
14.4137,22.8850
14.4093,22.9070
14.3968,22.9257
14.3782,22.9381
14.3562,22.9425
Z" /> 
<path style="fill:#B4A09A; fill-opacity:0.9000; 
stroke:#B4A09A; stroke-width:0.0000; stroke-opacity:1; 
stroke-linecap:round; stroke-linejoin:round;fill-rule:evenodd;"
d="M 13.9712,22.5425
13.9492,22.5381
13.9305,22.5257
13.9181,22.5070
13.9137,22.4850
13.9137,22.3700
13.9181,22.3480
13.9305,22.3293
13.9492,22.3169
13.9712,22.3125
14.3562,22.3125
14.3782,22.3169
14.3968,22.3293
14.4093,22.3480
14.4137,22.3700
14.4137,22.4850
14.4093,22.5070
14.3968,22.5257
14.3782,22.5381
14.3562,22.5425
Z" /> 
<path style="fill:#B4A09A; fill-opacity:0.9000; 
stroke:#B4A09A; stroke-width:0.0000; stroke-opacity:1; 
stroke-linecap:round; stroke-linejoin:round;fill-rule:evenodd;"
d="M 13.9712,22.1425
13.9492,22.1381
13.9305,22.1257
13.9181,22.1070
13.9137,22.0850
13.9137,21.9700
13.9181,21.9480
13.9305,21.9293
13.9492,21.9169
13.9712,21.9125
14.3562,21.9125
14.3782,21.9169
14.3968,21.9293
14.4093,21.9480
14.4137,21.9700
14.4137,22.0850
14.4093,22.1070
14.3968,22.1257
14.3782,22.1381
14.3562,22.1425
Z" /> 
<path style="fill:#B4A09A; fill-opacity:0.9000; 
stroke:#B4A09A; stroke-width:0.0000; stroke-opacity:1; 
stroke-linecap:round; stroke-linejoin:round;fill-rule:evenodd;"
d="M 13.9712,21.7425
13.9492,21.7381
13.9305,21.7257
13.9181,21.7070
13.9137,21.6850
13.9137,21.5700
13.9181,21.5480
13.9305,21.5293
13.9492,21.5169
13.9712,21.5125
14.3562,21.5125
14.3782,21.5169
14.3968,21.5293
14.4093,21.5480
14.4137,21.5700
14.4137,21.6850
14.4093,21.7070
14.3968,21.7257
14.3782,21.7381
14.3562,21.7425
Z" /> 
<path style="fill:#B4A09A; fill-opacity:0.9000; 
stroke:#B4A09A; stroke-width:0.0000; stroke-opacity:1; 
stroke-linecap:round; stroke-linejoin:round;fill-rule:evenodd;"
d="M 14.8237,27.6775
14.8237,28.5775
14.1737,28.5775
13.9037,28.3075
13.9037,27.6775
Z" /> 
<path style="fill:#B4A09A; fill-opacity:0.9000; 
stroke:#B4A09A; stroke-width:0.0000; stroke-opacity:1; 
stroke-linecap:round; stroke-linejoin:round;fill-rule:evenodd;"
d="M 15.9137,27.6675
16.8137,27.6675
16.8137,28.3175
16.5437,28.5875
15.9137,28.5875
Z" /> 
<path style="fill:#B4A09A; fill-opacity:0.9000; 
stroke:#B4A09A; stroke-width:0.0000; stroke-opacity:1; 
stroke-linecap:round; stroke-linejoin:round;fill-rule:evenodd;"
d="M 14.8137,21.1875
13.9137,21.1875
13.9137,20.5375
14.1837,20.2675
14.8137,20.2675
Z" /> 
<path style="fill:#B4A09A; fill-opacity:0.9000; 
stroke:#B4A09A; stroke-width:0.0000; stroke-opacity:1; 
stroke-linecap:round; stroke-linejoin:round;fill-rule:evenodd;"
d="M 15.9037,21.1775
15.9037,20.2775
16.5537,20.2775
16.8237,20.5475
16.8237,21.1775
Z" /> 
</g>
<g >
</g>
<g >
</g>
<g style="fill:#B4A09A; fill-opacity:0.9000; 
stroke:#B4A09A; stroke-width:0.0000; stroke-opacity:1; 
stroke-linecap:round; stroke-linejoin:round;">
<path style="fill:#B4A09A; fill-opacity:0.9000; 
stroke:#B4A09A; stroke-width:0.0000; stroke-opacity:1; 
stroke-linecap:round; stroke-linejoin:round;fill-rule:evenodd;"
d="M 26.8437,34.8545
26.8442,34.8518
26.8457,34.8496
26.8480,34.8480
26.8507,34.8475
27.2167,34.8475
27.2194,34.8480
27.2216,34.8496
27.2232,34.8518
27.2237,34.8545
27.2237,35.1905
27.2232,35.1932
27.2216,35.1955
27.2194,35.1970
27.2167,35.1975
26.8507,35.1975
26.8480,35.1970
26.8457,35.1955
26.8442,35.1932
26.8437,35.1905
Z" /> 
<path style="fill:#B4A09A; fill-opacity:0.9000; 
stroke:#B4A09A; stroke-width:0.0000; stroke-opacity:1; 
stroke-linecap:round; stroke-linejoin:round;fill-rule:evenodd;"
d="M 26.3437,34.8545
26.3442,34.8518
26.3457,34.8496
26.3480,34.8480
26.3507,34.8475
26.7167,34.8475
26.7194,34.8480
26.7216,34.8496
26.7232,34.8518
26.7237,34.8545
26.7237,35.1905
26.7232,35.1932
26.7216,35.1955
26.7194,35.1970
26.7167,35.1975
26.3507,35.1975
26.3480,35.1970
26.3457,35.1955
26.3442,35.1932
26.3437,35.1905
Z" /> 
<path style="fill:#B4A09A; fill-opacity:0.9000; 
stroke:#B4A09A; stroke-width:0.0000; stroke-opacity:1; 
stroke-linecap:round; stroke-linejoin:round;fill-rule:evenodd;"
d="M 25.8287,35.1195
25.8292,35.1168
25.8307,35.1146
25.8330,35.1130
25.8357,35.1125
26.2017,35.1125
26.2044,35.1130
26.2066,35.1146
26.2082,35.1168
26.2087,35.1195
26.2087,35.4555
26.2082,35.4582
26.2066,35.4605
26.2044,35.4620
26.2017,35.4625
25.8357,35.4625
25.8330,35.4620
25.8307,35.4605
25.8292,35.4582
25.8287,35.4555
Z" /> 
<path style="fill:#B4A09A; fill-opacity:0.9000; 
stroke:#B4A09A; stroke-width:0.0000; stroke-opacity:1; 
stroke-linecap:round; stroke-linejoin:round;fill-rule:evenodd;"
d="M 25.8287,35.6195
25.8292,35.6168
25.8307,35.6146
25.8330,35.6130
25.8357,35.6125
26.2017,35.6125
26.2044,35.6130
26.2066,35.6146
26.2082,35.6168
26.2087,35.6195
26.2087,35.9555
26.2082,35.9582
26.2066,35.9605
26.2044,35.9620
26.2017,35.9625
25.8357,35.9625
25.8330,35.9620
25.8307,35.9605
25.8292,35.9582
25.8287,35.9555
Z" /> 
<path style="fill:#B4A09A; fill-opacity:0.9000; 
stroke:#B4A09A; stroke-width:0.0000; stroke-opacity:1; 
stroke-linecap:round; stroke-linejoin:round;fill-rule:evenodd;"
d="M 25.8287,36.1195
25.8292,36.1168
25.8307,36.1146
25.8330,36.1130
25.8357,36.1125
26.2017,36.1125
26.2044,36.1130
26.2066,36.1146
26.2082,36.1168
26.2087,36.1195
26.2087,36.4555
26.2082,36.4582
26.2066,36.4605
26.2044,36.4620
26.2017,36.4625
25.8357,36.4625
25.8330,36.4620
25.8307,36.4605
25.8292,36.4582
25.8287,36.4555
Z" /> 
<path style="fill:#B4A09A; fill-opacity:0.9000; 
stroke:#B4A09A; stroke-width:0.0000; stroke-opacity:1; 
stroke-linecap:round; stroke-linejoin:round;fill-rule:evenodd;"
d="M 26.3437,36.3845
26.3442,36.3818
26.3457,36.3796
26.3480,36.3780
26.3507,36.3775
26.7167,36.3775
26.7194,36.3780
26.7216,36.3796
26.7232,36.3818
26.7237,36.3845
26.7237,36.7205
26.7232,36.7232
26.7216,36.7254
26.7194,36.7270
26.7167,36.7275
26.3507,36.7275
26.3480,36.7270
26.3457,36.7254
26.3442,36.7232
26.3437,36.7205
Z" /> 
<path style="fill:#B4A09A; fill-opacity:0.9000; 
stroke:#B4A09A; stroke-width:0.0000; stroke-opacity:1; 
stroke-linecap:round; stroke-linejoin:round;fill-rule:evenodd;"
d="M 26.8437,36.3845
26.8442,36.3818
26.8457,36.3796
26.8480,36.3780
26.8507,36.3775
27.2167,36.3775
27.2194,36.3780
27.2216,36.3796
27.2232,36.3818
27.2237,36.3845
27.2237,36.7205
27.2232,36.7232
27.2216,36.7254
27.2194,36.7270
27.2167,36.7275
26.8507,36.7275
26.8480,36.7270
26.8457,36.7254
26.8442,36.7232
26.8437,36.7205
Z" /> 
<path style="fill:#B4A09A; fill-opacity:0.9000; 
stroke:#B4A09A; stroke-width:0.0000; stroke-opacity:1; 
stroke-linecap:round; stroke-linejoin:round;fill-rule:evenodd;"
d="M 27.3587,36.1195
27.3592,36.1168
27.3607,36.1146
27.3630,36.1130
27.3657,36.1125
27.7317,36.1125
27.7344,36.1130
27.7366,36.1146
27.7382,36.1168
27.7387,36.1195
27.7387,36.4555
27.7382,36.4582
27.7366,36.4605
27.7344,36.4620
27.7317,36.4625
27.3657,36.4625
27.3630,36.4620
27.3607,36.4605
27.3592,36.4582
27.3587,36.4555
Z" /> 
<path style="fill:#B4A09A; fill-opacity:0.9000; 
stroke:#B4A09A; stroke-width:0.0000; stroke-opacity:1; 
stroke-linecap:round; stroke-linejoin:round;fill-rule:evenodd;"
d="M 27.3587,35.6195
27.3592,35.6168
27.3607,35.6146
27.3630,35.6130
27.3657,35.6125
27.7317,35.6125
27.7344,35.6130
27.7366,35.6146
27.7382,35.6168
27.7387,35.6195
27.7387,35.9555
27.7382,35.9582
27.7366,35.9605
27.7344,35.9620
27.7317,35.9625
27.3657,35.9625
27.3630,35.9620
27.3607,35.9605
27.3592,35.9582
27.3587,35.9555
Z" /> 
<path style="fill:#B4A09A; fill-opacity:0.9000; 
stroke:#B4A09A; stroke-width:0.0000; stroke-opacity:1; 
stroke-linecap:round; stroke-linejoin:round;fill-rule:evenodd;"
d="M 27.3587,35.1195
27.3592,35.1168
27.3607,35.1146
27.3630,35.1130
27.3657,35.1125
27.7317,35.1125
27.7344,35.1130
27.7366,35.1146
27.7382,35.1168
27.7387,35.1195
27.7387,35.4555
27.7382,35.4582
27.7366,35.4605
27.7344,35.4620
27.7317,35.4625
27.3657,35.4625
27.3630,35.4620
27.3607,35.4605
27.3592,35.4582
27.3587,35.4555
Z" /> 
</g>
<g >
</g>
<g style="fill:#B4A09A; fill-opacity:0.9000; 
stroke:#B4A09A; stroke-width:0.0000; stroke-opacity:1; 
stroke-linecap:round; stroke-linejoin:round;">
<path style="fill:#B4A09A; fill-opacity:0.9000; 
stroke:#B4A09A; stroke-width:0.0000; stroke-opacity:1; 
stroke-linecap:round; stroke-linejoin:round;fill-rule:evenodd;"
d="M 28.1337,33.7125
28.0476,33.6954
27.9746,33.6466
27.9258,33.5736
27.9087,33.4875
27.9087,33.0375
27.9258,32.9514
27.9746,32.8784
28.0476,32.8296
28.1337,32.8125
28.6337,32.8125
28.7198,32.8296
28.7928,32.8784
28.8416,32.9514
28.8587,33.0375
28.8587,33.4875
28.8416,33.5736
28.7928,33.6466
28.7198,33.6954
28.6337,33.7125
Z" /> 
<path style="fill:#B4A09A; fill-opacity:0.9000; 
stroke:#B4A09A; stroke-width:0.0000; stroke-opacity:1; 
stroke-linecap:round; stroke-linejoin:round;fill-rule:evenodd;"
d="M 28.1337,32.1625
28.0476,32.1454
27.9746,32.0966
27.9258,32.0236
27.9087,31.9375
27.9087,31.4875
27.9258,31.4014
27.9746,31.3284
28.0476,31.2796
28.1337,31.2625
28.6337,31.2625
28.7198,31.2796
28.7928,31.3284
28.8416,31.4014
28.8587,31.4875
28.8587,31.9375
28.8416,32.0236
28.7928,32.0966
28.7198,32.1454
28.6337,32.1625
Z" /> 
</g>
<g >
</g>
<g style="fill:#B4A09A; fill-opacity:0.9000; 
stroke:#B4A09A; stroke-width:0.0000; stroke-opacity:1; 
stroke-linecap:round; stroke-linejoin:round;">
<path style="fill:#B4A09A; fill-opacity:0.9000; 
stroke:#B4A09A; stroke-width:0.0000; stroke-opacity:1; 
stroke-linecap:round; stroke-linejoin:round;fill-rule:evenodd;"
d="M 29.8712,27.3425
29.8492,27.3381
29.8305,27.3257
29.8181,27.3070
29.8137,27.2850
29.8137,27.1700
29.8181,27.1480
29.8305,27.1293
29.8492,27.1169
29.8712,27.1125
30.2562,27.1125
30.2782,27.1169
30.2968,27.1293
30.3093,27.1480
30.3137,27.1700
30.3137,27.2850
30.3093,27.3070
30.2968,27.3257
30.2782,27.3381
30.2562,27.3425
Z" /> 
<path style="fill:#B4A09A; fill-opacity:0.9000; 
stroke:#B4A09A; stroke-width:0.0000; stroke-opacity:1; 
stroke-linecap:round; stroke-linejoin:round;fill-rule:evenodd;"
d="M 29.8712,26.9425
29.8492,26.9381
29.8305,26.9257
29.8181,26.9070
29.8137,26.8850
29.8137,26.7700
29.8181,26.7480
29.8305,26.7293
29.8492,26.7169
29.8712,26.7125
30.2562,26.7125
30.2782,26.7169
30.2968,26.7293
30.3093,26.7480
30.3137,26.7700
30.3137,26.8850
30.3093,26.9070
30.2968,26.9257
30.2782,26.9381
30.2562,26.9425
Z" /> 
<path style="fill:#B4A09A; fill-opacity:0.9000; 
stroke:#B4A09A; stroke-width:0.0000; stroke-opacity:1; 
stroke-linecap:round; stroke-linejoin:round;fill-rule:evenodd;"
d="M 29.8712,26.5425
29.8492,26.5381
29.8305,26.5257
29.8181,26.5070
29.8137,26.4850
29.8137,26.3700
29.8181,26.3480
29.8305,26.3293
29.8492,26.3169
29.8712,26.3125
30.2562,26.3125
30.2782,26.3169
30.2968,26.3293
30.3093,26.3480
30.3137,26.3700
30.3137,26.4850
30.3093,26.5070
30.2968,26.5257
30.2782,26.5381
30.2562,26.5425
Z" /> 
<path style="fill:#B4A09A; fill-opacity:0.9000; 
stroke:#B4A09A; stroke-width:0.0000; stroke-opacity:1; 
stroke-linecap:round; stroke-linejoin:round;fill-rule:evenodd;"
d="M 29.8712,26.1425
29.8492,26.1381
29.8305,26.1257
29.8181,26.1070
29.8137,26.0850
29.8137,25.9700
29.8181,25.9480
29.8305,25.9293
29.8492,25.9169
29.8712,25.9125
30.2562,25.9125
30.2782,25.9169
30.2968,25.9293
30.3093,25.9480
30.3137,25.9700
30.3137,26.0850
30.3093,26.1070
30.2968,26.1257
30.2782,26.1381
30.2562,26.1425
Z" /> 
<path style="fill:#B4A09A; fill-opacity:0.9000; 
stroke:#B4A09A; stroke-width:0.0000; stroke-opacity:1; 
stroke-linecap:round; stroke-linejoin:round;fill-rule:evenodd;"
d="M 29.8712,25.7425
29.8492,25.7381
29.8305,25.7257
29.8181,25.7070
29.8137,25.6850
29.8137,25.5700
29.8181,25.5480
29.8305,25.5293
29.8492,25.5169
29.8712,25.5125
30.2562,25.5125
30.2782,25.5169
30.2968,25.5293
30.3093,25.5480
30.3137,25.5700
30.3137,25.6850
30.3093,25.7070
30.2968,25.7257
30.2782,25.7381
30.2562,25.7425
Z" /> 
<path style="fill:#B4A09A; fill-opacity:0.9000; 
stroke:#B4A09A; stroke-width:0.0000; stroke-opacity:1; 
stroke-linecap:round; stroke-linejoin:round;fill-rule:evenodd;"
d="M 29.8712,25.3425
29.8492,25.3381
29.8305,25.3257
29.8181,25.3070
29.8137,25.2850
29.8137,25.1700
29.8181,25.1480
29.8305,25.1293
29.8492,25.1169
29.8712,25.1125
30.2562,25.1125
30.2782,25.1169
30.2968,25.1293
30.3093,25.1480
30.3137,25.1700
30.3137,25.2850
30.3093,25.3070
30.2968,25.3257
30.2782,25.3381
30.2562,25.3425
Z" /> 
<path style="fill:#B4A09A; fill-opacity:0.9000; 
stroke:#B4A09A; stroke-width:0.0000; stroke-opacity:1; 
stroke-linecap:round; stroke-linejoin:round;fill-rule:evenodd;"
d="M 29.8712,24.9425
29.8492,24.9381
29.8305,24.9257
29.8181,24.9070
29.8137,24.8850
29.8137,24.7700
29.8181,24.7480
29.8305,24.7293
29.8492,24.7169
29.8712,24.7125
30.2562,24.7125
30.2782,24.7169
30.2968,24.7293
30.3093,24.7480
30.3137,24.7700
30.3137,24.8850
30.3093,24.9070
30.2968,24.9257
30.2782,24.9381
30.2562,24.9425
Z" /> 
<path style="fill:#B4A09A; fill-opacity:0.9000; 
stroke:#B4A09A; stroke-width:0.0000; stroke-opacity:1; 
stroke-linecap:round; stroke-linejoin:round;fill-rule:evenodd;"
d="M 29.8712,24.5425
29.8492,24.5381
29.8305,24.5257
29.8181,24.5070
29.8137,24.4850
29.8137,24.3700
29.8181,24.3480
29.8305,24.3293
29.8492,24.3169
29.8712,24.3125
30.2562,24.3125
30.2782,24.3169
30.2968,24.3293
30.3093,24.3480
30.3137,24.3700
30.3137,24.4850
30.3093,24.5070
30.2968,24.5257
30.2782,24.5381
30.2562,24.5425
Z" /> 
<path style="fill:#B4A09A; fill-opacity:0.9000; 
stroke:#B4A09A; stroke-width:0.0000; stroke-opacity:1; 
stroke-linecap:round; stroke-linejoin:round;fill-rule:evenodd;"
d="M 29.8712,24.1425
29.8492,24.1381
29.8305,24.1257
29.8181,24.1070
29.8137,24.0850
29.8137,23.9700
29.8181,23.9480
29.8305,23.9293
29.8492,23.9169
29.8712,23.9125
30.2562,23.9125
30.2782,23.9169
30.2968,23.9293
30.3093,23.9480
30.3137,23.9700
30.3137,24.0850
30.3093,24.1070
30.2968,24.1257
30.2782,24.1381
30.2562,24.1425
Z" /> 
<path style="fill:#B4A09A; fill-opacity:0.9000; 
stroke:#B4A09A; stroke-width:0.0000; stroke-opacity:1; 
stroke-linecap:round; stroke-linejoin:round;fill-rule:evenodd;"
d="M 29.8712,23.7425
29.8492,23.7381
29.8305,23.7257
29.8181,23.7070
29.8137,23.6850
29.8137,23.5700
29.8181,23.5480
29.8305,23.5293
29.8492,23.5169
29.8712,23.5125
30.2562,23.5125
30.2782,23.5169
30.2968,23.5293
30.3093,23.5480
30.3137,23.5700
30.3137,23.6850
30.3093,23.7070
30.2968,23.7257
30.2782,23.7381
30.2562,23.7425
Z" /> 
<path style="fill:#B4A09A; fill-opacity:0.9000; 
stroke:#B4A09A; stroke-width:0.0000; stroke-opacity:1; 
stroke-linecap:round; stroke-linejoin:round;fill-rule:evenodd;"
d="M 29.8712,23.3425
29.8492,23.3381
29.8305,23.3257
29.8181,23.3070
29.8137,23.2850
29.8137,23.1700
29.8181,23.1480
29.8305,23.1293
29.8492,23.1169
29.8712,23.1125
30.2562,23.1125
30.2782,23.1169
30.2968,23.1293
30.3093,23.1480
30.3137,23.1700
30.3137,23.2850
30.3093,23.3070
30.2968,23.3257
30.2782,23.3381
30.2562,23.3425
Z" /> 
<path style="fill:#B4A09A; fill-opacity:0.9000; 
stroke:#B4A09A; stroke-width:0.0000; stroke-opacity:1; 
stroke-linecap:round; stroke-linejoin:round;fill-rule:evenodd;"
d="M 29.8712,22.9425
29.8492,22.9381
29.8305,22.9257
29.8181,22.9070
29.8137,22.8850
29.8137,22.7700
29.8181,22.7480
29.8305,22.7293
29.8492,22.7169
29.8712,22.7125
30.2562,22.7125
30.2782,22.7169
30.2968,22.7293
30.3093,22.7480
30.3137,22.7700
30.3137,22.8850
30.3093,22.9070
30.2968,22.9257
30.2782,22.9381
30.2562,22.9425
Z" /> 
<path style="fill:#B4A09A; fill-opacity:0.9000; 
stroke:#B4A09A; stroke-width:0.0000; stroke-opacity:1; 
stroke-linecap:round; stroke-linejoin:round;fill-rule:evenodd;"
d="M 29.8712,22.5425
29.8492,22.5381
29.8305,22.5257
29.8181,22.5070
29.8137,22.4850
29.8137,22.3700
29.8181,22.3480
29.8305,22.3293
29.8492,22.3169
29.8712,22.3125
30.2562,22.3125
30.2782,22.3169
30.2968,22.3293
30.3093,22.3480
30.3137,22.3700
30.3137,22.4850
30.3093,22.5070
30.2968,22.5257
30.2782,22.5381
30.2562,22.5425
Z" /> 
<path style="fill:#B4A09A; fill-opacity:0.9000; 
stroke:#B4A09A; stroke-width:0.0000; stroke-opacity:1; 
stroke-linecap:round; stroke-linejoin:round;fill-rule:evenodd;"
d="M 29.8712,22.1425
29.8492,22.1381
29.8305,22.1257
29.8181,22.1070
29.8137,22.0850
29.8137,21.9700
29.8181,21.9480
29.8305,21.9293
29.8492,21.9169
29.8712,21.9125
30.2562,21.9125
30.2782,21.9169
30.2968,21.9293
30.3093,21.9480
30.3137,21.9700
30.3137,22.0850
30.3093,22.1070
30.2968,22.1257
30.2782,22.1381
30.2562,22.1425
Z" /> 
<path style="fill:#B4A09A; fill-opacity:0.9000; 
stroke:#B4A09A; stroke-width:0.0000; stroke-opacity:1; 
stroke-linecap:round; stroke-linejoin:round;fill-rule:evenodd;"
d="M 29.8712,21.7425
29.8492,21.7381
29.8305,21.7257
29.8181,21.7070
29.8137,21.6850
29.8137,21.5700
29.8181,21.5480
29.8305,21.5293
29.8492,21.5169
29.8712,21.5125
30.2562,21.5125
30.2782,21.5169
30.2968,21.5293
30.3093,21.5480
30.3137,21.5700
30.3137,21.6850
30.3093,21.7070
30.2968,21.7257
30.2782,21.7381
30.2562,21.7425
Z" /> 
<path style="fill:#B4A09A; fill-opacity:0.9000; 
stroke:#B4A09A; stroke-width:0.0000; stroke-opacity:1; 
stroke-linecap:round; stroke-linejoin:round;fill-rule:evenodd;"
d="M 27.4712,27.3425
27.4492,27.3381
27.4305,27.3257
27.4181,27.3070
27.4137,27.2850
27.4137,27.1700
27.4181,27.1480
27.4305,27.1293
27.4492,27.1169
27.4712,27.1125
27.8562,27.1125
27.8782,27.1169
27.8968,27.1293
27.9093,27.1480
27.9137,27.1700
27.9137,27.2850
27.9093,27.3070
27.8968,27.3257
27.8782,27.3381
27.8562,27.3425
Z" /> 
<path style="fill:#B4A09A; fill-opacity:0.9000; 
stroke:#B4A09A; stroke-width:0.0000; stroke-opacity:1; 
stroke-linecap:round; stroke-linejoin:round;fill-rule:evenodd;"
d="M 27.4712,26.9425
27.4492,26.9381
27.4305,26.9257
27.4181,26.9070
27.4137,26.8850
27.4137,26.7700
27.4181,26.7480
27.4305,26.7293
27.4492,26.7169
27.4712,26.7125
27.8562,26.7125
27.8782,26.7169
27.8968,26.7293
27.9093,26.7480
27.9137,26.7700
27.9137,26.8850
27.9093,26.9070
27.8968,26.9257
27.8782,26.9381
27.8562,26.9425
Z" /> 
<path style="fill:#B4A09A; fill-opacity:0.9000; 
stroke:#B4A09A; stroke-width:0.0000; stroke-opacity:1; 
stroke-linecap:round; stroke-linejoin:round;fill-rule:evenodd;"
d="M 27.4712,26.5425
27.4492,26.5381
27.4305,26.5257
27.4181,26.5070
27.4137,26.4850
27.4137,26.3700
27.4181,26.3480
27.4305,26.3293
27.4492,26.3169
27.4712,26.3125
27.8562,26.3125
27.8782,26.3169
27.8968,26.3293
27.9093,26.3480
27.9137,26.3700
27.9137,26.4850
27.9093,26.5070
27.8968,26.5257
27.8782,26.5381
27.8562,26.5425
Z" /> 
<path style="fill:#B4A09A; fill-opacity:0.9000; 
stroke:#B4A09A; stroke-width:0.0000; stroke-opacity:1; 
stroke-linecap:round; stroke-linejoin:round;fill-rule:evenodd;"
d="M 27.4712,26.1425
27.4492,26.1381
27.4305,26.1257
27.4181,26.1070
27.4137,26.0850
27.4137,25.9700
27.4181,25.9480
27.4305,25.9293
27.4492,25.9169
27.4712,25.9125
27.8562,25.9125
27.8782,25.9169
27.8968,25.9293
27.9093,25.9480
27.9137,25.9700
27.9137,26.0850
27.9093,26.1070
27.8968,26.1257
27.8782,26.1381
27.8562,26.1425
Z" /> 
<path style="fill:#B4A09A; fill-opacity:0.9000; 
stroke:#B4A09A; stroke-width:0.0000; stroke-opacity:1; 
stroke-linecap:round; stroke-linejoin:round;fill-rule:evenodd;"
d="M 27.4712,25.7425
27.4492,25.7381
27.4305,25.7257
27.4181,25.7070
27.4137,25.6850
27.4137,25.5700
27.4181,25.5480
27.4305,25.5293
27.4492,25.5169
27.4712,25.5125
27.8562,25.5125
27.8782,25.5169
27.8968,25.5293
27.9093,25.5480
27.9137,25.5700
27.9137,25.6850
27.9093,25.7070
27.8968,25.7257
27.8782,25.7381
27.8562,25.7425
Z" /> 
<path style="fill:#B4A09A; fill-opacity:0.9000; 
stroke:#B4A09A; stroke-width:0.0000; stroke-opacity:1; 
stroke-linecap:round; stroke-linejoin:round;fill-rule:evenodd;"
d="M 27.4712,25.3425
27.4492,25.3381
27.4305,25.3257
27.4181,25.3070
27.4137,25.2850
27.4137,25.1700
27.4181,25.1480
27.4305,25.1293
27.4492,25.1169
27.4712,25.1125
27.8562,25.1125
27.8782,25.1169
27.8968,25.1293
27.9093,25.1480
27.9137,25.1700
27.9137,25.2850
27.9093,25.3070
27.8968,25.3257
27.8782,25.3381
27.8562,25.3425
Z" /> 
<path style="fill:#B4A09A; fill-opacity:0.9000; 
stroke:#B4A09A; stroke-width:0.0000; stroke-opacity:1; 
stroke-linecap:round; stroke-linejoin:round;fill-rule:evenodd;"
d="M 27.4712,24.9425
27.4492,24.9381
27.4305,24.9257
27.4181,24.9070
27.4137,24.8850
27.4137,24.7700
27.4181,24.7480
27.4305,24.7293
27.4492,24.7169
27.4712,24.7125
27.8562,24.7125
27.8782,24.7169
27.8968,24.7293
27.9093,24.7480
27.9137,24.7700
27.9137,24.8850
27.9093,24.9070
27.8968,24.9257
27.8782,24.9381
27.8562,24.9425
Z" /> 
<path style="fill:#B4A09A; fill-opacity:0.9000; 
stroke:#B4A09A; stroke-width:0.0000; stroke-opacity:1; 
stroke-linecap:round; stroke-linejoin:round;fill-rule:evenodd;"
d="M 27.4712,24.5425
27.4492,24.5381
27.4305,24.5257
27.4181,24.5070
27.4137,24.4850
27.4137,24.3700
27.4181,24.3480
27.4305,24.3293
27.4492,24.3169
27.4712,24.3125
27.8562,24.3125
27.8782,24.3169
27.8968,24.3293
27.9093,24.3480
27.9137,24.3700
27.9137,24.4850
27.9093,24.5070
27.8968,24.5257
27.8782,24.5381
27.8562,24.5425
Z" /> 
<path style="fill:#B4A09A; fill-opacity:0.9000; 
stroke:#B4A09A; stroke-width:0.0000; stroke-opacity:1; 
stroke-linecap:round; stroke-linejoin:round;fill-rule:evenodd;"
d="M 27.4712,24.1425
27.4492,24.1381
27.4305,24.1257
27.4181,24.1070
27.4137,24.0850
27.4137,23.9700
27.4181,23.9480
27.4305,23.9293
27.4492,23.9169
27.4712,23.9125
27.8562,23.9125
27.8782,23.9169
27.8968,23.9293
27.9093,23.9480
27.9137,23.9700
27.9137,24.0850
27.9093,24.1070
27.8968,24.1257
27.8782,24.1381
27.8562,24.1425
Z" /> 
<path style="fill:#B4A09A; fill-opacity:0.9000; 
stroke:#B4A09A; stroke-width:0.0000; stroke-opacity:1; 
stroke-linecap:round; stroke-linejoin:round;fill-rule:evenodd;"
d="M 27.4712,23.7425
27.4492,23.7381
27.4305,23.7257
27.4181,23.7070
27.4137,23.6850
27.4137,23.5700
27.4181,23.5480
27.4305,23.5293
27.4492,23.5169
27.4712,23.5125
27.8562,23.5125
27.8782,23.5169
27.8968,23.5293
27.9093,23.5480
27.9137,23.5700
27.9137,23.6850
27.9093,23.7070
27.8968,23.7257
27.8782,23.7381
27.8562,23.7425
Z" /> 
<path style="fill:#B4A09A; fill-opacity:0.9000; 
stroke:#B4A09A; stroke-width:0.0000; stroke-opacity:1; 
stroke-linecap:round; stroke-linejoin:round;fill-rule:evenodd;"
d="M 27.4712,23.3425
27.4492,23.3381
27.4305,23.3257
27.4181,23.3070
27.4137,23.2850
27.4137,23.1700
27.4181,23.1480
27.4305,23.1293
27.4492,23.1169
27.4712,23.1125
27.8562,23.1125
27.8782,23.1169
27.8968,23.1293
27.9093,23.1480
27.9137,23.1700
27.9137,23.2850
27.9093,23.3070
27.8968,23.3257
27.8782,23.3381
27.8562,23.3425
Z" /> 
<path style="fill:#B4A09A; fill-opacity:0.9000; 
stroke:#B4A09A; stroke-width:0.0000; stroke-opacity:1; 
stroke-linecap:round; stroke-linejoin:round;fill-rule:evenodd;"
d="M 27.4712,22.9425
27.4492,22.9381
27.4305,22.9257
27.4181,22.9070
27.4137,22.8850
27.4137,22.7700
27.4181,22.7480
27.4305,22.7293
27.4492,22.7169
27.4712,22.7125
27.8562,22.7125
27.8782,22.7169
27.8968,22.7293
27.9093,22.7480
27.9137,22.7700
27.9137,22.8850
27.9093,22.9070
27.8968,22.9257
27.8782,22.9381
27.8562,22.9425
Z" /> 
<path style="fill:#B4A09A; fill-opacity:0.9000; 
stroke:#B4A09A; stroke-width:0.0000; stroke-opacity:1; 
stroke-linecap:round; stroke-linejoin:round;fill-rule:evenodd;"
d="M 27.4712,22.5425
27.4492,22.5381
27.4305,22.5257
27.4181,22.5070
27.4137,22.4850
27.4137,22.3700
27.4181,22.3480
27.4305,22.3293
27.4492,22.3169
27.4712,22.3125
27.8562,22.3125
27.8782,22.3169
27.8968,22.3293
27.9093,22.3480
27.9137,22.3700
27.9137,22.4850
27.9093,22.5070
27.8968,22.5257
27.8782,22.5381
27.8562,22.5425
Z" /> 
<path style="fill:#B4A09A; fill-opacity:0.9000; 
stroke:#B4A09A; stroke-width:0.0000; stroke-opacity:1; 
stroke-linecap:round; stroke-linejoin:round;fill-rule:evenodd;"
d="M 27.4712,22.1425
27.4492,22.1381
27.4305,22.1257
27.4181,22.1070
27.4137,22.0850
27.4137,21.9700
27.4181,21.9480
27.4305,21.9293
27.4492,21.9169
27.4712,21.9125
27.8562,21.9125
27.8782,21.9169
27.8968,21.9293
27.9093,21.9480
27.9137,21.9700
27.9137,22.0850
27.9093,22.1070
27.8968,22.1257
27.8782,22.1381
27.8562,22.1425
Z" /> 
<path style="fill:#B4A09A; fill-opacity:0.9000; 
stroke:#B4A09A; stroke-width:0.0000; stroke-opacity:1; 
stroke-linecap:round; stroke-linejoin:round;fill-rule:evenodd;"
d="M 27.4712,21.7425
27.4492,21.7381
27.4305,21.7257
27.4181,21.7070
27.4137,21.6850
27.4137,21.5700
27.4181,21.5480
27.4305,21.5293
27.4492,21.5169
27.4712,21.5125
27.8562,21.5125
27.8782,21.5169
27.8968,21.5293
27.9093,21.5480
27.9137,21.5700
27.9137,21.6850
27.9093,21.7070
27.8968,21.7257
27.8782,21.7381
27.8562,21.7425
Z" /> 
<path style="fill:#B4A09A; fill-opacity:0.9000; 
stroke:#B4A09A; stroke-width:0.0000; stroke-opacity:1; 
stroke-linecap:round; stroke-linejoin:round;fill-rule:evenodd;"
d="M 28.3237,27.6775
28.3237,28.5775
27.6737,28.5775
27.4037,28.3075
27.4037,27.6775
Z" /> 
<path style="fill:#B4A09A; fill-opacity:0.9000; 
stroke:#B4A09A; stroke-width:0.0000; stroke-opacity:1; 
stroke-linecap:round; stroke-linejoin:round;fill-rule:evenodd;"
d="M 29.4137,27.6675
30.3137,27.6675
30.3137,28.3175
30.0437,28.5875
29.4137,28.5875
Z" /> 
<path style="fill:#B4A09A; fill-opacity:0.9000; 
stroke:#B4A09A; stroke-width:0.0000; stroke-opacity:1; 
stroke-linecap:round; stroke-linejoin:round;fill-rule:evenodd;"
d="M 28.3137,21.1875
27.4137,21.1875
27.4137,20.5375
27.6837,20.2675
28.3137,20.2675
Z" /> 
<path style="fill:#B4A09A; fill-opacity:0.9000; 
stroke:#B4A09A; stroke-width:0.0000; stroke-opacity:1; 
stroke-linecap:round; stroke-linejoin:round;fill-rule:evenodd;"
d="M 29.4037,21.1775
29.4037,20.2775
30.0537,20.2775
30.3237,20.5475
30.3237,21.1775
Z" /> 
</g>
<g >
</g>
<g style="fill:#B4A09A; fill-opacity:0.9000; 
stroke:#B4A09A; stroke-width:0.0000; stroke-opacity:1; 
stroke-linecap:round; stroke-linejoin:round;">
<path style="fill:#B4A09A; fill-opacity:0.9000; 
stroke:#B4A09A; stroke-width:0.0000; stroke-opacity:1; 
stroke-linecap:round; stroke-linejoin:round;fill-rule:evenodd;"
d="M 16.6837,13.0375
15.8837,13.0375
15.8837,11.4375
16.6837,11.4375
Z" /> 
</g>
<g >
</g>
<g style="fill:#B4A09A; fill-opacity:0.9000; 
stroke:#B4A09A; stroke-width:0.0000; stroke-opacity:1; 
stroke-linecap:round; stroke-linejoin:round;">
<path style="fill:#B4A09A; fill-opacity:0.9000; 
stroke:#B4A09A; stroke-width:0.0000; stroke-opacity:1; 
stroke-linecap:round; stroke-linejoin:round;fill-rule:evenodd;"
d="M 19.6087,35.7875
19.5916,35.8736
19.5428,35.9466
19.4698,35.9954
19.3837,36.0125
18.9337,36.0125
18.8476,35.9954
18.7746,35.9466
18.7258,35.8736
18.7087,35.7875
18.7087,35.2875
18.7258,35.2014
18.7746,35.1284
18.8476,35.0796
18.9337,35.0625
19.3837,35.0625
19.4698,35.0796
19.5428,35.1284
19.5916,35.2014
19.6087,35.2875
Z" /> 
<path style="fill:#B4A09A; fill-opacity:0.9000; 
stroke:#B4A09A; stroke-width:0.0000; stroke-opacity:1; 
stroke-linecap:round; stroke-linejoin:round;fill-rule:evenodd;"
d="M 18.0587,35.7875
18.0416,35.8736
17.9928,35.9466
17.9198,35.9954
17.8337,36.0125
17.3837,36.0125
17.2976,35.9954
17.2246,35.9466
17.1758,35.8736
17.1587,35.7875
17.1587,35.2875
17.1758,35.2014
17.2246,35.1284
17.2976,35.0796
17.3837,35.0625
17.8337,35.0625
17.9198,35.0796
17.9928,35.1284
18.0416,35.2014
18.0587,35.2875
Z" /> 
</g>
<g >
</g>
<g style="fill:#B4A09A; fill-opacity:0.9000; 
stroke:#B4A09A; stroke-width:0.0000; stroke-opacity:1; 
stroke-linecap:round; stroke-linejoin:round;">
<path style="fill:#B4A09A; fill-opacity:0.9000; 
stroke:#B4A09A; stroke-width:0.0000; stroke-opacity:1; 
stroke-linecap:round; stroke-linejoin:round;fill-rule:evenodd;"
d="M 30.5837,5.4875
30.5837,4.6875
32.1837,4.6875
32.1837,5.4875
Z" /> 
</g>
<g >
</g>
<g style="fill:#B4A09A; fill-opacity:0.9000; 
stroke:#B4A09A; stroke-width:0.0000; stroke-opacity:1; 
stroke-linecap:round; stroke-linejoin:round;">
<path style="fill:#B4A09A; fill-opacity:0.9000; 
stroke:#B4A09A; stroke-width:0.0000; stroke-opacity:1; 
stroke-linecap:round; stroke-linejoin:round;fill-rule:evenodd;"
d="M 18.5837,34.5125
18.4976,34.4954
18.4246,34.4466
18.3758,34.3736
18.3587,34.2875
18.3587,33.8375
18.3758,33.7514
18.4246,33.6784
18.4976,33.6296
18.5837,33.6125
19.0837,33.6125
19.1698,33.6296
19.2428,33.6784
19.2916,33.7514
19.3087,33.8375
19.3087,34.2875
19.2916,34.3736
19.2428,34.4466
19.1698,34.4954
19.0837,34.5125
Z" /> 
<path style="fill:#B4A09A; fill-opacity:0.9000; 
stroke:#B4A09A; stroke-width:0.0000; stroke-opacity:1; 
stroke-linecap:round; stroke-linejoin:round;fill-rule:evenodd;"
d="M 18.5837,32.9625
18.4976,32.9454
18.4246,32.8966
18.3758,32.8236
18.3587,32.7375
18.3587,32.2875
18.3758,32.2014
18.4246,32.1284
18.4976,32.0796
18.5837,32.0625
19.0837,32.0625
19.1698,32.0796
19.2428,32.1284
19.2916,32.2014
19.3087,32.2875
19.3087,32.7375
19.2916,32.8236
19.2428,32.8966
19.1698,32.9454
19.0837,32.9625
Z" /> 
</g>
<g >
</g>
<g style="fill:#B4A09A; fill-opacity:0.9000; 
stroke:#B4A09A; stroke-width:0.0000; stroke-opacity:1; 
stroke-linecap:round; stroke-linejoin:round;">
<path style="fill:#B4A09A; fill-opacity:0.9000; 
stroke:#B4A09A; stroke-width:0.0000; stroke-opacity:1; 
stroke-linecap:round; stroke-linejoin:round;fill-rule:evenodd;"
d="M 20.6165,36.9625
20.6154,36.9623
20.6145,36.9617
20.6139,36.9608
20.6137,36.9597
20.6137,36.4353
20.6139,36.4342
20.6145,36.4333
20.6154,36.4327
20.6165,36.4325
20.8909,36.4325
20.8920,36.4327
20.8929,36.4333
20.8935,36.4342
20.8937,36.4353
20.8937,36.9597
20.8935,36.9608
20.8929,36.9617
20.8920,36.9623
20.8909,36.9625
Z" /> 
<path style="fill:#B4A09A; fill-opacity:0.9000; 
stroke:#B4A09A; stroke-width:0.0000; stroke-opacity:1; 
stroke-linecap:round; stroke-linejoin:round;fill-rule:evenodd;"
d="M 21.0537,37.4097
21.0535,37.4108
21.0529,37.4117
21.0520,37.4123
21.0509,37.4125
20.5265,37.4125
20.5254,37.4123
20.5245,37.4117
20.5239,37.4108
20.5237,37.4097
20.5237,37.1353
20.5239,37.1342
20.5245,37.1333
20.5254,37.1327
20.5265,37.1325
21.0509,37.1325
21.0520,37.1327
21.0529,37.1333
21.0535,37.1342
21.0537,37.1353
Z" /> 
<path style="fill:#B4A09A; fill-opacity:0.9000; 
stroke:#B4A09A; stroke-width:0.0000; stroke-opacity:1; 
stroke-linecap:round; stroke-linejoin:round;fill-rule:evenodd;"
d="M 21.0537,37.8397
21.0535,37.8408
21.0529,37.8417
21.0520,37.8423
21.0509,37.8425
20.5265,37.8425
20.5254,37.8423
20.5245,37.8417
20.5239,37.8408
20.5237,37.8397
20.5237,37.5653
20.5239,37.5642
20.5245,37.5633
20.5254,37.5627
20.5265,37.5625
21.0509,37.5625
21.0520,37.5627
21.0529,37.5633
21.0535,37.5642
21.0537,37.5653
Z" /> 
<path style="fill:#B4A09A; fill-opacity:0.9000; 
stroke:#B4A09A; stroke-width:0.0000; stroke-opacity:1; 
stroke-linecap:round; stroke-linejoin:round;fill-rule:evenodd;"
d="M 21.0537,38.2697
21.0535,38.2708
21.0529,38.2717
21.0520,38.2723
21.0509,38.2725
20.5265,38.2725
20.5254,38.2723
20.5245,38.2717
20.5239,38.2708
20.5237,38.2697
20.5237,37.9953
20.5239,37.9942
20.5245,37.9933
20.5254,37.9927
20.5265,37.9925
21.0509,37.9925
21.0520,37.9927
21.0529,37.9933
21.0535,37.9942
21.0537,37.9953
Z" /> 
<path style="fill:#B4A09A; fill-opacity:0.9000; 
stroke:#B4A09A; stroke-width:0.0000; stroke-opacity:1; 
stroke-linecap:round; stroke-linejoin:round;fill-rule:evenodd;"
d="M 21.0537,38.6997
21.0535,38.7008
21.0529,38.7017
21.0520,38.7023
21.0509,38.7025
20.5265,38.7025
20.5254,38.7023
20.5245,38.7017
20.5239,38.7008
20.5237,38.6997
20.5237,38.4253
20.5239,38.4242
20.5245,38.4233
20.5254,38.4227
20.5265,38.4225
21.0509,38.4225
21.0520,38.4227
21.0529,38.4233
21.0535,38.4242
21.0537,38.4253
Z" /> 
<path style="fill:#B4A09A; fill-opacity:0.9000; 
stroke:#B4A09A; stroke-width:0.0000; stroke-opacity:1; 
stroke-linecap:round; stroke-linejoin:round;fill-rule:evenodd;"
d="M 20.8909,38.8725
20.8920,38.8727
20.8929,38.8733
20.8935,38.8742
20.8937,38.8753
20.8937,39.3997
20.8935,39.4008
20.8929,39.4017
20.8920,39.4023
20.8909,39.4025
20.6165,39.4025
20.6154,39.4023
20.6145,39.4017
20.6139,39.4008
20.6137,39.3997
20.6137,38.8753
20.6139,38.8742
20.6145,38.8733
20.6154,38.8727
20.6165,38.8725
Z" /> 
<path style="fill:#B4A09A; fill-opacity:0.9000; 
stroke:#B4A09A; stroke-width:0.0000; stroke-opacity:1; 
stroke-linecap:round; stroke-linejoin:round;fill-rule:evenodd;"
d="M 21.3209,38.8725
21.3220,38.8727
21.3229,38.8733
21.3235,38.8742
21.3237,38.8753
21.3237,39.3997
21.3235,39.4008
21.3229,39.4017
21.3220,39.4023
21.3209,39.4025
21.0465,39.4025
21.0454,39.4023
21.0445,39.4017
21.0439,39.4008
21.0437,39.3997
21.0437,38.8753
21.0439,38.8742
21.0445,38.8733
21.0454,38.8727
21.0465,38.8725
Z" /> 
<path style="fill:#B4A09A; fill-opacity:0.9000; 
stroke:#B4A09A; stroke-width:0.0000; stroke-opacity:1; 
stroke-linecap:round; stroke-linejoin:round;fill-rule:evenodd;"
d="M 21.7509,38.8725
21.7520,38.8727
21.7529,38.8733
21.7535,38.8742
21.7537,38.8753
21.7537,39.3997
21.7535,39.4008
21.7529,39.4017
21.7520,39.4023
21.7509,39.4025
21.4765,39.4025
21.4754,39.4023
21.4745,39.4017
21.4739,39.4008
21.4737,39.3997
21.4737,38.8753
21.4739,38.8742
21.4745,38.8733
21.4754,38.8727
21.4765,38.8725
Z" /> 
<path style="fill:#B4A09A; fill-opacity:0.9000; 
stroke:#B4A09A; stroke-width:0.0000; stroke-opacity:1; 
stroke-linecap:round; stroke-linejoin:round;fill-rule:evenodd;"
d="M 22.1809,38.8725
22.1820,38.8727
22.1829,38.8733
22.1835,38.8742
22.1837,38.8753
22.1837,39.3997
22.1835,39.4008
22.1829,39.4017
22.1820,39.4023
22.1809,39.4025
21.9065,39.4025
21.9054,39.4023
21.9045,39.4017
21.9039,39.4008
21.9037,39.3997
21.9037,38.8753
21.9039,38.8742
21.9045,38.8733
21.9054,38.8727
21.9065,38.8725
Z" /> 
<path style="fill:#B4A09A; fill-opacity:0.9000; 
stroke:#B4A09A; stroke-width:0.0000; stroke-opacity:1; 
stroke-linecap:round; stroke-linejoin:round;fill-rule:evenodd;"
d="M 22.6109,38.8725
22.6120,38.8727
22.6129,38.8733
22.6135,38.8742
22.6137,38.8753
22.6137,39.3997
22.6135,39.4008
22.6129,39.4017
22.6120,39.4023
22.6109,39.4025
22.3365,39.4025
22.3354,39.4023
22.3345,39.4017
22.3339,39.4008
22.3337,39.3997
22.3337,38.8753
22.3339,38.8742
22.3345,38.8733
22.3354,38.8727
22.3365,38.8725
Z" /> 
<path style="fill:#B4A09A; fill-opacity:0.9000; 
stroke:#B4A09A; stroke-width:0.0000; stroke-opacity:1; 
stroke-linecap:round; stroke-linejoin:round;fill-rule:evenodd;"
d="M 23.0409,38.8725
23.0420,38.8727
23.0429,38.8733
23.0435,38.8742
23.0437,38.8753
23.0437,39.3997
23.0435,39.4008
23.0429,39.4017
23.0420,39.4023
23.0409,39.4025
22.7665,39.4025
22.7654,39.4023
22.7645,39.4017
22.7639,39.4008
22.7637,39.3997
22.7637,38.8753
22.7639,38.8742
22.7645,38.8733
22.7654,38.8727
22.7665,38.8725
Z" /> 
<path style="fill:#B4A09A; fill-opacity:0.9000; 
stroke:#B4A09A; stroke-width:0.0000; stroke-opacity:1; 
stroke-linecap:round; stroke-linejoin:round;fill-rule:evenodd;"
d="M 23.4709,38.8725
23.4720,38.8727
23.4729,38.8733
23.4735,38.8742
23.4737,38.8753
23.4737,39.3997
23.4735,39.4008
23.4729,39.4017
23.4720,39.4023
23.4709,39.4025
23.1965,39.4025
23.1954,39.4023
23.1945,39.4017
23.1939,39.4008
23.1937,39.3997
23.1937,38.8753
23.1939,38.8742
23.1945,38.8733
23.1954,38.8727
23.1965,38.8725
Z" /> 
<path style="fill:#B4A09A; fill-opacity:0.9000; 
stroke:#B4A09A; stroke-width:0.0000; stroke-opacity:1; 
stroke-linecap:round; stroke-linejoin:round;fill-rule:evenodd;"
d="M 23.9009,38.8725
23.9020,38.8727
23.9029,38.8733
23.9035,38.8742
23.9037,38.8753
23.9037,39.3997
23.9035,39.4008
23.9029,39.4017
23.9020,39.4023
23.9009,39.4025
23.6265,39.4025
23.6254,39.4023
23.6245,39.4017
23.6239,39.4008
23.6237,39.3997
23.6237,38.8753
23.6239,38.8742
23.6245,38.8733
23.6254,38.8727
23.6265,38.8725
Z" /> 
<path style="fill:#B4A09A; fill-opacity:0.9000; 
stroke:#B4A09A; stroke-width:0.0000; stroke-opacity:1; 
stroke-linecap:round; stroke-linejoin:round;fill-rule:evenodd;"
d="M 23.4637,38.4253
23.4639,38.4242
23.4645,38.4233
23.4654,38.4227
23.4665,38.4225
23.9909,38.4225
23.9920,38.4227
23.9929,38.4233
23.9935,38.4242
23.9937,38.4253
23.9937,38.6997
23.9935,38.7008
23.9929,38.7017
23.9920,38.7023
23.9909,38.7025
23.4665,38.7025
23.4654,38.7023
23.4645,38.7017
23.4639,38.7008
23.4637,38.6997
Z" /> 
<path style="fill:#B4A09A; fill-opacity:0.9000; 
stroke:#B4A09A; stroke-width:0.0000; stroke-opacity:1; 
stroke-linecap:round; stroke-linejoin:round;fill-rule:evenodd;"
d="M 23.4637,37.9953
23.4639,37.9942
23.4645,37.9933
23.4654,37.9927
23.4665,37.9925
23.9909,37.9925
23.9920,37.9927
23.9929,37.9933
23.9935,37.9942
23.9937,37.9953
23.9937,38.2697
23.9935,38.2708
23.9929,38.2717
23.9920,38.2723
23.9909,38.2725
23.4665,38.2725
23.4654,38.2723
23.4645,38.2717
23.4639,38.2708
23.4637,38.2697
Z" /> 
<path style="fill:#B4A09A; fill-opacity:0.9000; 
stroke:#B4A09A; stroke-width:0.0000; stroke-opacity:1; 
stroke-linecap:round; stroke-linejoin:round;fill-rule:evenodd;"
d="M 23.4637,37.5653
23.4639,37.5642
23.4645,37.5633
23.4654,37.5627
23.4665,37.5625
23.9909,37.5625
23.9920,37.5627
23.9929,37.5633
23.9935,37.5642
23.9937,37.5653
23.9937,37.8397
23.9935,37.8408
23.9929,37.8417
23.9920,37.8423
23.9909,37.8425
23.4665,37.8425
23.4654,37.8423
23.4645,37.8417
23.4639,37.8408
23.4637,37.8397
Z" /> 
<path style="fill:#B4A09A; fill-opacity:0.9000; 
stroke:#B4A09A; stroke-width:0.0000; stroke-opacity:1; 
stroke-linecap:round; stroke-linejoin:round;fill-rule:evenodd;"
d="M 23.4637,37.1353
23.4639,37.1342
23.4645,37.1333
23.4654,37.1327
23.4665,37.1325
23.9909,37.1325
23.9920,37.1327
23.9929,37.1333
23.9935,37.1342
23.9937,37.1353
23.9937,37.4097
23.9935,37.4108
23.9929,37.4117
23.9920,37.4123
23.9909,37.4125
23.4665,37.4125
23.4654,37.4123
23.4645,37.4117
23.4639,37.4108
23.4637,37.4097
Z" /> 
<path style="fill:#B4A09A; fill-opacity:0.9000; 
stroke:#B4A09A; stroke-width:0.0000; stroke-opacity:1; 
stroke-linecap:round; stroke-linejoin:round;fill-rule:evenodd;"
d="M 23.6265,36.9625
23.6254,36.9623
23.6245,36.9617
23.6239,36.9608
23.6237,36.9597
23.6237,36.4353
23.6239,36.4342
23.6245,36.4333
23.6254,36.4327
23.6265,36.4325
23.9009,36.4325
23.9020,36.4327
23.9029,36.4333
23.9035,36.4342
23.9037,36.4353
23.9037,36.9597
23.9035,36.9608
23.9029,36.9617
23.9020,36.9623
23.9009,36.9625
Z" /> 
<path style="fill:#B4A09A; fill-opacity:0.9000; 
stroke:#B4A09A; stroke-width:0.0000; stroke-opacity:1; 
stroke-linecap:round; stroke-linejoin:round;fill-rule:evenodd;"
d="M 23.1965,36.9625
23.1954,36.9623
23.1945,36.9617
23.1939,36.9608
23.1937,36.9597
23.1937,36.4353
23.1939,36.4342
23.1945,36.4333
23.1954,36.4327
23.1965,36.4325
23.4709,36.4325
23.4720,36.4327
23.4729,36.4333
23.4735,36.4342
23.4737,36.4353
23.4737,36.9597
23.4735,36.9608
23.4729,36.9617
23.4720,36.9623
23.4709,36.9625
Z" /> 
<path style="fill:#B4A09A; fill-opacity:0.9000; 
stroke:#B4A09A; stroke-width:0.0000; stroke-opacity:1; 
stroke-linecap:round; stroke-linejoin:round;fill-rule:evenodd;"
d="M 22.7665,36.9625
22.7654,36.9623
22.7645,36.9617
22.7639,36.9608
22.7637,36.9597
22.7637,36.4353
22.7639,36.4342
22.7645,36.4333
22.7654,36.4327
22.7665,36.4325
23.0409,36.4325
23.0420,36.4327
23.0429,36.4333
23.0435,36.4342
23.0437,36.4353
23.0437,36.9597
23.0435,36.9608
23.0429,36.9617
23.0420,36.9623
23.0409,36.9625
Z" /> 
<path style="fill:#B4A09A; fill-opacity:0.9000; 
stroke:#B4A09A; stroke-width:0.0000; stroke-opacity:1; 
stroke-linecap:round; stroke-linejoin:round;fill-rule:evenodd;"
d="M 22.3365,36.9625
22.3354,36.9623
22.3345,36.9617
22.3339,36.9608
22.3337,36.9597
22.3337,36.4353
22.3339,36.4342
22.3345,36.4333
22.3354,36.4327
22.3365,36.4325
22.6109,36.4325
22.6120,36.4327
22.6129,36.4333
22.6135,36.4342
22.6137,36.4353
22.6137,36.9597
22.6135,36.9608
22.6129,36.9617
22.6120,36.9623
22.6109,36.9625
Z" /> 
<path style="fill:#B4A09A; fill-opacity:0.9000; 
stroke:#B4A09A; stroke-width:0.0000; stroke-opacity:1; 
stroke-linecap:round; stroke-linejoin:round;fill-rule:evenodd;"
d="M 21.9065,36.9625
21.9054,36.9623
21.9045,36.9617
21.9039,36.9608
21.9037,36.9597
21.9037,36.4353
21.9039,36.4342
21.9045,36.4333
21.9054,36.4327
21.9065,36.4325
22.1809,36.4325
22.1820,36.4327
22.1829,36.4333
22.1835,36.4342
22.1837,36.4353
22.1837,36.9597
22.1835,36.9608
22.1829,36.9617
22.1820,36.9623
22.1809,36.9625
Z" /> 
<path style="fill:#B4A09A; fill-opacity:0.9000; 
stroke:#B4A09A; stroke-width:0.0000; stroke-opacity:1; 
stroke-linecap:round; stroke-linejoin:round;fill-rule:evenodd;"
d="M 21.4765,36.9625
21.4754,36.9623
21.4745,36.9617
21.4739,36.9608
21.4737,36.9597
21.4737,36.4353
21.4739,36.4342
21.4745,36.4333
21.4754,36.4327
21.4765,36.4325
21.7509,36.4325
21.7520,36.4327
21.7529,36.4333
21.7535,36.4342
21.7537,36.4353
21.7537,36.9597
21.7535,36.9608
21.7529,36.9617
21.7520,36.9623
21.7509,36.9625
Z" /> 
<path style="fill:#B4A09A; fill-opacity:0.9000; 
stroke:#B4A09A; stroke-width:0.0000; stroke-opacity:1; 
stroke-linecap:round; stroke-linejoin:round;fill-rule:evenodd;"
d="M 21.0465,36.9625
21.0454,36.9623
21.0445,36.9617
21.0439,36.9608
21.0437,36.9597
21.0437,36.4353
21.0439,36.4342
21.0445,36.4333
21.0454,36.4327
21.0465,36.4325
21.3209,36.4325
21.3220,36.4327
21.3229,36.4333
21.3235,36.4342
21.3237,36.4353
21.3237,36.9597
21.3235,36.9608
21.3229,36.9617
21.3220,36.9623
21.3209,36.9625
Z" /> 
</g>
<g >
</g>
<g style="fill:#B4A09A; fill-opacity:0.9000; 
stroke:#B4A09A; stroke-width:0.0000; stroke-opacity:1; 
stroke-linecap:round; stroke-linejoin:round;">
<path style="fill:#B4A09A; fill-opacity:0.9000; 
stroke:#B4A09A; stroke-width:0.0000; stroke-opacity:1; 
stroke-linecap:round; stroke-linejoin:round;fill-rule:evenodd;"
d="M 25.8087,8.9625
25.8087,10.1125
25.2087,10.1125
25.2087,8.9625
Z" /> 
<path style="fill:#B4A09A; fill-opacity:0.9000; 
stroke:#B4A09A; stroke-width:0.0000; stroke-opacity:1; 
stroke-linecap:round; stroke-linejoin:round;fill-rule:evenodd;"
d="M 25.0087,8.9625
25.0087,10.1125
24.4087,10.1125
24.4087,8.9625
Z" /> 
<path style="fill:#B4A09A; fill-opacity:0.9000; 
stroke:#B4A09A; stroke-width:0.0000; stroke-opacity:1; 
stroke-linecap:round; stroke-linejoin:round;fill-rule:evenodd;"
d="M 23.6587,8.9625
23.6587,10.1125
23.3587,10.1125
23.3587,8.9625
Z" /> 
<path style="fill:#B4A09A; fill-opacity:0.9000; 
stroke:#B4A09A; stroke-width:0.0000; stroke-opacity:1; 
stroke-linecap:round; stroke-linejoin:round;fill-rule:evenodd;"
d="M 22.6587,8.9625
22.6587,10.1125
22.3587,10.1125
22.3587,8.9625
Z" /> 
<path style="fill:#B4A09A; fill-opacity:0.9000; 
stroke:#B4A09A; stroke-width:0.0000; stroke-opacity:1; 
stroke-linecap:round; stroke-linejoin:round;fill-rule:evenodd;"
d="M 22.1587,8.9625
22.1587,10.1125
21.8587,10.1125
21.8587,8.9625
Z" /> 
<path style="fill:#B4A09A; fill-opacity:0.9000; 
stroke:#B4A09A; stroke-width:0.0000; stroke-opacity:1; 
stroke-linecap:round; stroke-linejoin:round;fill-rule:evenodd;"
d="M 21.1587,8.9625
21.1587,10.1125
20.8587,10.1125
20.8587,8.9625
Z" /> 
<path style="fill:#B4A09A; fill-opacity:0.9000; 
stroke:#B4A09A; stroke-width:0.0000; stroke-opacity:1; 
stroke-linecap:round; stroke-linejoin:round;fill-rule:evenodd;"
d="M 20.1087,8.9625
20.1087,10.1125
19.5087,10.1125
19.5087,8.9625
Z" /> 
<path style="fill:#B4A09A; fill-opacity:0.9000; 
stroke:#B4A09A; stroke-width:0.0000; stroke-opacity:1; 
stroke-linecap:round; stroke-linejoin:round;fill-rule:evenodd;"
d="M 19.3087,8.9625
19.3087,10.1125
18.7087,10.1125
18.7087,8.9625
Z" /> 
<path style="fill:#B4A09A; fill-opacity:0.9000; 
stroke:#B4A09A; stroke-width:0.0000; stroke-opacity:1; 
stroke-linecap:round; stroke-linejoin:round;fill-rule:evenodd;"
d="M 19.3087,8.9625
19.3087,10.1125
18.7087,10.1125
18.7087,8.9625
Z" /> 
<path style="fill:#B4A09A; fill-opacity:0.9000; 
stroke:#B4A09A; stroke-width:0.0000; stroke-opacity:1; 
stroke-linecap:round; stroke-linejoin:round;fill-rule:evenodd;"
d="M 20.1087,8.9625
20.1087,10.1125
19.5087,10.1125
19.5087,8.9625
Z" /> 
<path style="fill:#B4A09A; fill-opacity:0.9000; 
stroke:#B4A09A; stroke-width:0.0000; stroke-opacity:1; 
stroke-linecap:round; stroke-linejoin:round;fill-rule:evenodd;"
d="M 20.6587,8.9625
20.6587,10.1125
20.3587,10.1125
20.3587,8.9625
Z" /> 
<path style="fill:#B4A09A; fill-opacity:0.9000; 
stroke:#B4A09A; stroke-width:0.0000; stroke-opacity:1; 
stroke-linecap:round; stroke-linejoin:round;fill-rule:evenodd;"
d="M 21.6587,8.9625
21.6587,10.1125
21.3587,10.1125
21.3587,8.9625
Z" /> 
<path style="fill:#B4A09A; fill-opacity:0.9000; 
stroke:#B4A09A; stroke-width:0.0000; stroke-opacity:1; 
stroke-linecap:round; stroke-linejoin:round;fill-rule:evenodd;"
d="M 23.1587,8.9625
23.1587,10.1125
22.8587,10.1125
22.8587,8.9625
Z" /> 
<path style="fill:#B4A09A; fill-opacity:0.9000; 
stroke:#B4A09A; stroke-width:0.0000; stroke-opacity:1; 
stroke-linecap:round; stroke-linejoin:round;fill-rule:evenodd;"
d="M 24.1587,8.9625
24.1587,10.1125
23.8587,10.1125
23.8587,8.9625
Z" /> 
<path style="fill:#B4A09A; fill-opacity:0.9000; 
stroke:#B4A09A; stroke-width:0.0000; stroke-opacity:1; 
stroke-linecap:round; stroke-linejoin:round;fill-rule:evenodd;"
d="M 25.0087,8.9625
25.0087,10.1125
24.4087,10.1125
24.4087,8.9625
Z" /> 
<path style="fill:#B4A09A; fill-opacity:0.9000; 
stroke:#B4A09A; stroke-width:0.0000; stroke-opacity:1; 
stroke-linecap:round; stroke-linejoin:round;fill-rule:evenodd;"
d="M 25.8087,8.9625
25.8087,10.1125
25.2087,10.1125
25.2087,8.9625
Z" /> 
<path style="fill:#B4A09A; fill-opacity:0.9000; 
stroke:#B4A09A; stroke-width:0.0000; stroke-opacity:1; 
stroke-linecap:round; stroke-linejoin:round;fill-rule:evenodd;"
d="M 28.3587,7.8875
28.3970,7.8951
28.4294,7.9168
28.4511,7.9492
28.4587,7.9875
28.4587,9.7875
28.4511,9.8258
28.4294,9.8582
28.3970,9.8799
28.3587,9.8875
26.3787,9.8875
26.3404,9.8799
26.3080,9.8582
26.2863,9.8258
26.2787,9.7875
26.2787,7.9875
26.2863,7.9492
26.3080,7.9168
26.3404,7.8951
26.3787,7.8875
Z" /> 
<path style="fill:#B4A09A; fill-opacity:0.9000; 
stroke:#B4A09A; stroke-width:0.0000; stroke-opacity:1; 
stroke-linecap:round; stroke-linejoin:round;fill-rule:evenodd;"
d="M 28.3587,3.9575
28.3970,3.9651
28.4294,3.9868
28.4511,4.0192
28.4587,4.0575
28.4587,5.8575
28.4511,5.8958
28.4294,5.9282
28.3970,5.9499
28.3587,5.9575
26.3787,5.9575
26.3404,5.9499
26.3080,5.9282
26.2863,5.8958
26.2787,5.8575
26.2787,4.0575
26.2863,4.0192
26.3080,3.9868
26.3404,3.9651
26.3787,3.9575
Z" /> 
<path style="fill:#B4A09A; fill-opacity:0.9000; 
stroke:#B4A09A; stroke-width:0.0000; stroke-opacity:1; 
stroke-linecap:round; stroke-linejoin:round;fill-rule:evenodd;"
d="M 18.1387,7.8875
18.1770,7.8951
18.2094,7.9168
18.2311,7.9492
18.2387,7.9875
18.2387,9.7875
18.2311,9.8258
18.2094,9.8582
18.1770,9.8799
18.1387,9.8875
16.1587,9.8875
16.1204,9.8799
16.0880,9.8582
16.0663,9.8258
16.0587,9.7875
16.0587,7.9875
16.0663,7.9492
16.0880,7.9168
16.1204,7.8951
16.1587,7.8875
Z" /> 
<path style="fill:#B4A09A; fill-opacity:0.9000; 
stroke:#B4A09A; stroke-width:0.0000; stroke-opacity:1; 
stroke-linecap:round; stroke-linejoin:round;fill-rule:evenodd;"
d="M 18.1387,3.9575
18.1770,3.9651
18.2094,3.9868
18.2311,4.0192
18.2387,4.0575
18.2387,5.8575
18.2311,5.8958
18.2094,5.9282
18.1770,5.9499
18.1387,5.9575
16.1587,5.9575
16.1204,5.9499
16.0880,5.9282
16.0663,5.8958
16.0587,5.8575
16.0587,4.0575
16.0663,4.0192
16.0880,3.9868
16.1204,3.9651
16.1587,3.9575
Z" /> 
</g>
<g >
</g>
<g style="fill:#B4A09A; fill-opacity:0.9000; 
stroke:#B4A09A; stroke-width:0.0000; stroke-opacity:1; 
stroke-linecap:round; stroke-linejoin:round;">
<path style="fill:#B4A09A; fill-opacity:0.9000; 
stroke:#B4A09A; stroke-width:0.0000; stroke-opacity:1; 
stroke-linecap:round; stroke-linejoin:round;fill-rule:evenodd;"
d="M 20.1337,34.5125
20.0476,34.4954
19.9746,34.4466
19.9258,34.3736
19.9087,34.2875
19.9087,33.8375
19.9258,33.7514
19.9746,33.6784
20.0476,33.6296
20.1337,33.6125
20.6337,33.6125
20.7198,33.6296
20.7928,33.6784
20.8416,33.7514
20.8587,33.8375
20.8587,34.2875
20.8416,34.3736
20.7928,34.4466
20.7198,34.4954
20.6337,34.5125
Z" /> 
<path style="fill:#B4A09A; fill-opacity:0.9000; 
stroke:#B4A09A; stroke-width:0.0000; stroke-opacity:1; 
stroke-linecap:round; stroke-linejoin:round;fill-rule:evenodd;"
d="M 20.1337,32.9625
20.0476,32.9454
19.9746,32.8966
19.9258,32.8236
19.9087,32.7375
19.9087,32.2875
19.9258,32.2014
19.9746,32.1284
20.0476,32.0796
20.1337,32.0625
20.6337,32.0625
20.7198,32.0796
20.7928,32.1284
20.8416,32.2014
20.8587,32.2875
20.8587,32.7375
20.8416,32.8236
20.7928,32.8966
20.7198,32.9454
20.6337,32.9625
Z" /> 
</g>
<g >
</g>
<g style="fill:#B4A09A; fill-opacity:0.9000; 
stroke:#B4A09A; stroke-width:0.0000; stroke-opacity:1; 
stroke-linecap:round; stroke-linejoin:round;">
<path style="fill:#B4A09A; fill-opacity:0.9000; 
stroke:#B4A09A; stroke-width:0.0000; stroke-opacity:1; 
stroke-linecap:round; stroke-linejoin:round;fill-rule:evenodd;"
d="M 19.4337,12.9875
18.6337,12.9875
18.6337,11.3875
19.4337,11.3875
Z" /> 
</g>
<g >
</g>
<g style="fill:#B4A09A; fill-opacity:0.9000; 
stroke:#B4A09A; stroke-width:0.0000; stroke-opacity:1; 
stroke-linecap:round; stroke-linejoin:round;">
<path style="fill:#B4A09A; fill-opacity:0.9000; 
stroke:#B4A09A; stroke-width:0.0000; stroke-opacity:1; 
stroke-linecap:round; stroke-linejoin:round;fill-rule:evenodd;"
d="M 18.7837,39.4625
18.6976,39.4454
18.6246,39.3966
18.5758,39.3236
18.5587,39.2375
18.5587,38.7875
18.5758,38.7014
18.6246,38.6284
18.6976,38.5796
18.7837,38.5625
19.2837,38.5625
19.3698,38.5796
19.4428,38.6284
19.4916,38.7014
19.5087,38.7875
19.5087,39.2375
19.4916,39.3236
19.4428,39.3966
19.3698,39.4454
19.2837,39.4625
Z" /> 
<path style="fill:#B4A09A; fill-opacity:0.9000; 
stroke:#B4A09A; stroke-width:0.0000; stroke-opacity:1; 
stroke-linecap:round; stroke-linejoin:round;fill-rule:evenodd;"
d="M 18.7837,37.9125
18.6976,37.8954
18.6246,37.8466
18.5758,37.7736
18.5587,37.6875
18.5587,37.2375
18.5758,37.1514
18.6246,37.0784
18.6976,37.0296
18.7837,37.0125
19.2837,37.0125
19.3698,37.0296
19.4428,37.0784
19.4916,37.1514
19.5087,37.2375
19.5087,37.6875
19.4916,37.7736
19.4428,37.8466
19.3698,37.8954
19.2837,37.9125
Z" /> 
</g>
<g >
</g>
<g style="fill:#B4A09A; fill-opacity:0.9000; 
stroke:#B4A09A; stroke-width:0.0000; stroke-opacity:1; 
stroke-linecap:round; stroke-linejoin:round;">
<path style="fill:#B4A09A; fill-opacity:0.9000; 
stroke:#B4A09A; stroke-width:0.0000; stroke-opacity:1; 
stroke-linecap:round; stroke-linejoin:round;fill-rule:evenodd;"
d="M 26.3337,12.9875
25.5337,12.9875
25.5337,11.3875
26.3337,11.3875
Z" /> 
</g>
<g >
</g>
<g style="fill:#B4A09A; fill-opacity:0.9000; 
stroke:#B4A09A; stroke-width:0.0000; stroke-opacity:1; 
stroke-linecap:round; stroke-linejoin:round;">
<path style="fill:#B4A09A; fill-opacity:0.9000; 
stroke:#B4A09A; stroke-width:0.0000; stroke-opacity:1; 
stroke-linecap:round; stroke-linejoin:round;fill-rule:evenodd;"
d="M 12.3337,5.4875
12.3337,4.6875
13.9337,4.6875
13.9337,5.4875
Z" /> 
</g>
<g >
</g>
<g style="fill:#B4A09A; fill-opacity:0.9000; 
stroke:#B4A09A; stroke-width:0.0000; stroke-opacity:1; 
stroke-linecap:round; stroke-linejoin:round;">
<path style="fill:#B4A09A; fill-opacity:0.9000; 
stroke:#B4A09A; stroke-width:0.0000; stroke-opacity:1; 
stroke-linecap:round; stroke-linejoin:round;fill-rule:evenodd;"
d="M 32.0087,8.4875
32.7087,8.4875
32.7087,9.4875
32.0087,9.4875
Z" /> 
<path style="fill:#B4A09A; fill-opacity:0.9000; 
stroke:#B4A09A; stroke-width:0.0000; stroke-opacity:1; 
stroke-linecap:round; stroke-linejoin:round;fill-rule:evenodd;"
d="M 32.0087,12.4875
32.7087,12.4875
32.7087,13.4875
32.0087,13.4875
Z" /> 
<path style="fill:#B4A09A; fill-opacity:0.9000; 
stroke:#B4A09A; stroke-width:0.0000; stroke-opacity:1; 
stroke-linecap:round; stroke-linejoin:round;fill-rule:evenodd;"
d="M 29.8587,8.4875
30.5587,8.4875
30.5587,9.4875
29.8587,9.4875
Z" /> 
<path style="fill:#B4A09A; fill-opacity:0.9000; 
stroke:#B4A09A; stroke-width:0.0000; stroke-opacity:1; 
stroke-linecap:round; stroke-linejoin:round;fill-rule:evenodd;"
d="M 29.8587,12.4875
30.5587,12.4875
30.5587,13.4875
29.8587,13.4875
Z" /> 
</g>
<g >
</g>
<g >
</g>
<g >
</g>
<g >
</g>
<g >
</g>
<g >
</g>
<g >
</g>
<g >
</g>
</g>
<g style="fill:#000000; fill-opacity:1.0000; 
stroke:#000000; stroke-width:0.0000; stroke-opacity:1; 
stroke-linecap:round; stroke-linejoin:round;">
</g>
<g style="fill:#D0D2CD; fill-opacity:1.0000; 
stroke:#D0D2CD; stroke-width:0.0000; stroke-opacity:1; 
stroke-linecap:round; stroke-linejoin:round;">
</g>
<g style="fill:#D0D2CD; fill-opacity:1.0000; 
stroke:#D0D2CD; stroke-width:0.2000; stroke-opacity:1; 
stroke-linecap:round; stroke-linejoin:round;">
</g>
<g style="fill:#D0D2CD; fill-opacity:0.0; 
stroke:#D0D2CD; stroke-width:0.2000; stroke-opacity:1; 
stroke-linecap:round; stroke-linejoin:round;">
<path d="M36.2837 41.7875
L8.2337 41.7875
" />
<path d="M8.2337 3.5375
L36.2837 3.5375
" />
<path d="M36.2837 3.5375
L36.2837 41.7875
" />
</g>
<g style="fill:#D0D2CD; fill-opacity:0.0; 
stroke:#D0D2CD; stroke-width:0.1000; stroke-opacity:1; 
stroke-linecap:round; stroke-linejoin:round;">
<circle cx="14.1137" cy="16.4275" r="1.0000" /> 
</g>
<g style="fill:#D0D2CD; fill-opacity:0.0; 
stroke:#D0D2CD; stroke-width:0.2000; stroke-opacity:1; 
stroke-linecap:round; stroke-linejoin:round;">
<path d="M8.2337 41.7875
L8.2337 3.5375
" />
<g >
</g>
<g >
</g>
<g >
</g>
<g >
</g>
<g >
</g>
<g >
</g>
<g >
</g>
<g >
</g>
<g >
</g>
<g >
</g>
<g >
</g>
<g >
</g>
<g >
</g>
<g >
</g>
<g >
</g>
<g >
</g>
<g >
</g>
<g >
</g>
<g >
</g>
<g >
</g>
<g >
</g>
<g >
</g>
<g >
</g>
<g >
</g>
<g >
</g>
<g >
</g>
<g >
</g>
<g >
</g>
<g >
</g>
<g >
</g>
<g >
</g>
<g >
</g>
<g >
</g>
<g >
</g>
</g> 
</svg>
